<svg xmlns="http://www.w3.org/2000/svg" xmlns:xlink="http://www.w3.org/1999/xlink" version="1.1" x="0px" y="0px" viewBox="0 0 100 125" enable-background="new 0 0 100 100" xml:space="preserve"><g><path d="M82.222,36.423c-0.019-0.071-0.048-0.136-0.077-0.201c-0.814-6.125-5.476-10.956-11.305-11.65   c-12.714-5.336-23.931-5.053-31.115-3.868c-6.919,1.141-11.457,3.271-12.578,3.836c-6.058,0.571-10.92,5.604-11.638,11.969   c-0.269,1.036-2.583,10.345-2.662,24.474c-0.039,6.928,1.255,11.549,3.847,13.734c1.417,1.195,2.805,1.296,3.433,1.268   c0.125,0.02,0.271,0.035,0.438,0.035c0.461,0,1.069-0.111,1.743-0.523c2.658-1.628,4.467-6.906,5.379-15.699   c0.195-2.046,0.575-4.49,0.911-5.579c0.105,0.233,0.172,0.433,0.211,0.572c0.004,0.021,0.008,0.045,0.014,0.067l0.029,0.127   c0.005,0.025,0.011,0.051,0.017,0.08c0.004,0.019,0.008,0.037,0.013,0.056c1.026,4.271,4.659,7.253,8.836,7.253   c5.027,0,9.116-4.321,9.116-9.633c0-3.292-1.55-6.3-4.156-8.082c-0.072-0.059-0.15-0.111-0.233-0.155L42.436,44.5   c-0.001,0-0.002-0.001-0.003-0.002c2.61-0.599,7.611-1.348,12.87-0.029c-0.016,0.011-0.032,0.021-0.049,0.031l-0.093,0.057   c-0.034,0.021-0.066,0.044-0.099,0.068c-2.637,1.778-4.207,4.803-4.207,8.117c0,5.312,4.089,9.633,9.117,9.633   c4.176,0,7.81-2.982,8.837-7.253c0.004-0.021,0.009-0.043,0.013-0.063c0.006-0.024,0.011-0.049,0.016-0.072l0.029-0.127   c0.004-0.019,0.008-0.038,0.011-0.057c0.044-0.157,0.121-0.391,0.251-0.664c0.342,1.041,0.737,3.561,0.938,5.672   c0.911,8.782,2.721,14.061,5.379,15.688c0.674,0.412,1.282,0.523,1.742,0.523c0.167,0,0.314-0.016,0.438-0.035   c0.632,0.028,2.016-0.072,3.434-1.268c2.591-2.186,3.886-6.807,3.847-13.734C84.825,46.301,82.327,36.819,82.222,36.423z    M20.572,73.254c-0.194-0.052-0.396-0.06-0.594-0.024c-0.006,0-0.707,0.045-1.5-0.625c-1.088-0.918-2.909-3.647-2.864-11.604   c0.038-6.806,0.621-12.513,1.225-16.641c1.61,3.325,4.477,5.907,8.029,6.944c0.013,0.003,0.043,0.012,0.063,0.018l0.35,0.099   c0.002,0,0.004,0.001,0.006,0.002c0.517,0.162,0.957,0.368,1.337,0.6c-0.551,0.706-1.211,2.481-1.689,7.503   C23.61,72.295,20.797,73.206,20.572,73.254z M44.067,52.742c0,3.786-2.849,6.866-6.35,6.866c-2.874,0-5.387-2.083-6.132-5.073   c-0.097-0.543-0.932-4.326-5.451-5.748c-0.041-0.014-0.082-0.027-0.124-0.038c-0.134-0.04-0.27-0.078-0.41-0.114   c-0.001,0-0.002,0-0.004-0.001c-4.368-1.299-7.414-5.607-7.414-10.496c0-6.003,4.538-10.888,10.115-10.888   c5.581,0,10.121,4.884,10.121,10.888c0,0.4-0.021,0.8-0.063,1.188l-0.011,0.078c-0.003,0.018-0.005,0.036-0.007,0.054   c-0.009,0.069-0.02,0.16-0.031,0.268l-0.016,0.127h0l-0.002,0.023c-0.005,0.048-0.008,0.096-0.008,0.143   c-0.12,1.586-0.042,4.876,2.34,6.601c0.021,0.016,0.042,0.031,0.064,0.046c0.011,0.007,0.022,0.015,0.033,0.023   c0.106,0.072,0.216,0.142,0.331,0.208C42.938,48.156,44.067,50.338,44.067,52.742z M41.081,41.976   c-0.086-0.63-0.088-1.293-0.031-1.901c0.009-0.056,0.018-0.117,0.023-0.182c0.006-0.041,0.011-0.082,0.014-0.122l0.012-0.099   c0.003-0.021,0.005-0.042,0.006-0.063c0.051-0.482,0.078-0.977,0.078-1.471c0-5.907-3.559-10.948-8.523-12.847   c1.984-0.666,4.569-1.377,7.634-1.875c5.87-0.954,14.588-1.266,24.62,1.921c-4.903,1.933-8.407,6.941-8.407,12.802   c0,0.492,0.026,0.983,0.077,1.461c0.002,0.024,0.004,0.048,0.007,0.073l0.013,0.099c0.003,0.041,0.008,0.081,0.015,0.122   c0.005,0.066,0.014,0.126,0.022,0.183c0.057,0.601,0.056,1.255-0.028,1.879C50.02,40.112,43.809,41.268,41.081,41.976z    M66.104,54.539c-0.747,2.988-3.26,5.069-6.131,5.069c-3.502,0-6.351-3.08-6.351-6.866c0-2.404,1.129-4.586,3.021-5.845   c0.104-0.061,0.207-0.125,0.306-0.192c0.038-0.023,0.076-0.048,0.111-0.076c0.018-0.013,0.036-0.026,0.053-0.041   c2.342-1.733,2.418-4.994,2.298-6.57c0-0.047-0.003-0.095-0.008-0.143l-0.018-0.148c-0.012-0.107-0.022-0.197-0.031-0.267   c-0.002-0.019-0.004-0.038-0.007-0.058l-0.012-0.075c-0.042-0.388-0.063-0.788-0.063-1.19c0-6.003,4.54-10.888,10.121-10.888   c5.577,0,10.114,4.884,10.114,10.888c0,4.888-3.045,9.195-7.411,10.496c-0.003,0-0.005,0.001-0.008,0.001   C67.088,49.919,66.2,53.995,66.104,54.539z M79.366,72.526c-0.786,0.709-1.479,0.705-1.61,0.698   c-0.215-0.05-0.387-0.033-0.582,0.027c-0.271-0.064-3.043-1.079-4.353-13.715c-0.486-5.099-1.158-6.854-1.714-7.544   c0.371-0.219,0.799-0.415,1.296-0.571c0.002-0.001,0.004-0.002,0.006-0.002l0.348-0.099c0.005-0.001,0.009-0.002,0.014-0.004   c0.018-0.004,0.035-0.01,0.052-0.014c3.59-1.048,6.479-3.674,8.08-7.05c0.608,4.131,1.2,9.874,1.238,16.746   C82.184,68.812,80.421,71.574,79.366,72.526z"/><path d="M34.003,37.508l-1.667-3.881c-0.072-0.168-0.208-0.302-0.379-0.37l-3.923-1.567c-0.17-0.068-0.36-0.065-0.529,0.007   l-3.881,1.667c-0.169,0.072-0.302,0.208-0.37,0.379l-1.566,3.923c-0.068,0.17-0.065,0.361,0.007,0.529l1.666,3.883   c0.072,0.168,0.208,0.301,0.379,0.369l3.923,1.566c0.082,0.033,0.169,0.049,0.256,0.049c0.093,0,0.186-0.019,0.273-0.056   l3.881-1.666c0.169-0.072,0.301-0.208,0.37-0.379l1.567-3.923C34.078,37.868,34.075,37.677,34.003,37.508z M31.264,41.182   l-3.355,1.439l-3.391-1.354l-1.439-3.355l1.354-3.391l3.355-1.44l3.391,1.354l1.44,3.355L31.264,41.182z"/><path d="M64.073,49.202c-0.072-0.168-0.209-0.302-0.379-0.37l-3.534-1.412c-0.17-0.068-0.36-0.065-0.529,0.007l-3.498,1.501   c-0.169,0.072-0.301,0.208-0.369,0.379l-1.411,3.533c-0.068,0.171-0.065,0.361,0.007,0.529l1.501,3.498   c0.072,0.169,0.208,0.301,0.379,0.37l3.533,1.41c0.082,0.033,0.17,0.05,0.258,0.05c0.092,0,0.185-0.019,0.272-0.057l3.497-1.501   c0.168-0.071,0.301-0.208,0.369-0.378l1.412-3.534c0.066-0.171,0.064-0.361-0.008-0.529L64.073,49.202z M62.99,55.983l-2.971,1.275   l-3.001-1.2l-1.275-2.97l1.199-3.002l2.97-1.275l3.003,1.199l1.274,2.97L62.99,55.983z"/><path d="M27.849,33.657c-2.313,0-4.194,1.882-4.194,4.195c0,2.312,1.881,4.194,4.194,4.194c2.312,0,4.194-1.882,4.194-4.194   C32.043,35.539,30.161,33.657,27.849,33.657z M27.849,40.663c-1.55,0-2.811-1.261-2.811-2.811s1.261-2.812,2.811-2.812   c1.55,0,2.811,1.261,2.811,2.812S29.398,40.663,27.849,40.663z"/><path d="M74.053,37.239c0-2.439-1.984-4.424-4.424-4.424s-4.425,1.985-4.425,4.424c0,2.44,1.985,4.424,4.425,4.424   S74.053,39.679,74.053,37.239z M69.629,40.28c-1.678,0-3.041-1.364-3.041-3.041s1.363-3.041,3.041-3.041   c1.677,0,3.041,1.364,3.041,3.041S71.306,40.28,69.629,40.28z"/><path d="M63.225,39.094c-1.607,0-2.915,1.308-2.915,2.915c0,1.608,1.308,2.916,2.915,2.916s2.915-1.308,2.915-2.916   C66.14,40.402,64.832,39.094,63.225,39.094z M63.225,43.542c-0.845,0-1.531-0.688-1.531-1.533c0-0.844,0.687-1.532,1.531-1.532   s1.532,0.688,1.532,1.532C64.757,42.854,64.069,43.542,63.225,43.542z"/><path d="M48.78,34.706c-1.336,0-2.423,1.087-2.423,2.423c0,1.335,1.087,2.422,2.423,2.422c1.335,0,2.422-1.087,2.422-2.422   C51.202,35.793,50.115,34.706,48.78,34.706z M48.78,38.168c-0.573,0-1.04-0.466-1.04-1.039c0-0.573,0.467-1.04,1.04-1.04   c0.573,0,1.039,0.466,1.039,1.04C49.819,37.702,49.353,38.168,48.78,38.168z"/><path d="M59.966,49.988c-1.68,0-3.046,1.366-3.046,3.046s1.366,3.047,3.046,3.047s3.047-1.367,3.047-3.047   S61.646,49.988,59.966,49.988z M59.966,54.697c-0.917,0-1.663-0.746-1.663-1.663c0-0.916,0.746-1.663,1.663-1.663   s1.664,0.747,1.664,1.663C61.63,53.951,60.883,54.697,59.966,54.697z"/><path d="M65.609,33.335c0.39,0,0.745-0.166,1.197-0.374c0.376-0.174,0.844-0.391,1.475-0.582c0.643-0.194,1.217-0.227,1.725-0.255   c0.87-0.049,2.185-0.124,2.115-1.847c-0.039-0.999-0.803-2.065-2.828-2.065c-0.672,0-1.424,0.12-2.175,0.347   c-1.597,0.483-2.66,1.262-2.994,2.194c-0.151,0.423-0.228,1.083,0.27,1.827C64.519,32.767,64.899,33.335,65.609,33.335z    M65.426,31.22c0.138-0.381,0.759-0.933,2.093-1.336c0.623-0.188,1.235-0.288,1.774-0.288c0.529,0,1.422,0.095,1.446,0.737   c0.01,0.221-0.021,0.306-0.017,0.31c-0.102,0.062-0.501,0.084-0.795,0.101c-0.555,0.031-1.246,0.07-2.047,0.312   c-0.724,0.219-1.263,0.469-1.655,0.65c-0.207,0.096-0.46,0.213-0.578,0.24c-0.022-0.022-0.057-0.063-0.104-0.135   C65.354,31.527,65.382,31.346,65.426,31.22z"/><path d="M74.709,36.055c0.202,0.641,0.241,1.215,0.276,1.723c0.06,0.885,0.142,2.099,1.704,2.099c0.053,0,0.107-0.001,0.166-0.004   c0.638-0.033,1.166-0.324,1.525-0.841c0.626-0.901,0.677-2.465,0.136-4.182c-0.615-1.954-1.655-3.075-2.853-3.075   c-0.412,0-0.815,0.133-1.198,0.396c-1.136,0.777-0.721,1.648-0.354,2.416C74.289,34.961,74.511,35.426,74.709,36.055z    M75.247,33.312c0.149-0.103,0.289-0.154,0.417-0.154c0.433,0,1.075,0.651,1.533,2.106c0.456,1.448,0.353,2.539,0.048,2.978   c-0.113,0.164-0.252,0.239-0.46,0.249c-0.181,0.01-0.293-0.015-0.309-0.015c-0.001,0-0.002,0-0.002,0   c-0.063-0.102-0.09-0.5-0.109-0.793c-0.038-0.555-0.085-1.246-0.336-2.044c-0.228-0.721-0.482-1.257-0.669-1.648   c-0.099-0.206-0.218-0.456-0.247-0.575C75.136,33.395,75.177,33.36,75.247,33.312z"/><path d="M39.561,50.727v-2.231c0-0.382-0.311-0.692-0.692-0.692h-2.695c-0.381,0-0.691,0.31-0.691,0.692v2.231h-2.23   c-0.382,0-0.692,0.31-0.692,0.691v2.694c0,0.382,0.31,0.691,0.692,0.691h2.23v2.231c0,0.382,0.31,0.69,0.691,0.69h2.695   c0.381,0,0.692-0.309,0.692-0.69v-2.231c0.862,0,2.23,0.001,2.229,0c0.382,0,0.692-0.31,0.692-0.691v-2.694   c0-0.382-0.31-0.691-0.692-0.691H39.561z M41.099,53.421h-1.774c-0.538,0-1.147,0-1.147,0.691v2.231h-1.312v-2.231   c0-0.382-0.31-0.691-0.692-0.691h-2.23v-1.312h2.23c0.382,0,0.692-0.31,0.692-0.691v-2.231h1.312v2.231   c0,0.382,0.31,0.691,0.691,0.691h2.23V53.421z"/></g><text x="0" y="115" fill="#000000" font-size="5px" font-weight="bold" font-family="'Helvetica Neue', Helvetica, Arial-Unicode, Arial, Sans-serif">Created by Ryan Beck</text><text x="0" y="120" fill="#000000" font-size="5px" font-weight="bold" font-family="'Helvetica Neue', Helvetica, Arial-Unicode, Arial, Sans-serif">from the Noun Project</text></svg>