<?xml version="1.0" encoding="UTF-8" standalone="no"?>
<svg
   version="1.1"
   x="0px"
   y="0px"
   viewBox="0 0 100 125"
   enable-background="new 0 0 100 100"
   xml:space="preserve"
   id="svg25"
   sodipodi:docname="ryan-beck-sp-controller.svg"
   inkscape:version="1.4.2 (f4327f4, 2025-05-13)"
   xmlns:inkscape="http://www.inkscape.org/namespaces/inkscape"
   xmlns:sodipodi="http://sodipodi.sourceforge.net/DTD/sodipodi-0.dtd"
   xmlns="http://www.w3.org/2000/svg"
   xmlns:svg="http://www.w3.org/2000/svg"><defs
     id="defs25" /><sodipodi:namedview
     id="namedview25"
     pagecolor="#505050"
     bordercolor="#eeeeee"
     borderopacity="1"
     inkscape:showpageshadow="0"
     inkscape:pageopacity="0"
     inkscape:pagecheckerboard="0"
     inkscape:deskcolor="#505050"
     inkscape:zoom="9.336"
     inkscape:cx="50.021422"
     inkscape:cy="62.5"
     inkscape:window-width="2560"
     inkscape:window-height="1369"
     inkscape:window-x="-8"
     inkscape:window-y="-8"
     inkscape:window-maximized="1"
     inkscape:current-layer="svg25" /><g
     id="g24"><path
       d="M42.167,63.962h-2.075v-2.075c0-0.348-0.281-0.628-0.627-0.628h-2.493c-0.347,0-0.627,0.28-0.627,0.628v2.075h-2.076   c-0.346,0-0.627,0.28-0.627,0.628v2.492c0,0.347,0.282,0.627,0.627,0.627h2.076v2.077c0,0.345,0.28,0.626,0.627,0.626h2.493   c0.346,0,0.627-0.281,0.627-0.626v-2.077h2.075c0.347,0,0.627-0.28,0.627-0.627V64.59C42.794,64.242,42.514,63.962,42.167,63.962z    M41.54,66.454h-2.075c-0.347,0-0.627,0.281-0.627,0.629v2.074h-1.24v-2.075c0-0.347-0.281-0.628-0.626-0.628h-2.076v-1.238h2.076   c0.346,0,0.626-0.28,0.626-0.626v-2.077h1.24v2.077c0,0.346,0.28,0.626,0.627,0.626h2.075V66.454z"
       id="path1" /><path
       d="M56.469,65.52c-1.474,0-2.671,1.199-2.671,2.671s1.197,2.671,2.671,2.671c1.473,0,2.67-1.199,2.67-2.671   S57.941,65.52,56.469,65.52z M56.469,69.606c-0.782,0-1.418-0.635-1.418-1.416s0.636-1.417,1.418-1.417   c0.78,0,1.416,0.636,1.416,1.417S57.249,69.606,56.469,69.606z"
       id="path2" /><path
       d="M38.229,59.703c-3.361,0-6.096,2.733-6.096,6.094s2.734,6.095,6.096,6.095c3.36,0,6.092-2.734,6.092-6.095   S41.589,59.703,38.229,59.703z M38.229,70.637c-2.67,0-4.842-2.17-4.842-4.84c0-2.668,2.172-4.839,4.842-4.839   c2.668,0,4.838,2.171,4.838,4.839C43.067,68.467,40.897,70.637,38.229,70.637z"
       id="path3" /><path
       d="M62.448,61.569c-1.472,0-2.671,1.199-2.671,2.671c0,1.473,1.199,2.672,2.671,2.672c1.473,0,2.671-1.199,2.671-2.672   C65.119,62.769,63.921,61.569,62.448,61.569z M62.448,65.657c-0.781,0-1.417-0.636-1.417-1.417s0.636-1.417,1.417-1.417   s1.416,0.636,1.416,1.417S63.229,65.657,62.448,65.657z"
       id="path4" /><path
       d="M51.024,58.441c0-1.035-0.842-1.878-1.876-1.878c-1.035,0-1.877,0.843-1.877,1.878s0.842,1.878,1.877,1.878   C50.183,60.319,51.024,59.477,51.024,58.441z M49.148,59.063c-0.344,0-0.623-0.279-0.623-0.622c0-0.344,0.279-0.622,0.623-0.622   c0.343,0,0.623,0.278,0.623,0.622C49.771,58.784,49.491,59.063,49.148,59.063z"
       id="path5" /><path
       d="M52.25,83.028c-1.035,0-1.877,0.843-1.877,1.878s0.842,1.877,1.877,1.877c1.034,0,1.876-0.842,1.876-1.877   S53.284,83.028,52.25,83.028z M52.25,85.529c-0.344,0-0.623-0.279-0.623-0.623s0.279-0.623,0.623-0.623s0.622,0.279,0.622,0.623   S52.594,85.529,52.25,85.529z"
       id="path6" /><path
       d="M46.046,83.028c-1.035,0-1.876,0.843-1.876,1.878s0.841,1.877,1.876,1.877s1.877-0.842,1.877-1.877   S47.081,83.028,46.046,83.028z M46.046,85.529c-0.343,0-0.623-0.279-0.623-0.623s0.279-0.623,0.623-0.623   c0.344,0,0.623,0.279,0.623,0.623S46.39,85.529,46.046,85.529z"
       id="path7" /><path
       d="M71.229,14.14c0-2.42-1.969-4.39-4.389-4.39H31.787c-2.421,0-4.39,1.969-4.39,4.39v30.73c0,1.174,0.466,2.238,1.219,3.028   c-0.541,0.579-0.891,1.334-0.954,2.172c-0.019,0.087-0.03,0.176-0.03,0.27v2.648c0,0.405,0.196,0.763,0.496,0.993   c-0.46,0.694-0.73,1.523-0.73,2.418v30.729c0,2.421,1.969,4.39,4.39,4.39h35.054c2.42,0,4.389-1.969,4.389-4.39V56.398   c0-0.895-0.27-1.724-0.73-2.418c0.3-0.23,0.496-0.588,0.496-0.993v-2.648c0-0.949-0.372-1.81-0.976-2.451   c0.748-0.788,1.21-1.849,1.21-3.019V14.14z M48.059,49.26v2.473H35.493V49.26H48.059z M63.463,49.26v2.473H50.567V49.26H63.463z    M32.985,51.732H30.14v-1.223c0.008-0.056,0.017-0.112,0.017-0.17c0-0.596,0.484-1.08,1.081-1.08h0.549h1.198V51.732z    M67.406,49.26c0.596,0,1.081,0.484,1.081,1.08v1.393h-2.515V49.26h0.868H67.406z M29.906,14.14c0-1.037,0.844-1.881,1.881-1.881   h35.054c1.036,0,1.881,0.844,1.881,1.881v30.73c0,1.038-0.845,1.881-1.881,1.881H31.787c-1.038,0-1.881-0.844-1.881-1.881V14.14z    M68.722,87.128c0,1.038-0.845,1.882-1.881,1.882H31.787c-1.038,0-1.881-0.844-1.881-1.882V56.398c0-1.037,0.844-1.882,1.881-1.882   h35.054c1.036,0,1.881,0.845,1.881,1.882V87.128z"
       id="path8" /><path
       d="M33.892,41.445h30.843c1.163,0,2.107-0.945,2.107-2.107V16.64c0-1.162-0.944-2.107-2.107-2.107H33.892   c-1.162,0-2.107,0.945-2.107,2.107v22.698C31.785,40.5,32.73,41.445,33.892,41.445z M33.039,16.64c0-0.47,0.383-0.853,0.853-0.853   h30.843c0.471,0,0.854,0.383,0.854,0.853v22.698c0,0.471-0.383,0.853-0.854,0.853H33.892c-0.47,0-0.853-0.382-0.853-0.853V16.64z"
       id="path9" /><path
       d="M35.868,37.048h26.891c0.346,0,0.626-0.281,0.626-0.627V18.718c0-0.346-0.28-0.627-0.626-0.627H35.868   c-0.347,0-0.627,0.281-0.627,0.627v17.703C35.241,36.767,35.521,37.048,35.868,37.048z"
       id="path10" /><path
       d="M63.933,44.535c0,0.983,0.799,1.782,1.782,1.782c0.982,0,1.782-0.799,1.782-1.782s-0.8-1.782-1.782-1.782   C64.731,42.753,63.933,43.552,63.933,44.535z M66.243,44.535c0,0.292-0.236,0.528-0.528,0.528c-0.29,0-0.527-0.236-0.527-0.528   c0-0.291,0.237-0.528,0.527-0.528C66.007,44.007,66.243,44.244,66.243,44.535z"
       id="path11" /><path
       d="M32.746,46.317c0.982,0,1.782-0.799,1.782-1.782s-0.8-1.782-1.782-1.782c-0.983,0-1.782,0.799-1.782,1.782   S31.763,46.317,32.746,46.317z M32.746,44.007c0.291,0,0.527,0.237,0.527,0.528c0,0.292-0.236,0.528-0.527,0.528   s-0.528-0.236-0.528-0.528C32.218,44.244,32.455,44.007,32.746,44.007z"
       id="path12" /><path
       d="M63.367,59.39c-0.686,0-1.339,0.197-1.893,0.572l-8.412,5.691c-1.658,1.121-1.994,3.531-0.749,5.373   c0.794,1.176,2.057,1.878,3.373,1.878c0.686,0,1.34-0.198,1.894-0.573l8.414-5.69c1.656-1.122,1.992-3.532,0.746-5.374   C65.945,60.091,64.685,59.39,63.367,59.39z M65.291,65.602l-8.414,5.691c-0.346,0.233-0.757,0.356-1.19,0.356   c-0.887,0-1.78-0.508-2.334-1.325c-0.857-1.27-0.673-2.898,0.411-3.633L62.177,61c0.346-0.233,0.757-0.356,1.19-0.356   c0.887,0,1.781,0.509,2.335,1.327C66.56,63.238,66.376,64.867,65.291,65.602z"
       id="path13" /><circle
       cx="48.103"
       cy="72.077"
       r="0.313"
       id="circle13" /><circle
       cx="50.266"
       cy="72.077"
       r="0.313"
       id="circle14" /><circle
       cx="45.939"
       cy="74.159"
       r="0.313"
       id="circle15" /><circle
       cx="48.103"
       cy="74.159"
       r="0.313"
       id="circle16" /><circle
       cx="50.266"
       cy="74.159"
       r="0.313"
       id="circle17" /><circle
       cx="52.43"
       cy="74.159"
       r="0.313"
       id="circle18" /><circle
       cx="45.939"
       cy="76.241"
       r="0.314"
       id="circle19" /><circle
       cx="48.103"
       cy="76.241"
       r="0.314"
       id="circle20" /><circle
       cx="50.266"
       cy="76.241"
       r="0.314"
       id="circle21" /><circle
       cx="52.43"
       cy="76.241"
       r="0.314"
       id="circle22" /><circle
       cx="48.103"
       cy="78.323"
       r="0.314"
       id="circle23" /><circle
       cx="50.266"
       cy="78.323"
       r="0.314"
       id="circle24" /></g></svg>
