<?xml version="1.0" encoding="UTF-8" standalone="no"?>
<svg
   version="1.1"
   x="0px"
   y="0px"
   viewBox="0 0 100 125"
   enable-background="new 0 0 100 100"
   xml:space="preserve"
   id="svg21"
   sodipodi:docname="ryan-beck-psvita-controller.svg"
   inkscape:version="1.4.2 (f4327f4, 2025-05-13)"
   xmlns:inkscape="http://www.inkscape.org/namespaces/inkscape"
   xmlns:sodipodi="http://sodipodi.sourceforge.net/DTD/sodipodi-0.dtd"
   xmlns="http://www.w3.org/2000/svg"
   xmlns:svg="http://www.w3.org/2000/svg"><defs
     id="defs21" /><sodipodi:namedview
     id="namedview21"
     pagecolor="#505050"
     bordercolor="#eeeeee"
     borderopacity="1"
     inkscape:showpageshadow="0"
     inkscape:pageopacity="0"
     inkscape:pagecheckerboard="0"
     inkscape:deskcolor="#505050"
     inkscape:zoom="9.336"
     inkscape:cx="50.021422"
     inkscape:cy="62.5"
     inkscape:window-width="2560"
     inkscape:window-height="1369"
     inkscape:window-x="-8"
     inkscape:window-y="-8"
     inkscape:window-maximized="1"
     inkscape:current-layer="svg21" /><g
     id="g20"><path
       d="M75.935,35.582H24.919c-1.051,0-1.906,0.801-1.906,1.785v27.901c0,0.983,0.855,1.784,1.906,1.784h51.016   c1.05,0,1.904-0.801,1.904-1.784V37.366C77.839,36.382,76.984,35.582,75.935,35.582z M76.502,65.268   c0,0.241-0.26,0.447-0.567,0.447H24.919c-0.309,0-0.569-0.206-0.569-0.447V37.366c0-0.243,0.261-0.447,0.569-0.447h51.016   c0.308,0,0.567,0.205,0.567,0.447V65.268z"
       id="path1" /><path
       d="M87.225,45.346c1.376,0,2.495-1.119,2.495-2.493c0-1.376-1.119-2.494-2.495-2.494c-1.374,0-2.493,1.118-2.493,2.494   C84.731,44.228,85.851,45.346,87.225,45.346z M87.225,41.696c0.639,0,1.157,0.519,1.157,1.157c0,0.638-0.519,1.156-1.157,1.156   c-0.637,0-1.155-0.519-1.155-1.156C86.069,42.215,86.588,41.696,87.225,41.696z"
       id="path2" /><path
       d="M87.225,47.719c-1.374,0-2.493,1.119-2.493,2.494s1.119,2.494,2.493,2.494c1.376,0,2.495-1.119,2.495-2.494   S88.601,47.719,87.225,47.719z M87.225,51.37c-0.637,0-1.155-0.519-1.155-1.157s0.519-1.157,1.155-1.157   c0.639,0,1.157,0.519,1.157,1.157S87.863,51.37,87.225,51.37z"
       id="path3" /><path
       d="M88.412,46.533c0,1.375,1.118,2.495,2.493,2.495s2.494-1.119,2.494-2.495s-1.119-2.494-2.494-2.494   S88.412,45.157,88.412,46.533z M90.905,45.376c0.638,0,1.157,0.519,1.157,1.156c0,0.638-0.52,1.158-1.157,1.158   s-1.156-0.52-1.156-1.158C89.749,45.895,90.268,45.376,90.905,45.376z"
       id="path4" /><path
       d="M83.545,49.027c1.376,0,2.494-1.119,2.494-2.495s-1.118-2.494-2.494-2.494c-1.374,0-2.494,1.118-2.494,2.494   S82.171,49.027,83.545,49.027z M83.545,45.376c0.639,0,1.156,0.519,1.156,1.156c0,0.638-0.518,1.158-1.156,1.158   c-0.638,0-1.157-0.52-1.157-1.158C82.388,45.895,82.907,45.376,83.545,45.376z"
       id="path5" /><path
       d="M90.545,35.895c-0.069-0.045-0.145-0.081-0.221-0.112c-4.133-3.447-9.18-4.266-11.403-4.459   c-0.087-0.025-0.15-0.041-0.178-0.047c-0.099-0.022-0.199-0.034-0.3-0.034H52.216H23.243c-0.102,0-0.202,0.011-0.301,0.034   c-0.027,0.006-0.09,0.022-0.178,0.047c-2.223,0.193-7.271,1.012-11.402,4.459c-0.077,0.031-0.151,0.067-0.221,0.112   c-0.279,0.18-6.825,4.551-6.825,16.083c0,11.375,5.647,16.936,5.888,17.166c0.071,0.067,0.149,0.124,0.231,0.176   c3.937,3.272,8.696,4.167,11.054,4.409c1.022,0.314,2.042,0.317,2.767,0.317H49.47H77.43c0.726,0,1.745-0.003,2.769-0.317   c2.356-0.242,7.116-1.137,11.053-4.409c0.082-0.052,0.161-0.108,0.231-0.176c0.24-0.23,5.887-5.791,5.887-17.166   C97.369,40.446,90.823,36.075,90.545,35.895z M87.931,35.68h-1.904c-1.963,0-2.543-0.713-3.348-1.701   c-0.211-0.259-0.433-0.525-0.682-0.783C83.785,33.63,85.918,34.382,87.931,35.68z M19.685,33.2   c-0.247,0.257-0.467,0.521-0.677,0.779c-0.804,0.987-1.386,1.701-3.348,1.701h-1.902C15.765,34.386,17.896,33.635,19.685,33.2z    M13.299,69.518c1.952,1.207,3.969,1.938,5.639,2.376c0.01,0.015,0.02,0.029,0.03,0.045c-1.783-0.414-3.938-1.141-5.981-2.421   H13.299z M16.166,69.518h0.111c0.2,0.041,0.78,0.189,1.321,0.567C17.131,69.921,16.652,69.731,16.166,69.518z M49.47,71.373H24.256   c-2.095,0-2.854-0.324-3.386-1.448c-1.244-2.626-4.168-3.053-4.292-3.069c-0.06-0.009-0.12-0.013-0.181-0.013h-4.68   c-1.138-1.326-4.726-6.198-4.726-14.865c0-8.786,4.157-12.703,5.315-13.623h3.354c3.233,0,4.498-1.553,5.421-2.687   c0.201-0.247,0.391-0.48,0.58-0.669c0.683-0.683,1.479-0.988,1.769-1.083h28.787h26.038c0.3,0.097,1.092,0.403,1.771,1.083   c0.188,0.188,0.378,0.422,0.58,0.669c0.923,1.134,2.187,2.687,5.421,2.687h3.353c1.169,0.929,5.316,4.846,5.316,13.623   c0,8.608-3.598,13.529-4.73,14.865h-4.676c-0.06,0-0.121,0.004-0.182,0.013c-0.123,0.017-3.048,0.443-4.292,3.069   c-0.531,1.124-1.29,1.448-3.386,1.448H49.47z M82.748,71.894c1.671-0.438,3.687-1.169,5.639-2.376h0.312   c-2.043,1.28-4.197,2.007-5.98,2.42C82.729,71.923,82.737,71.908,82.748,71.894z M84.086,70.086   c0.546-0.383,1.131-0.529,1.32-0.568h0.113C85.033,69.732,84.553,69.921,84.086,70.086z"
       id="path6" /><path
       d="M15.292,47.549c-0.457-0.455-1.25-0.456-1.708,0.002l-1.057,1.058c-0.125,0.125-0.196,0.295-0.196,0.473v2.261   c0,0.368,0.299,0.668,0.669,0.668h2.877c0.37,0,0.669-0.3,0.669-0.668v-2.261c0-0.178-0.07-0.348-0.196-0.473L15.292,47.549z    M15.211,50.673h-1.542v-1.315l0.771-0.771l0.771,0.771V50.673z"
       id="path7" /><path
       d="M13.587,45.517c0.229,0.227,0.532,0.352,0.854,0.352c0.321,0,0.625-0.125,0.853-0.354l1.058-1.058   c0.125-0.125,0.196-0.295,0.196-0.473v-2.261c0-0.369-0.299-0.668-0.669-0.668h-2.877c-0.37,0-0.669,0.299-0.669,0.668v2.261   c0,0.177,0.07,0.347,0.196,0.473L13.587,45.517z M13.669,42.392h1.542v1.315l-0.771,0.771l-0.771-0.771V42.392z"
       id="path8" /><path
       d="M12.363,48.445l1.061-1.06c0.468-0.47,0.468-1.236-0.001-1.707l-1.06-1.058c-0.125-0.125-0.295-0.196-0.472-0.196H9.63   c-0.37,0-0.668,0.299-0.668,0.668v2.878c0,0.37,0.298,0.669,0.668,0.669h2.261C12.068,48.641,12.238,48.57,12.363,48.445z    M10.299,47.303v-1.541h1.315l0.771,0.771l-0.771,0.771H10.299z"
       id="path9" /><path
       d="M15.457,45.68c-0.469,0.471-0.469,1.236,0,1.707l1.059,1.059c0.125,0.125,0.295,0.196,0.473,0.196h2.26   c0.37,0,0.669-0.299,0.669-0.669v-2.878c0-0.37-0.299-0.668-0.669-0.668h-2.26c-0.177,0-0.347,0.07-0.473,0.196L15.457,45.68z    M17.266,45.762h1.315v1.541h-1.315l-0.771-0.771L17.266,45.762z"
       id="path10" /><polygon
       points="14.44,42.561 13.859,43.141 15.021,43.141  "
       id="polygon10" /><polygon
       points="14.439,50.518 15.02,49.938 13.859,49.938  "
       id="polygon11" /><polygon
       points="17.838,45.959 17.838,47.12 18.419,46.539  "
       id="polygon12" /><polygon
       points="10.931,47.12 10.932,45.959 10.351,46.539  "
       id="polygon13" /><path
       d="M16.436,54.517c-1.598,0-2.898,1.3-2.898,2.898c0,1.598,1.3,2.898,2.898,2.898c1.599,0,2.899-1.301,2.899-2.898   C19.335,55.816,18.035,54.517,16.436,54.517z M16.436,58.977c-0.86,0-1.561-0.701-1.561-1.562s0.7-1.562,1.561-1.562   c0.862,0,1.562,0.701,1.562,1.562S17.297,58.977,16.436,58.977z"
       id="path13" /><circle
       cx="10.754"
       cy="58.835"
       r="0.299"
       id="circle13" /><circle
       cx="9.473"
       cy="58.835"
       r="0.299"
       id="circle14" /><circle
       cx="10.319"
       cy="57.714"
       r="0.299"
       id="circle15" /><circle
       cx="9.038"
       cy="57.714"
       r="0.299"
       id="circle16" /><path
       d="M16.435,52.728c-2.584,0-4.686,2.103-4.686,4.688c0,2.584,2.102,4.688,4.686,4.688c2.585,0,4.689-2.104,4.689-4.688   C21.124,54.83,19.021,52.728,16.435,52.728z M16.435,60.766c-1.846,0-3.349-1.503-3.349-3.351s1.502-3.35,3.349-3.35   c1.848,0,3.352,1.502,3.352,3.35S18.283,60.766,16.435,60.766z"
       id="path16" /><path
       d="M85.248,62.103c2.586,0,4.688-2.104,4.688-4.688c0-2.585-2.103-4.688-4.688-4.688c-2.584,0-4.686,2.103-4.686,4.688   C80.562,59.999,82.664,62.103,85.248,62.103z M85.248,54.065c1.848,0,3.352,1.502,3.352,3.35s-1.504,3.351-3.352,3.351   c-1.846,0-3.349-1.503-3.349-3.351S83.402,54.065,85.248,54.065z"
       id="path17" /><path
       d="M85.248,60.313c1.599,0,2.899-1.301,2.899-2.898c0-1.599-1.301-2.898-2.899-2.898c-1.597,0-2.897,1.3-2.897,2.898   C82.351,59.013,83.651,60.313,85.248,60.313z M85.248,55.854c0.862,0,1.562,0.701,1.562,1.562s-0.7,1.562-1.562,1.562   c-0.86,0-1.561-0.701-1.561-1.562S84.388,55.854,85.248,55.854z"
       id="path18" /><path
       d="M82.521,66.659c1.469,0,2.533-0.674,2.533-1.601c0-0.928-1.064-1.602-2.533-1.602c-1.468,0-2.533,0.674-2.533,1.602   C79.987,65.985,81.053,66.659,82.521,66.659z M82.521,64.794c0.588,0,0.965,0.154,1.129,0.265   c-0.163,0.109-0.541,0.264-1.129,0.264c-0.589,0-0.965-0.154-1.128-0.264C81.556,64.948,81.932,64.794,82.521,64.794z"
       id="path19" /><path
       d="M87.918,63.457c-1.469,0-2.534,0.674-2.534,1.602c0,0.927,1.065,1.601,2.534,1.601c1.468,0,2.534-0.674,2.534-1.601   C90.452,64.131,89.386,63.457,87.918,63.457z M87.918,65.322c-0.588,0-0.965-0.154-1.128-0.264c0.163-0.11,0.54-0.265,1.128-0.265   c0.587,0,0.965,0.154,1.128,0.265C88.883,65.168,88.505,65.322,87.918,65.322z"
       id="path20" /></g></svg>
