<?xml version="1.0" encoding="UTF-8" standalone="no"?>
<svg
   version="1.1"
   x="0px"
   y="0px"
   viewBox="0 0 100 125"
   enable-background="new 0 0 100 100"
   xml:space="preserve"
   id="svg12"
   sodipodi:docname="ryan-beck-n64-controller.svg"
   inkscape:version="1.4.2 (f4327f4, 2025-05-13)"
   xmlns:inkscape="http://www.inkscape.org/namespaces/inkscape"
   xmlns:sodipodi="http://sodipodi.sourceforge.net/DTD/sodipodi-0.dtd"
   xmlns="http://www.w3.org/2000/svg"
   xmlns:svg="http://www.w3.org/2000/svg"><defs
     id="defs12" /><sodipodi:namedview
     id="namedview12"
     pagecolor="#505050"
     bordercolor="#eeeeee"
     borderopacity="1"
     inkscape:showpageshadow="0"
     inkscape:pageopacity="0"
     inkscape:pagecheckerboard="0"
     inkscape:deskcolor="#505050"
     inkscape:zoom="9.336"
     inkscape:cx="50.021422"
     inkscape:cy="62.5"
     inkscape:window-width="2560"
     inkscape:window-height="1369"
     inkscape:window-x="-8"
     inkscape:window-y="-8"
     inkscape:window-maximized="1"
     inkscape:current-layer="svg12" /><g
     id="g11"><path
       d="M65.792,37.812c0-1.767-1.437-3.203-3.202-3.203s-3.203,1.437-3.203,3.203c0,1.765,1.438,3.202,3.203,3.202   S65.792,39.578,65.792,37.812z M62.59,39.644c-1.011,0-1.833-0.821-1.833-1.831c0-1.011,0.822-1.833,1.833-1.833   c1.01,0,1.831,0.822,1.831,1.833C64.421,38.822,63.6,39.644,62.59,39.644z"
       id="path1" /><path
       d="M71.045,43.065c0-1.766-1.437-3.203-3.202-3.203s-3.203,1.437-3.203,3.203c0,1.766,1.438,3.202,3.203,3.202   S71.045,44.831,71.045,43.065z M67.843,44.897c-1.011,0-1.833-0.821-1.833-1.832s0.822-1.833,1.833-1.833   c1.01,0,1.831,0.822,1.831,1.833S68.853,44.897,67.843,44.897z"
       id="path2" /><path
       d="M85.113,37.49c0.037-0.397,0.061-0.798,0.061-1.204c0-6.036-4.265-11.426-10.604-13.409   c-0.014-0.004-0.026-0.007-0.039-0.011c-0.015-0.004-0.027-0.012-0.042-0.015l-0.098-0.025c-0.49-0.15-0.985-0.275-1.479-0.374   l-5.887-1.49c-0.021-0.005-0.021-0.005-0.043-0.01c-0.104-0.025-1.019-0.275-1.316-1.368c-0.031-0.113-0.077-0.222-0.136-0.324   c-0.285-0.495-3.131-4.835-14.949-4.835h-1.62c-11.783,0-14.834,4.299-15.144,4.789c-0.073,0.115-0.127,0.24-0.163,0.371   c-0.298,1.093-1.213,1.343-1.292,1.363c-0.022,0.004-0.045,0.01-0.067,0.015l-5.887,1.49c-0.498,0.1-0.998,0.225-1.488,0.376   l-0.089,0.022c-0.013,0.003-0.024,0.01-0.037,0.013c-0.011,0.004-0.023,0.006-0.035,0.01c-6.348,1.986-10.613,7.375-10.613,13.412   c0,0.482,0.028,0.958,0.08,1.428c-0.821,2.01-4.241,11.536-1.151,24.061c1.675,6.788,3.824,10.235,6.572,10.542   c0.133,0.015,0.263,0.021,0.391,0.021c1.965,0,3.334-1.67,3.804-2.61c0.74-1.48,3.312-12.979,4.082-16.467   c0.024-0.108,0.035-0.076,0.033-0.129c0.139-0.272,1.187-1.79,6.864-1.164c1.38,0.754,2.604,1.876,2.966,3.543   c0.187,0.861,0.423,2.264,0.723,4.039c2.204,13.062,4.805,25.836,10.105,27.672c0.216,0.143,0.475,0.225,0.753,0.225h0.585   c0.278,0,0.537-0.082,0.753-0.225c5.3-1.836,7.9-14.61,10.104-27.672c0.3-1.775,0.536-3.178,0.723-4.039   c0.359-1.656,1.581-2.775,2.959-3.529c5.786-0.662,6.845,0.875,6.984,1.15c-0.002,0.053,0.009,0.021,0.032,0.129   c0.771,3.488,3.343,14.986,4.082,16.467c0.471,0.94,1.84,2.61,3.805,2.61c0.128,0,0.258-0.007,0.391-0.021   c2.748-0.306,4.897-3.754,6.572-10.542C89.591,48.673,85.701,38.858,85.113,37.49z M25.238,52.719   c-1.561,7.066-3.425,14.893-3.846,15.785c-0.213,0.425-0.88,1.152-1.44,1.089c-0.365-0.04-2.281-0.64-4.214-8.474   c-1.977-8.016-1.063-14.793-0.082-18.791c2.135,4.06,6.352,7.072,11.41,7.925c-0.184,0.115-0.361,0.236-0.521,0.368   C25.545,51.443,25.299,52.346,25.238,52.719z M58.855,54.932c-0.199,0.922-0.441,2.353-0.746,4.163   c-0.747,4.424-1.875,11.109-3.487,16.595c-2.139,7.272-4.025,8.748-4.961,8.98c-0.936-0.232-2.822-1.708-4.96-8.98   c-1.613-5.485-2.741-12.171-3.487-16.595c-0.306-1.811-0.547-3.241-0.747-4.163c-1.372-6.33-9.98-7.134-10.346-7.165   c-0.039-0.003-0.078-0.005-0.116-0.005c-7.232,0-13.116-5.148-13.116-11.476c0-4.831,3.493-9.17,8.7-10.799   c0.001,0,0.003-0.001,0.005-0.001l1.493-0.378c0.018-0.003,0.036-0.008,0.054-0.012c0.018-0.003,0.034-0.011,0.052-0.015   l5.75-1.455c0.785-0.169,2.066-0.792,2.859-2.135c0.667,2.916,1.618,7.749,1.27,10.359c-0.05,0.375,0.213,0.72,0.588,0.77   c0.031,0.004,0.062,0.006,0.091,0.006c0.338,0,0.633-0.25,0.679-0.595c0.434-3.255-0.917-9.361-1.569-12.026   c1.338-1.031,4.734-2.84,12.104-2.84h1.62c7.116,0,10.42,1.685,11.776,2.715c-0.639,2.594-2.04,8.843-1.6,12.151   c0.046,0.344,0.34,0.595,0.678,0.595c0.03,0,0.062-0.002,0.092-0.006c0.375-0.05,0.639-0.395,0.589-0.77   c-0.354-2.66,0.641-7.633,1.31-10.529c0.78,1.461,2.138,2.129,2.955,2.305l5.747,1.455c0.019,0.004,0.035,0.012,0.054,0.015   s0.037,0.009,0.056,0.012l1.482,0.375c0.007,0.002,0.015,0.004,0.021,0.007c5.199,1.626,8.691,5.964,8.691,10.796   c0,6.328-5.884,11.476-13.116,11.476c-0.039,0-0.078,0.002-0.116,0.005C68.836,47.798,60.228,48.602,58.855,54.932z M83.698,61.119   c-1.934,7.834-3.85,8.434-4.214,8.474c-0.565,0.064-1.229-0.664-1.439-1.086c-0.423-0.896-2.286-8.722-3.848-15.788   c-0.061-0.373-0.307-1.275-1.306-2.097c-0.167-0.138-0.352-0.265-0.545-0.384c5.079-0.885,9.298-3.949,11.396-8.06   C84.737,46.155,85.7,53.002,83.698,61.119z"
       id="path3" /><path
       d="M49.639,44.59c-4.669,0-8.467,3.799-8.467,8.467s3.798,8.467,8.467,8.467c4.668,0,8.467-3.799,8.467-8.467   S54.307,44.59,49.639,44.59z M49.639,60.153c-3.913,0-7.097-3.184-7.097-7.097s3.184-7.096,7.097-7.096s7.097,3.183,7.097,7.096   S53.552,60.153,49.639,60.153z"
       id="path4" /><path
       d="M52.996,53.057c0-1.851-1.506-3.356-3.357-3.356c-1.851,0-3.357,1.506-3.357,3.356c0,1.852,1.506,3.357,3.357,3.357   C51.49,56.414,52.996,54.908,52.996,53.057z M49.639,55.043c-1.095,0-1.986-0.891-1.986-1.986s0.891-1.986,1.986-1.986   s1.986,0.891,1.986,1.986S50.734,55.043,49.639,55.043z"
       id="path5" /><path
       d="M52.648,38.427c0-1.624-1.32-2.945-2.945-2.945c-1.624,0-2.946,1.321-2.946,2.945s1.322,2.945,2.946,2.945   C51.328,41.373,52.648,40.051,52.648,38.427z M48.128,38.427c0-0.868,0.707-1.575,1.575-1.575s1.575,0.707,1.575,1.575   s-0.706,1.575-1.575,1.575S48.128,39.295,48.128,38.427z"
       id="path6" /><path
       d="M26.921,27.753c-4.887,0-8.862,3.975-8.862,8.861c0,4.885,3.976,8.858,8.862,8.858c4.885,0,8.859-3.974,8.859-8.858   C35.78,31.729,31.806,27.753,26.921,27.753z M26.921,44.103c-4.131,0-7.492-3.359-7.492-7.488c0-4.13,3.361-7.49,7.492-7.49   c4.129,0,7.489,3.36,7.489,7.49C34.41,40.743,31.05,44.103,26.921,44.103z"
       id="path7" /><path
       d="M53.865,49.27c-0.01-0.021-0.021-0.042-0.033-0.062c-0.01-0.02-0.02-0.039-0.032-0.057   c-0.012-0.018-0.026-0.033-0.04-0.049c-0.015-0.019-0.028-0.037-0.045-0.053c-0.015-0.014-0.031-0.026-0.048-0.039   c-0.018-0.016-0.036-0.031-0.057-0.044c-0.016-0.011-0.033-0.019-0.05-0.028c-0.023-0.012-0.046-0.024-0.07-0.034   c-0.006-0.002-0.01-0.005-0.015-0.007l-3.626-1.354c-0.159-0.06-0.334-0.058-0.492,0.005l-3.411,1.354   c-0.005,0.002-0.009,0.005-0.015,0.007c-0.023,0.01-0.044,0.023-0.066,0.035c-0.018,0.01-0.036,0.02-0.053,0.03   c-0.019,0.013-0.035,0.028-0.052,0.042c-0.017,0.016-0.034,0.028-0.05,0.043c-0.015,0.016-0.027,0.033-0.041,0.051   c-0.015,0.018-0.029,0.034-0.042,0.054c-0.011,0.017-0.02,0.035-0.029,0.053c-0.012,0.022-0.024,0.044-0.033,0.067   c-0.002,0.006-0.005,0.01-0.007,0.016l-1.354,3.625c-0.06,0.158-0.058,0.334,0.005,0.492l1.354,3.412   c0.001,0.004,0.004,0.006,0.006,0.01c0.023,0.057,0.054,0.109,0.092,0.157c0.008,0.011,0.018,0.021,0.027,0.03   c0.034,0.039,0.073,0.074,0.116,0.105c0.008,0.006,0.015,0.013,0.022,0.018c0.042,0.027,0.086,0.051,0.134,0.068l3.626,1.354   c0.077,0.029,0.158,0.043,0.24,0.043c0.085,0,0.171-0.016,0.252-0.048l3.411-1.353c0.047-0.02,0.09-0.043,0.13-0.07   c0.006-0.003,0.01-0.008,0.015-0.012c0.047-0.033,0.088-0.071,0.123-0.113c0.009-0.011,0.018-0.02,0.025-0.031   c0.038-0.049,0.068-0.104,0.091-0.161c0.002-0.004,0.005-0.007,0.006-0.011l1.354-3.626c0.06-0.159,0.058-0.335-0.005-0.492   l-1.354-3.411C53.871,49.279,53.867,49.275,53.865,49.27z M49.817,57.194l-3.094-1.154l-1.144-2.884l1.155-3.094l2.883-1.144   l3.093,1.154l1.145,2.884L52.7,56.051L49.817,57.194z"
       id="path8" /><path
       d="M55.729,20.568h-12.18c-1.31,0-2.376,1.066-2.376,2.377s1.066,2.377,2.376,2.377h12.18c1.311,0,2.377-1.066,2.377-2.377   S57.039,20.568,55.729,20.568z M55.729,23.952h-12.18c-0.555,0-1.006-0.452-1.006-1.006c0-0.555,0.452-1.007,1.006-1.007h12.18   c0.556,0,1.007,0.452,1.007,1.007C56.735,23.5,56.284,23.952,55.729,23.952z"
       id="path9" /><path
       d="M29.228,34.434v-2.835c0-0.378-0.307-0.686-0.685-0.686h-3.247c-0.378,0-0.685,0.307-0.685,0.686v2.835h-2.834   c-0.378,0-0.686,0.307-0.686,0.685v3.246c0,0.378,0.307,0.685,0.686,0.685h2.834v2.835c0,0.378,0.307,0.686,0.685,0.686h3.247   c0.378,0,0.685-0.307,0.685-0.686V39.05c1.022,0,2.837,0,2.834,0c0.378,0,0.685-0.307,0.685-0.685v-3.246   c0-0.378-0.307-0.685-0.685-0.685H29.228z M31.377,37.68h-2.285c-0.663,0-1.235,0-1.235,0.685V41.2h-1.876v-2.835   c0-0.378-0.307-0.685-0.685-0.685h-2.834v-1.876h2.834c0.378,0,0.685-0.307,0.685-0.685v-2.835h1.876v2.835   c0,0.378,0.307,0.685,0.685,0.685h2.834V37.68z"
       id="path10" /><path
       d="M70.251,36.195c0.03,0,0.06-0.003,0.09-0.004c0.392,0.678,0.943,1.25,1.606,1.664c0,0.012-0.002,0.024-0.002,0.036   c0,1.312,1.067,2.378,2.379,2.378c1.269,0,2.305-0.998,2.372-2.25c0.794-0.421,1.448-1.054,1.895-1.834   c1.222-0.098,2.187-1.122,2.187-2.369c0-1.248-0.966-2.272-2.188-2.37c-0.448-0.779-1.103-1.41-1.894-1.831   c-0.066-1.252-1.104-2.252-2.372-2.252c-1.312,0-2.379,1.067-2.379,2.379c0,0.013,0.002,0.025,0.002,0.038   c-0.664,0.415-1.216,0.985-1.607,1.661c-0.029-0.001-0.059-0.005-0.089-0.005c-1.312,0-2.379,1.067-2.379,2.379   C67.872,35.128,68.938,36.195,70.251,36.195z M74.324,38.898c-0.557,0-1.009-0.452-1.009-1.008c0-0.08,0.012-0.157,0.029-0.231   c0.001-0.003,0.002-0.006,0.003-0.009c0.108-0.44,0.504-0.769,0.977-0.769c0.497,0,0.909,0.363,0.991,0.838v0   c0.01,0.056,0.018,0.112,0.018,0.17C75.333,38.446,74.88,38.898,74.324,38.898z M79.406,33.816c0,0.556-0.452,1.009-1.008,1.009   c-0.557,0-1.009-0.453-1.009-1.009s0.452-1.009,1.009-1.009C78.954,32.808,79.406,33.26,79.406,33.816z M74.324,28.734   c0.556,0,1.009,0.453,1.009,1.009c0,0.556-0.453,1.008-1.009,1.008c-0.474,0-0.869-0.329-0.977-0.769c0,0-0.001-0.001-0.001-0.001   c-0.019-0.077-0.031-0.156-0.031-0.238C73.315,29.187,73.768,28.734,74.324,28.734z M72.398,31.134   c0.433,0.597,1.134,0.988,1.926,0.988c0.85,0,1.595-0.45,2.016-1.122c0.316,0.213,0.597,0.479,0.827,0.785   c-0.688,0.417-1.148,1.171-1.148,2.032c0,0.862,0.464,1.617,1.152,2.034c-0.229,0.307-0.509,0.573-0.828,0.787   c-0.421-0.675-1.167-1.126-2.019-1.126c-0.793,0-1.494,0.392-1.927,0.989c-0.283-0.218-0.531-0.479-0.733-0.774   c0.584-0.434,0.966-1.127,0.966-1.91c0-0.783-0.382-1.476-0.966-1.91C71.866,31.612,72.114,31.352,72.398,31.134z M70.251,32.808   c0.556,0,1.008,0.453,1.008,1.009s-0.452,1.009-1.008,1.009c-0.557,0-1.009-0.453-1.009-1.009S69.694,32.808,70.251,32.808z"
       id="path11" /></g></svg>
