<?xml version="1.0" encoding="UTF-8" standalone="no"?>
<svg
   version="1.1"
   x="0px"
   y="0px"
   viewBox="0 0 100 125"
   enable-background="new 0 0 100 100"
   xml:space="preserve"
   id="svg8"
   sodipodi:docname="ryan-beck-dreamcast-controller.svg"
   inkscape:version="1.4.2 (f4327f4, 2025-05-13)"
   xmlns:inkscape="http://www.inkscape.org/namespaces/inkscape"
   xmlns:sodipodi="http://sodipodi.sourceforge.net/DTD/sodipodi-0.dtd"
   xmlns="http://www.w3.org/2000/svg"
   xmlns:svg="http://www.w3.org/2000/svg"><defs
     id="defs8" /><sodipodi:namedview
     id="namedview8"
     pagecolor="#505050"
     bordercolor="#eeeeee"
     borderopacity="1"
     inkscape:showpageshadow="0"
     inkscape:pageopacity="0"
     inkscape:pagecheckerboard="0"
     inkscape:deskcolor="#505050"
     inkscape:zoom="9.336"
     inkscape:cx="50.021422"
     inkscape:cy="62.5"
     inkscape:window-width="2560"
     inkscape:window-height="1369"
     inkscape:window-x="-8"
     inkscape:window-y="-8"
     inkscape:window-maximized="1"
     inkscape:current-layer="svg8" /><g
     id="g7"><path
       d="M87.495,40.544c-0.564-10.483-3.327-16.139-3.444-16.375c-0.165-0.331-0.454-0.582-0.804-0.698   c-3.317-1.106-8.621-2.048-10.346-2.339c-5.54-7.693-14.437-12.276-23.938-12.276c-9.494,0-18.39,4.581-23.938,12.27   c-1.769,0.289-7.283,1.236-10.614,2.346c-0.35,0.116-0.64,0.368-0.804,0.698c-0.118,0.236-2.88,5.892-3.444,16.375   c-0.515,9.568,0.796,25.193,9.965,45.296c0.029,0.064,0.063,0.125,0.102,0.185c0.369,0.562,1.628,2.276,3.271,2.276   c0.139,0,0.282-0.012,0.427-0.038c1.203-0.222,2.025-1.293,2.443-3.186c0.734-3.326,1.708-6.226,2.128-7.411   c1.861-0.679,8.594-2.802,19.979-2.802h0.7c11.389,0,18.124,2.124,19.979,2.801c0.421,1.187,1.396,4.086,2.129,7.412   c0.418,1.894,1.241,2.965,2.443,3.186c1.848,0.34,3.297-1.628,3.696-2.238c0.039-0.06,0.073-0.12,0.103-0.185   C86.699,65.737,88.01,50.112,87.495,40.544z M22.432,41.977c-3.639,0-6.597-2.958-6.597-6.597c0-3.636,2.958-6.597,6.597-6.597   c3.638,0,6.596,2.961,6.596,6.597C29.028,39.019,26.07,41.977,22.432,41.977z M36.58,14.865c3.793-1.996,8.06-3.059,12.384-3.059   c4.341,0,8.628,1.074,12.439,3.088v22.263c0,6.844-5.567,12.412-12.412,12.412c-3.317,0-6.435-1.292-8.777-3.638   c-2.343-2.344-3.634-5.459-3.634-8.774V14.865z M23.659,84.479c-0.103,0.469-0.212,0.755-0.293,0.923   c-0.229-0.179-0.538-0.509-0.759-0.822c-8.847-19.438-10.147-34.487-9.68-43.694c0.418-8.235,2.287-13.388,2.941-14.963   c2.671-0.812,6.563-1.535,8.667-1.897c-0.643,1.086-1.218,2.214-1.713,3.383c-0.005,0-0.009-0.001-0.015-0.001   c-0.125-0.007-0.25-0.01-0.375-0.01c-4.402,0-7.985,3.583-7.985,7.985c0,3.906,2.816,7.162,6.523,7.846   c0.351,2.08,0.93,4.111,1.739,6.062l0.108-0.045v0.354h-3.594c-0.385,0-0.694,0.309-0.694,0.694v3.955   c0,0.382,0.31,0.694,0.694,0.694h3.594v3.593c0,0.382,0.309,0.695,0.694,0.695h3.954c0.382,0,0.695-0.313,0.695-0.695v-0.75   c1.416,1.528,2.986,2.882,4.68,4.053c0.001,0.001,0.003,0.002,0.004,0.003c-4.576,6.119-6.793,14.244-6.887,14.596   c-0.01,0.036-0.002,0.071-0.007,0.107C25.547,77.66,24.475,80.78,23.659,84.479z M24.206,48.351v-1.656h2.565v3.597   c0,0.381,0.313,0.695,0.694,0.695h3.594v2.565h-3.594c-0.381,0-0.694,0.31-0.694,0.694v0.886v1.037v1.671h-2.565v-3.594   c0-0.385-0.312-0.694-0.694-0.694h-3.593v-2.565h3.593c0.382,0,0.694-0.313,0.694-0.695v-1.625V48.351z M49.179,72.086h-0.7   c-10.716,0-17.433,1.786-20.192,2.709c0.953-2.821,2.959-7.957,6.02-12.014c2.478,1.495,5.184,2.613,8.022,3.294   c-0.284,0.426-0.552,0.839-0.805,1.232c-0.257,0.406-0.139,0.94,0.264,1.201c0.146,0.09,0.309,0.136,0.468,0.136   c0.285,0,0.566-0.144,0.733-0.4c0.444-0.694,0.948-1.454,1.496-2.26c0.164-0.243,0.194-0.553,0.083-0.823   c-0.111-0.267-0.351-0.465-0.639-0.521c-6.201-1.181-11.797-4.555-15.769-9.509V54.94h3.593c0.382,0,0.694-0.312,0.694-0.694   v-3.955c0-0.385-0.312-0.694-0.694-0.694h-3.593V46c0-0.382-0.313-0.694-0.695-0.694h-3.954c-0.107,0-0.208,0.024-0.298,0.069   c-0.181-0.667-0.33-1.34-0.452-2.017c4.25-0.173,7.655-3.684,7.655-7.978c0-3.651-2.465-6.738-5.821-7.683   c2.152-4.866,5.734-8.994,10.248-11.822v21.282c0,3.778,1.471,7.33,4.142,10.001c2.67,2.674,6.224,4.147,10.005,4.147   c7.802,0,14.147-6.347,14.147-14.148V15.884c5.865,3.681,10.042,9.445,11.697,16.14c-0.002,0-0.003-0.001-0.004-0.001   c-0.159-0.021-0.322-0.035-0.489-0.035c-1.857,0-3.368,1.51-3.368,3.367c0,1.858,1.511,3.368,3.368,3.368   c0.451,0,0.882-0.09,1.278-0.253c-0.001,2.18-0.277,4.332-0.796,6.415c-0.155-0.02-0.317-0.034-0.482-0.034   c-1.857,0-3.368,1.51-3.368,3.367c0,1.167,0.602,2.198,1.508,2.803c-3.715,6.93-10.44,11.971-18.123,13.549   c-0.438,0.091-0.733,0.497-0.688,0.938c0.018,0.163,0.076,0.312,0.17,0.438c0.542,0.795,1.042,1.548,1.485,2.235   c0.163,0.261,0.445,0.399,0.729,0.399c0.163,0,0.322-0.041,0.469-0.136c0.403-0.261,0.521-0.794,0.265-1.2   c-0.261-0.4-0.535-0.823-0.827-1.261c2.599-0.666,5.079-1.7,7.368-3.056c2.978,4.003,4.944,9.019,5.895,11.816   C66.378,73.81,59.707,72.086,49.179,72.086z M74.343,50.194c-0.041,0-0.083,0-0.122-0.007c-0.308-0.018-0.597-0.104-0.85-0.25   c-0.602-0.34-1.008-0.983-1.008-1.719c0-1.094,0.89-1.979,1.979-1.979c1.091,0,1.979,0.885,1.979,1.979   C76.322,49.309,75.434,50.194,74.343,50.194z M74.343,37.335c-1.09,0-1.979-0.889-1.979-1.979c0-1.09,0.89-1.979,1.979-1.979   c1.091,0,1.979,0.889,1.979,1.979C76.322,36.446,75.434,37.335,74.343,37.335z M75.052,84.578c-0.223,0.315-0.53,0.645-0.76,0.823   c-0.08-0.169-0.189-0.454-0.293-0.923c-1.003-4.545-2.394-8.219-2.452-8.373c-0.028-0.074-0.084-0.132-0.125-0.199   c-0.564-1.919-2.723-8.619-6.62-13.907c0.003-0.001,0.006-0.002,0.008-0.004c3.892-2.625,7.138-6.2,9.339-10.419   c0.066,0.003,0.129,0.007,0.194,0.007c1.857,0,3.368-1.51,3.368-3.364c0-1.059-0.49-2.006-1.257-2.621   c-0.005-0.003-0.01-0.004-0.014-0.008c0.244-0.938,0.438-1.888,0.585-2.85c0.002,0.007,0.003,0.016,0.005,0.024   c0,0,0.003,0.003,0,0.007c0.428,1.375,1.704,2.381,3.222,2.381c1.857,0,3.368-1.51,3.368-3.368c0-1.854-1.511-3.368-3.368-3.368   c-1.268,0-2.364,0.705-2.947,1.736c0,0,0.003,0.003,0,0.007c-0.002,0.004-0.003,0.008-0.005,0.013   c0.033-0.568,0.057-1.139,0.057-1.711c0-0.487-0.013-0.98-0.039-1.509l-0.011,0c0,0,0.001-0.001,0.001-0.002   c0.257-0.476,0.403-1.021,0.403-1.597c0-0.864-0.331-1.659-0.871-2.256c0,0-0.002,0-0.002-0.001l0.011-0.002   c-0.618-3.235-1.789-6.286-3.419-9.052c2.056,0.367,5.747,1.079,8.36,1.877c0.654,1.578,2.523,6.73,2.941,14.964   C85.199,50.092,83.897,65.14,75.052,84.578z M78.273,41.786c0-1.09,0.889-1.979,1.979-1.979c1.094,0,1.979,0.889,1.979,1.979   c0,1.094-0.886,1.979-1.979,1.979C79.162,43.765,78.273,42.879,78.273,41.786z"
       id="path1" /><path
       d="M68.434,45.153c1.857,0,3.368-1.51,3.368-3.368c0-1.854-1.511-3.368-3.368-3.368c-1.856,0-3.367,1.514-3.367,3.368   C65.066,43.643,66.577,45.153,68.434,45.153z M68.434,39.807c1.09,0,1.979,0.889,1.979,1.979c0,1.094-0.889,1.979-1.979,1.979   s-1.979-0.885-1.979-1.979C66.455,40.695,67.344,39.807,68.434,39.807z"
       id="path2" /><path
       d="M49.863,61.412c-0.163-0.212-0.417-0.337-0.687-0.337c-0.268,0-0.521,0.125-0.685,0.337   c-0.166,0.211-4.027,5.218-4.982,7.572c-0.153,0.371-0.027,0.799,0.299,1.03c0.208,0.15,1.441,0.883,5.368,0.883   c3.929,0,5.158-0.732,5.368-0.883c0.325-0.231,0.451-0.659,0.302-1.03C53.891,66.63,50.026,61.623,49.863,61.412z M49.176,69.161   c-1.875,0-3.018-0.177-3.667-0.337c0.906-1.677,2.687-4.131,3.667-5.44c0.979,1.31,2.759,3.764,3.669,5.44   C52.196,68.984,51.051,69.161,49.176,69.161z"
       id="path3" /><path
       d="M22.432,29.912c-3.013,0-5.468,2.455-5.468,5.468c0,3.017,2.455,5.468,5.468,5.468S27.9,38.397,27.9,35.38   C27.9,32.367,25.445,29.912,22.432,29.912z M22.432,39.459c-2.25,0-4.08-1.83-4.08-4.079c0-2.247,1.83-4.08,4.08-4.08   c2.25,0,4.079,1.833,4.079,4.08C26.511,37.63,24.682,39.459,22.432,39.459z"
       id="path4" /><path
       d="M42.051,40.032h13.533c0.73,0,1.323-0.594,1.323-1.323V26.586c0-0.726-0.593-1.319-1.323-1.319H42.051   c-0.729,0-1.322,0.594-1.322,1.319v12.124C40.729,39.438,41.322,40.032,42.051,40.032z M42.118,26.655h13.401v11.988H42.118V26.655   z"
       id="path5" /><path
       d="M57.307,41.733c0.815,0,1.479-0.663,1.479-1.482V25.044c0-0.104-0.02-0.205-0.065-0.299   c-0.149-0.309-1.685-3.031-9.756-3.031c-7.729,0-9.891,2.798-9.978,2.917c-0.09,0.122-0.136,0.264-0.136,0.413v15.207   c0,0.819,0.663,1.482,1.479,1.482H57.307z M40.239,40.251V25.322c0.552-0.518,2.823-2.219,8.725-2.219   c6.294,0,8.089,1.729,8.433,2.149v14.999c0,0.052-0.037,0.093-0.09,0.093H40.329C40.277,40.345,40.239,40.303,40.239,40.251z"
       id="path6" /><path
       d="M44.367,20.67h8.902c1.027,0,1.106-0.604,1.106-0.792v-1.896c0-0.184-0.079-0.788-1.106-0.788h-0.695v-1.327   c0-0.93-0.371-1.805-1.045-2.458c-0.667-0.653-1.555-1.014-2.496-1.014c-1.955,0-3.544,1.559-3.544,3.472v1.327h-1.122   c-1.028,0-1.108,0.604-1.108,0.788v1.896C43.259,20.066,43.339,20.67,44.367,20.67z M44.648,18.583h1.535   c0.385,0,0.694-0.312,0.694-0.694v-2.021c0-1.149,0.965-2.083,2.156-2.083c0.577,0,1.122,0.218,1.527,0.618   c0.403,0.393,0.626,0.913,0.626,1.465v2.021c0,0.382,0.312,0.694,0.693,0.694h1.107v0.698h-8.339V18.583z"
       id="path7" /></g></svg>
