<?xml version="1.0" encoding="UTF-8" standalone="no"?>
<svg
   version="1.1"
   x="0px"
   y="0px"
   viewBox="0 0 100 125"
   enable-background="new 0 0 100 100"
   xml:space="preserve"
   id="svg13"
   sodipodi:docname="ryan-beck-nes-controller.svg"
   inkscape:version="1.4.2 (f4327f4, 2025-05-13)"
   xmlns:inkscape="http://www.inkscape.org/namespaces/inkscape"
   xmlns:sodipodi="http://sodipodi.sourceforge.net/DTD/sodipodi-0.dtd"
   xmlns="http://www.w3.org/2000/svg"
   xmlns:svg="http://www.w3.org/2000/svg"><defs
     id="defs13" /><sodipodi:namedview
     id="namedview13"
     pagecolor="#505050"
     bordercolor="#eeeeee"
     borderopacity="1"
     inkscape:showpageshadow="0"
     inkscape:pageopacity="0"
     inkscape:pagecheckerboard="0"
     inkscape:deskcolor="#505050"
     inkscape:zoom="9.336"
     inkscape:cx="50.021422"
     inkscape:cy="62.5"
     inkscape:window-width="2560"
     inkscape:window-height="1369"
     inkscape:window-x="-8"
     inkscape:window-y="-8"
     inkscape:window-maximized="1"
     inkscape:current-layer="svg13" /><g
     id="g12"><path
       d="M36.313,48.041h-4.636v-4.638c0-0.345-0.28-0.625-0.625-0.625h-4.853c-0.345,0-0.625,0.28-0.625,0.625v4.638h-4.637   c-0.345,0-0.625,0.279-0.625,0.625v4.853c0,0.346,0.28,0.625,0.625,0.625h4.637v4.637c0,0.346,0.28,0.625,0.625,0.625h4.853   c0.345,0,0.625-0.279,0.625-0.625v-4.637h4.636c0.345,0,0.625-0.279,0.625-0.625v-4.853C36.938,48.32,36.658,48.041,36.313,48.041z    M35.688,52.893h-4.637c-0.345,0-0.625,0.28-0.625,0.625v4.638h-3.604v-4.638c0-0.345-0.28-0.625-0.625-0.625h-4.637V49.29h4.637   c0.345,0,0.625-0.28,0.625-0.625v-4.638h3.604v4.638c0,0.345,0.28,0.625,0.625,0.625h4.637V52.893z"
       id="path1" /><path
       d="M86.547,33.077H14.534c-0.69,0-1.25,0.56-1.25,1.25v30.66c0,0.689,0.56,1.249,1.25,1.249h72.013   c0.689,0,1.249-0.56,1.249-1.249v-30.66C87.796,33.637,87.236,33.077,86.547,33.077z M85.297,63.736H15.784v-28.16h69.513V63.736z"
       id="path2" /><path
       d="M17.897,62.685h21.482h20.464h23.34c0.346,0,0.625-0.28,0.625-0.625V39.239c0-0.345-0.279-0.625-0.625-0.625H17.897   c-0.345,0-0.625,0.28-0.625,0.625V62.06C17.272,62.404,17.552,62.685,17.897,62.685z M40.004,61.436v-0.551h19.214v0.551H40.004z    M40.004,39.863h19.214v1.503H40.004V39.863z M18.522,39.863h20.233v2.128c0,0.345,0.28,0.625,0.625,0.625h20.464   c0.345,0,0.625-0.28,0.625-0.625v-2.128H82.56v21.572H60.469V60.26c0-0.344-0.28-0.624-0.625-0.624H39.379   c-0.345,0-0.625,0.28-0.625,0.624v1.176H18.522V39.863z"
       id="path3" /><path
       d="M39.379,47.23h20.464c0.345,0,0.625-0.28,0.625-0.625v-2.753c0-0.345-0.28-0.625-0.625-0.625H39.379   c-0.345,0-0.625,0.28-0.625,0.625v2.753C38.755,46.95,39.035,47.23,39.379,47.23z M40.004,44.477h19.214v1.503H40.004V44.477z"
       id="path4" /><path
       d="M39.379,51.844h20.464c0.345,0,0.625-0.279,0.625-0.625v-2.752c0-0.345-0.28-0.625-0.625-0.625H39.379   c-0.345,0-0.625,0.28-0.625,0.625v2.752C38.755,51.564,39.035,51.844,39.379,51.844z M40.004,49.091h19.214v1.503H40.004V49.091z"
       id="path5" /><path
       d="M39.379,59.137h20.464c0.345,0,0.625-0.279,0.625-0.625v-5.357c0-0.346-0.28-0.625-0.625-0.625H39.379   c-0.345,0-0.625,0.279-0.625,0.625v5.357C38.755,58.857,39.035,59.137,39.379,59.137z M40.004,53.779h19.214v4.107H40.004V53.779z"
       id="path6" /><path
       d="M46.685,54.191h-3.573c-0.864,0-1.567,0.703-1.567,1.567s0.703,1.567,1.567,1.567h3.573c0.864,0,1.567-0.703,1.567-1.567   S47.549,54.191,46.685,54.191z M46.685,56.076h-3.573c-0.175,0-0.317-0.143-0.317-0.317s0.143-0.317,0.317-0.317h3.573   c0.175,0,0.317,0.143,0.317,0.317S46.86,56.076,46.685,56.076z"
       id="path7" /><path
       d="M56.11,54.191h-3.572c-0.864,0-1.567,0.703-1.567,1.567s0.703,1.567,1.567,1.567h3.572c0.864,0,1.567-0.703,1.567-1.567   S56.975,54.191,56.11,54.191z M56.11,56.076h-3.572c-0.175,0-0.318-0.143-0.318-0.317s0.144-0.317,0.318-0.317h3.572   c0.176,0,0.318,0.143,0.318,0.317S56.286,56.076,56.11,56.076z"
       id="path8" /><path
       d="M62.799,58.865h7.591c0.346,0,0.625-0.279,0.625-0.625v-7.591c0-0.345-0.279-0.625-0.625-0.625h-7.591   c-0.345,0-0.625,0.28-0.625,0.625v7.591C62.174,58.586,62.454,58.865,62.799,58.865z M63.424,51.273h6.342v6.342h-6.342V51.273z"
       id="path9" /><path
       d="M72.473,58.865h7.591c0.345,0,0.624-0.279,0.624-0.625v-7.591c0-0.345-0.279-0.625-0.624-0.625h-7.591   c-0.346,0-0.625,0.28-0.625,0.625v7.591C71.848,58.586,72.127,58.865,72.473,58.865z M73.098,51.273h6.341v6.342h-6.341V51.273z"
       id="path10" /><path
       d="M66.595,51.499c-1.624,0-2.946,1.321-2.946,2.945s1.322,2.946,2.946,2.946s2.945-1.322,2.945-2.946   S68.219,51.499,66.595,51.499z M66.595,56.141c-0.936,0-1.696-0.76-1.696-1.696c0-0.935,0.761-1.696,1.696-1.696   c0.935,0,1.696,0.762,1.696,1.696C68.291,55.381,67.529,56.141,66.595,56.141z"
       id="path11" /><path
       d="M76.269,51.499c-1.625,0-2.946,1.321-2.946,2.945s1.321,2.946,2.946,2.946c1.624,0,2.945-1.322,2.945-2.946   S77.893,51.499,76.269,51.499z M76.269,56.141c-0.936,0-1.697-0.76-1.697-1.696c0-0.935,0.762-1.696,1.697-1.696   c0.935,0,1.695,0.762,1.695,1.696C77.964,55.381,77.203,56.141,76.269,56.141z"
       id="path12" /></g></svg>
