<?xml version="1.0" encoding="UTF-8" standalone="no"?>
<svg
   version="1.1"
   x="0px"
   y="0px"
   viewBox="0 0 100 125"
   enable-background="new 0 0 100 100"
   xml:space="preserve"
   id="svg10"
   sodipodi:docname="ryan-beck-wii-controller.svg"
   inkscape:version="1.4.2 (f4327f4, 2025-05-13)"
   xmlns:inkscape="http://www.inkscape.org/namespaces/inkscape"
   xmlns:sodipodi="http://sodipodi.sourceforge.net/DTD/sodipodi-0.dtd"
   xmlns="http://www.w3.org/2000/svg"
   xmlns:svg="http://www.w3.org/2000/svg"><defs
     id="defs10" /><sodipodi:namedview
     id="namedview10"
     pagecolor="#505050"
     bordercolor="#eeeeee"
     borderopacity="1"
     inkscape:showpageshadow="0"
     inkscape:pageopacity="0"
     inkscape:pagecheckerboard="0"
     inkscape:deskcolor="#505050"
     inkscape:zoom="9.336"
     inkscape:cx="50.021422"
     inkscape:cy="62.5"
     inkscape:window-width="2560"
     inkscape:window-height="1369"
     inkscape:window-x="-8"
     inkscape:window-y="-8"
     inkscape:window-maximized="1"
     inkscape:current-layer="svg10" /><g
     id="g9"><path
       d="M63.173,21.985h-1.627c-0.321,0-0.582,0.261-0.582,0.582v2.037c0,0.322,0.261,0.582,0.582,0.582h1.627v1.626   c0,0.322,0.26,0.582,0.582,0.582h2.037c0.32,0,0.582-0.26,0.582-0.582v-1.626H68c0.321,0,0.581-0.26,0.581-0.582v-2.037   c0-0.321-0.26-0.582-0.581-0.582h-1.626v-1.627c0-0.321-0.262-0.582-0.582-0.582h-2.037c-0.322,0-0.582,0.261-0.582,0.582V21.985z    M63.755,23.149c0.321,0,0.581-0.261,0.581-0.582V20.94h0.874v1.627c0,0.321,0.261,0.582,0.582,0.582h1.626v0.873h-1.626   c-0.321,0-0.582,0.261-0.582,0.582v1.627h-0.874v-1.627c0-0.321-0.26-0.582-0.581-0.582h-1.627v-0.873H63.755z"
       id="path1" /><path
       d="M61.663,16.945c0.915,0,1.658-0.744,1.658-1.658s-0.743-1.659-1.658-1.659c-0.914,0-1.658,0.744-1.658,1.659   S60.749,16.945,61.663,16.945z M61.663,14.792c0.272,0,0.494,0.222,0.494,0.495c0,0.272-0.222,0.495-0.494,0.495   s-0.494-0.222-0.494-0.495C61.169,15.014,61.391,14.792,61.663,14.792z"
       id="path2" /><path
       d="M64.773,45.378c-0.915,0-1.658,0.744-1.658,1.658c0,0.915,0.743,1.659,1.658,1.659c0.914,0,1.658-0.744,1.658-1.659   C66.432,46.123,65.688,45.378,64.773,45.378z M64.773,47.531c-0.272,0-0.494-0.222-0.494-0.495c0-0.272,0.222-0.495,0.494-0.495   s0.494,0.222,0.494,0.495C65.268,47.31,65.046,47.531,64.773,47.531z"
       id="path3" /><path
       d="M64.773,49.26c-0.915,0-1.658,0.744-1.658,1.658s0.743,1.658,1.658,1.658c0.914,0,1.658-0.744,1.658-1.658   S65.688,49.26,64.773,49.26z M64.773,51.414c-0.272,0-0.494-0.223-0.494-0.496s0.222-0.494,0.494-0.494s0.494,0.221,0.494,0.494   S65.046,51.414,64.773,51.414z"
       id="path4" /><circle
       cx="61.535"
       cy="34.68"
       r="1.076"
       id="circle4" /><circle
       cx="64.555"
       cy="34.68"
       r="1.076"
       id="circle5" /><circle
       cx="67.574"
       cy="34.68"
       r="1.076"
       id="circle6" /><path
       d="M68.674,10.172h-8.239c-1.777,0-3.224,1.307-3.224,2.914v45.341c0,1.607,1.446,2.914,3.224,2.914h0.255v4.016   c0,1.098,0.926,1.994,2.064,1.994h0.37c-0.356,1.494-0.985,2.996-1.928,4.416c-5.628-3.562-14.596-5.172-24.308-1.281   c-1.084,0.434-2.049,0.877-2.893,1.324c-0.3-1.967-0.291-3.867-0.168-5.445c0.196-2.539,0.703-4.66,1.007-5.758   c0.199-0.025,0.406-0.07,0.625-0.137c0.356-0.109,0.639-0.381,0.759-0.734l1.26-3.666c1.652-0.984,4.3-4.158,5.209-14.353   c0.471-5.271,0.071-10.021-1.181-14.128c0.313-0.382,0.479-0.905,0.462-1.495c-0.02-0.702-0.286-1.451-0.75-2.112   c-0.571-0.812-1.356-1.364-2.138-1.538l0.096-0.062c-0.248-0.383-0.432-0.622-0.518-0.728c-0.33-0.475-2.597-3.579-5.704-3.485   c-1.067,0.032-2.074,0.429-3.013,1.178c-0.477-0.115-1.43-0.258-2.223,0.15c-0.494,0.254-0.846,0.688-1.018,1.255   c-0.183,0.602-0.167,1.073,0.04,1.41c-0.639,0.185-1.306,0.674-1.642,1.754c-0.322,1.029-0.691,1.251-0.913,1.384   c-0.156,0.093-0.48,0.288-0.48,0.704c0,0.211,0.091,0.408,0.271,0.587c0.282,0.279,0.841,0.549,1.355,0.688   c-0.116,0.331-0.2,0.612-0.233,0.812c-0.254,1.522,1.454,3.119,2.2,3.735c0.039,0.033,0.01,0.016,0.054,0.042   c0.033,0.025,3.215,2.609,0.919,11.948c-0.772,3.369-0.771,9.973,4.28,12.256l-0.604,2.436c-0.069,0.283-0.032,0.58,0.106,0.836   c0.105,0.193,0.285,0.426,0.535,0.641c-0.605,2.148-1.852,7.629-0.733,13.174c-1.803,1.377-2.549,2.814-2.223,4.303   c0.466,2.125,3.136,3.523,6.59,4.236c3.542,3.607,8.945,5.557,16.108,5.801c0.434,0.016,0.898,0.025,1.387,0.025   c4.515,0,11.023-0.783,12.926-5.049c1.119-2.51,0.275-5.49-2.314-8.182c-0.369-0.385-0.771-0.76-1.204-1.121   c1.176-1.742,1.975-3.697,2.384-5.82h0.848c1.138,0,2.064-0.896,2.064-1.994v-4.016h0.254c1.777,0,3.224-1.307,3.224-2.914V13.086   C71.897,11.479,70.451,10.172,68.674,10.172z M34.84,56.51h0.026l-0.093,0.271L34.84,56.51z M35.175,24.767   c0.459-0.104,1.055,0.061,1.625,0.451c0.119,0.484,0.339,0.969,0.651,1.413c0.31,0.441,0.685,0.802,1.087,1.072   c0.151,0.59,0.128,1.133-0.056,1.521l-1.326-0.424l-1.502-1.628l-0.504-2.37L35.175,24.767z M40.267,24.652   c0.329,0.468,0.525,1.006,0.539,1.475c0.006,0.224-0.026,0.63-0.311,0.829c-0.107,0.076-0.241,0.114-0.397,0.114   c-0.455,0-1.155-0.343-1.694-1.109c-0.33-0.468-0.526-1.005-0.54-1.474c-0.006-0.224,0.025-0.63,0.31-0.83   c0.107-0.075,0.242-0.113,0.398-0.113C39.027,23.544,39.728,23.886,40.267,24.652z M33.019,20.495   c1.655-0.042,3.261,1.79,3.739,2.503c0.024,0.036,0.054,0.075,0.082,0.108c0.001,0.001,0.053,0.064,0.143,0.188   c-0.023,0.041-0.045,0.083-0.065,0.125l-1.051-0.673c-0.261-0.167-0.608-0.101-0.788,0.152l-1.024,1.438   c-0.095,0.133-0.129,0.299-0.095,0.458l0.59,2.776c0.022,0.102,0.071,0.197,0.142,0.273l1.714,1.858   c0.068,0.074,0.154,0.129,0.25,0.16l2.261,0.724c0.059,0.019,0.119,0.028,0.177,0.028c0.192,0,0.377-0.095,0.486-0.263l0.182-0.276   c0.777,3.395,0.983,7.229,0.607,11.437c-0.988,11.097-3.964,12.532-4.345,12.671H35.49c-0.219-1.854-0.043-4.499-0.043-4.506   c0.014-0.119,0.345-2.963,0.228-6.662c-0.159-5.002-1.034-8.962-2.603-11.771c-2.402-4.303-2.704-7.493-2.656-9.077   C31.265,21.085,32.138,20.524,33.019,20.495z M27.815,21.091c0.082-0.269,0.22-0.445,0.436-0.557   c0.18-0.094,0.397-0.131,0.616-0.139c-0.267,0.31-0.527,0.65-0.781,1.024l-0.005-0.014c-0.107,0.046-0.249,0.081-0.345,0.089   C27.738,21.42,27.754,21.293,27.815,21.091z M25.756,26.189c-0.174-0.035-0.375-0.105-0.556-0.186   c0.32-0.281,0.709-0.779,1.009-1.741c0.198-0.634,0.544-0.887,0.851-0.98C26.67,24.107,26.161,25.212,25.756,26.189z    M30.333,48.893c-0.284-2.348,0.202-4.537,0.202-4.539c2.595-10.553-1.127-13.857-1.78-14.344c-0.628-0.527-1.26-1.275-1.35-1.592   c0.133-0.572,1.036-2.625,1.919-4.477c0.213,1.899,0.895,4.579,2.732,7.868c3.535,6.331,2.249,17.615,2.233,17.757   c-0.009,0.132-0.177,2.652,0.033,4.615h-0.216C31.941,53.48,30.672,51.703,30.333,48.893z M31.905,76.961   c-0.02-0.092-0.076-0.561,0.625-1.307c0.342,0.99,0.775,1.965,1.318,2.908C32.703,78.061,32.021,77.488,31.905,76.961z    M36.449,78.326c-0.897-1.301-1.518-2.717-1.936-4.148c0.809-0.467,1.863-0.979,3.24-1.531c5.003-2.002,10.2-2.574,15.031-1.652   c2.567,0.492,4.968,1.404,6.957,2.617c-3.08,3.32-8.228,5.877-16.039,6.275c-2.395,0.119-4.521-0.023-6.286-0.324   C37.07,79.172,36.747,78.76,36.449,78.326z M64.517,81.527c-1.134,2.541-5.551,3.869-12.106,3.646   c-4.85-0.166-8.785-1.156-11.767-2.951c1.052,0.047,2.122,0.041,3.177-0.012c5.228-0.268,10.154-1.67,13.871-3.947   c1.541-0.943,2.875-2.037,3.992-3.262c0.345,0.289,0.667,0.594,0.968,0.902C64.55,77.881,65.229,79.928,64.517,81.527z    M66.092,65.023h-3.074v-3.436h3.074V65.023z M69.57,58.428c0,0.277-0.384,0.588-0.896,0.588h-8.239   c-0.513,0-0.896-0.311-0.896-0.588V13.086c0-0.277,0.383-0.586,0.896-0.586h8.239c0.513,0,0.896,0.31,0.896,0.586V58.428z"
       id="path6" /><rect
       x="61.529"
       y="56.871"
       width="0.965"
       height="0.965"
       id="rect6" /><rect
       x="63.37"
       y="56.871"
       width="0.965"
       height="0.965"
       id="rect7" /><rect
       x="65.211"
       y="56.871"
       width="0.966"
       height="0.965"
       id="rect8" /><rect
       x="67.052"
       y="56.871"
       width="0.965"
       height="0.965"
       id="rect9" /></g></svg>
