<?xml version="1.0" encoding="UTF-8" standalone="no"?>
<!-- Created with Inkscape (http://www.inkscape.org/) -->

<svg
   version="1.1"
   id="svg1"
   width="1066.6667"
   height="448"
   viewBox="0 0 1066.6667 448"
   sodipodi:docname="KBLogo.svg"
   xml:space="preserve"
   inkscape:version="1.4.2 (f4327f4, 2025-05-13)"
   xmlns:inkscape="http://www.inkscape.org/namespaces/inkscape"
   xmlns:sodipodi="http://sodipodi.sourceforge.net/DTD/sodipodi-0.dtd"
   xmlns:xlink="http://www.w3.org/1999/xlink"
   xmlns="http://www.w3.org/2000/svg"
   xmlns:svg="http://www.w3.org/2000/svg"><defs
     id="defs1"><linearGradient
       id="swatch13"
       inkscape:swatch="solid"><stop
         style="stop-color:#000000;stop-opacity:1;"
         offset="0"
         id="stop13" /></linearGradient><linearGradient
       id="linearGradient1"
       inkscape:collect="always"><stop
         style="stop-color:#ffffff;stop-opacity:1;"
         offset="0"
         id="stop1" /><stop
         style="stop-color:#767676;stop-opacity:0;"
         offset="1"
         id="stop2" /></linearGradient><linearGradient
       id="linearGradient315"
       inkscape:collect="always"><stop
         style="stop-color:#ffee00;stop-opacity:1;"
         offset="0"
         id="stop315" /><stop
         style="stop-color:#fcc900;stop-opacity:1;"
         offset="1"
         id="stop316" /></linearGradient><linearGradient
       id="linearGradient299"><stop
         style="stop-color:#fff2b6;stop-opacity:1;"
         offset="0"
         id="stop301" /><stop
         style="stop-color:#e75900;stop-opacity:1;"
         offset="1"
         id="stop302" /></linearGradient><linearGradient
       id="linearGradient299-1"><stop
         style="stop-color:#fff2b6;stop-opacity:1;"
         offset="0"
         id="stop299" /><stop
         style="stop-color:#e75900;stop-opacity:1;"
         offset="1"
         id="stop300" /></linearGradient><radialGradient
       inkscape:collect="always"
       xlink:href="#linearGradient299-1"
       id="radialGradient300"
       cx="336.0752"
       cy="96.901405"
       fx="336.0752"
       fy="96.901405"
       r="83.397842"
       gradientTransform="matrix(-1.3543333,0.79234567,-1.9894966,-3.4005883,1184.1231,116.81403)"
       gradientUnits="userSpaceOnUse"
       spreadMethod="pad" /><radialGradient
       inkscape:collect="always"
       xlink:href="#linearGradient299"
       id="radialGradient304"
       cx="123.25571"
       cy="59.551937"
       fx="123.25571"
       fy="59.551937"
       r="128.73251"
       gradientTransform="matrix(-1.1609055,1.2896562,-1.1742274,-1.0570004,637.03193,-84.130671)"
       gradientUnits="userSpaceOnUse" /><linearGradient
       inkscape:collect="always"
       xlink:href="#linearGradient315"
       id="linearGradient316"
       x1="145.40128"
       y1="86.560989"
       x2="113.96038"
       y2="370.02811"
       gradientUnits="userSpaceOnUse"
       gradientTransform="translate(260.36517,9.3656534)" /><linearGradient
       inkscape:collect="always"
       xlink:href="#linearGradient315"
       id="linearGradient321"
       x1="317.33499"
       y1="133.6149"
       x2="264.4086"
       y2="325.92297"
       gradientUnits="userSpaceOnUse"
       gradientTransform="translate(260.36517,9.3656534)" /><linearGradient
       inkscape:collect="always"
       xlink:href="#linearGradient1"
       id="linearGradient2"
       x1="166.21884"
       y1="263.16571"
       x2="173.89494"
       y2="498.04208"
       gradientUnits="userSpaceOnUse"
       gradientTransform="translate(260.36517,9.3656534)" /><meshgradient
       inkscape:collect="always"
       id="meshgradient131"
       gradientUnits="userSpaceOnUse"
       x="-29.496262"
       y="45.166775"
       gradientTransform="translate(260.36517,9.3656534)"><meshrow
         id="meshrow15"><meshpatch
           id="meshpatch15"><stop
             path="c 220.505,-59.8146  290.502,0  435.754,0"
             style="stop-color:#ffffff;stop-opacity:1"
             id="stop16" /><stop
             path="c 0,108.122  0,216.244  0,324.366"
             style="stop-color:#cccccc;stop-opacity:1"
             id="stop17" /><stop
             path="c -145.251,0  -290.502,0  -435.754,0"
             style="stop-color:#ffffff;stop-opacity:1"
             id="stop18" /><stop
             path="c 0,-108.122  0,-216.244  0,-324.366"
             style="stop-color:#cccccc;stop-opacity:1"
             id="stop19" /></meshpatch></meshrow></meshgradient><meshgradient
       inkscape:collect="always"
       id="meshgradient10"
       gradientUnits="userSpaceOnUse"
       x="10.503739"
       y="85.156799"
       gradientTransform="translate(260.36517,9.3656534)"><meshrow
         id="meshrow10"><meshpatch
           id="meshpatch10"><stop
             path="c 118.547,0  237.093,0  355.64,0"
             style="stop-color:#ffffff;stop-opacity:1"
             id="stop11" /><stop
             path="c 0,81.4612  0,162.922  0,244.384"
             style="stop-color:#000000;stop-opacity:1"
             id="stop12" /><stop
             path="c -118.547,0  -237.093,0  -355.64,0"
             style="stop-color:#ffffff;stop-opacity:1"
             id="stop14" /><stop
             path="c 0,-81.4612  0,-162.922  0,-244.384"
             style="stop-color:#000000;stop-opacity:1"
             id="stop15" /></meshpatch></meshrow></meshgradient></defs><sodipodi:namedview
     id="namedview1"
     pagecolor="#505050"
     bordercolor="#eeeeee"
     borderopacity="1"
     inkscape:showpageshadow="0"
     inkscape:pageopacity="0"
     inkscape:pagecheckerboard="0"
     inkscape:deskcolor="#505050"
     inkscape:zoom="1.6015967"
     inkscape:cx="487.32617"
     inkscape:cy="168.26957"
     inkscape:window-width="2560"
     inkscape:window-height="1369"
     inkscape:window-x="-8"
     inkscape:window-y="-8"
     inkscape:window-maximized="1"
     inkscape:current-layer="g1" /><g
     inkscape:groupmode="layer"
     inkscape:label="KyleeBenistyLogo"
     id="g1"><path
       id="path2"
       style="opacity:1;mix-blend-mode:normal;fill:url(#meshgradient10);fill-opacity:1;stroke:url(#meshgradient131);stroke-width:80;stroke-dasharray:none;stroke-opacity:1"
       d="m 502.40797,94.539887 c -19.07909,0.697629 -42.75172,22.246533 -81.32031,49.925783 -27.02494,19.39479 -44.21875,33.20021 -44.21875,32.5293 0,-0.67091 2.475,-10.78401 5.5,-22.47461 7.54165,-29.14593 7.37042,-34.04478 -1.46484,-41.60743 -16.1074,-13.787324 -50.45297,-1.95158 -63.19923,21.7793 -3.03752,5.65524 -46.83594,177.59236 -46.83594,183.86133 0,9.04964 9.30537,20.11781 19.5254,20.32617 39.4099,0.80349 50.72633,-16.68926 58.98632,-53.77148 4.33311,-19.45296 5.0207,-28.42629 14.85352,-29.73828 9.83282,-1.312 15.37231,8.22873 34.48243,30.08789 30.39047,34.76222 25.67413,31.96205 44.10546,33.80273 7.81222,0.78017 16.54392,-2.19515 23.09571,-7.31445 1.89895,1.8833 4.31949,3.13127 7.13281,3.69726 12.43361,3.77882 22.42715,-4.80512 31.91211,-9.82617 10.37473,3.67042 18.54638,3.73933 32.60352,2.3125 17.13502,-2.52637 32.4067,-8.31182 47.43359,-20.62304 15.02687,-12.31122 29.0388,-29.57178 37.04297,-53.20899 6.52582,-19.2715 7.22302,-42.43716 -6.97461,-58.26758 -12.26975,-15.10607 -29.50081,-16.79893 -41.98242,-16.70703 -12.48162,0.0919 -28.36402,7.53691 -30.25391,7.39649 1.21999,-8.4646 4.60779,-19.63661 6.84961,-27.90821 3.31891,-8.87549 3.27593,-21.28002 -6.45898,-26.01367 -3.24034,-1.22408 -6.56093,-1.76719 -9.84961,-1.73047 -2.1264,0.0237 -4.24134,0.29033 -6.3125,0.77148 -0.77845,-3.99573 -3.17354,-7.43111 -6.72266,-10.49999 -5.72038,-4.946358 -11.56999,-7.031376 -17.92969,-6.798833 z m -17.23633,68.390623 c 4.20559,-3.04433 -37.12209,26.87182 0,0 z"
       sodipodi:nodetypes="ssssssssssssccccsscscccscssss" /><path
       id="path321"
       style="mix-blend-mode:hard-light;fill:none;fill-opacity:1;stroke:url(#linearGradient2);stroke-width:60;stroke-dasharray:none;stroke-opacity:1"
       d="m 502.40797,94.539887 c -19.07909,0.697629 -42.75172,22.246533 -81.32031,49.925783 -27.02494,19.39479 -44.21875,33.20021 -44.21875,32.5293 0,-0.67091 2.475,-10.78401 5.5,-22.47461 7.54165,-29.14593 7.37042,-34.04478 -1.46484,-41.60743 -16.1074,-13.787324 -50.45297,-1.95158 -63.19923,21.7793 -3.03752,5.65524 -46.83594,177.59236 -46.83594,183.86133 0,9.04964 9.30537,20.11781 19.5254,20.32617 39.4099,0.80349 50.72633,-16.68926 58.98632,-53.77148 4.33311,-19.45296 5.0207,-28.42629 14.85352,-29.73828 9.83282,-1.312 15.37231,8.22873 34.48243,30.08789 30.39047,34.76222 25.67413,31.96205 44.10546,33.80273 7.81222,0.78017 16.54392,-2.19515 23.09571,-7.31445 1.89895,1.8833 4.31949,3.13127 7.13281,3.69726 12.43361,3.77882 22.42715,-4.80512 31.91211,-9.82617 10.37473,3.67042 18.54638,3.73933 32.60352,2.3125 17.13502,-2.52637 32.4067,-8.31182 47.43359,-20.62304 15.02687,-12.31122 29.0388,-29.57178 37.04297,-53.20899 6.52582,-19.2715 7.22302,-42.43716 -6.97461,-58.26758 -12.26975,-15.10607 -29.50081,-16.79893 -41.98242,-16.70703 -12.48162,0.0919 -28.36402,7.53691 -30.25391,7.39649 1.21999,-8.4646 4.60779,-19.63661 6.84961,-27.90821 3.31891,-8.87549 3.27593,-21.28002 -6.45898,-26.01367 -3.24034,-1.22408 -6.56093,-1.76719 -9.84961,-1.73047 -2.1264,0.0237 -4.24134,0.29033 -6.3125,0.77148 -0.77845,-3.99573 -3.17354,-7.43111 -6.72266,-10.49999 -5.72038,-4.946358 -11.56999,-7.031376 -17.92969,-6.798833 z m -17.23633,68.390623 c 4.20559,-3.04433 -37.12209,26.87182 0,0 z"
       sodipodi:nodetypes="ssssssssssssccccsscscccscssss" /><path
       id="path310-3"
       style="fill:#191877;fill-opacity:1;stroke:#191877;stroke-width:30;stroke-dasharray:none;stroke-opacity:1"
       d="m 502.40797,94.539887 c -19.07909,0.697629 -42.75172,22.246533 -81.32031,49.925783 -27.02494,19.39479 -44.21875,33.20021 -44.21875,32.5293 0,-0.67091 2.475,-10.78401 5.5,-22.47461 7.54165,-29.14593 7.37042,-34.04478 -1.46484,-41.60743 -16.1074,-13.787324 -50.45297,-1.95158 -63.19923,21.7793 -3.03752,5.65524 -46.83594,177.59236 -46.83594,183.86133 0,9.04964 9.30537,20.11781 19.5254,20.32617 39.4099,0.80349 50.72633,-16.68926 58.98632,-53.77148 4.33311,-19.45296 5.0207,-28.42629 14.85352,-29.73828 9.83282,-1.312 15.37231,8.22873 34.48243,30.08789 30.39047,34.76222 25.67413,31.96205 44.10546,33.80273 7.81222,0.78017 16.54392,-2.19515 23.09571,-7.31445 1.89895,1.8833 4.31949,3.13127 7.13281,3.69726 12.43361,3.77882 22.42715,-4.80512 31.91211,-9.82617 10.37473,3.67042 18.54638,3.73933 32.60352,2.3125 17.13502,-2.52637 32.4067,-8.31182 47.43359,-20.62304 15.02687,-12.31122 29.0388,-29.57178 37.04297,-53.20899 6.52582,-19.2715 7.22302,-42.43716 -6.97461,-58.26758 -12.26975,-15.10607 -29.50081,-16.79893 -41.98242,-16.70703 -12.48162,0.0919 -28.36402,7.53691 -30.25391,7.39649 1.21999,-8.4646 4.60779,-19.63661 6.84961,-27.90821 3.31891,-8.87549 3.27593,-21.28002 -6.45898,-26.01367 -3.24034,-1.22408 -6.56093,-1.76719 -9.84961,-1.73047 -2.1264,0.0237 -4.24134,0.29033 -6.3125,0.77148 -0.77845,-3.99573 -3.17354,-7.43111 -6.72266,-10.49999 -5.72038,-4.946358 -11.56999,-7.031376 -17.92969,-6.798833 z m -17.23633,68.390623 c 4.20559,-3.04433 -37.12209,26.87182 0,0 z"
       sodipodi:nodetypes="ssssssssssssccccsscscccscssss" /><path
       d="m 502.44134,94.881278 c -19.07909,0.697629 -42.75172,22.246532 -81.32031,49.925782 -27.02494,19.39479 -44.21875,33.2002 -44.21875,32.52929 0,-0.67091 2.475,-10.78401 5.5,-22.47461 7.54165,-29.14593 7.37042,-34.04477 -1.46484,-41.60742 -16.1074,-13.787325 -50.45297,-1.95158 -63.19923,21.7793 -3.03752,5.65524 -46.83594,177.59236 -46.83594,183.86133 0,9.04964 9.30537,20.11781 19.5254,20.32617 39.4099,0.80349 50.72633,-16.68927 58.98632,-53.77149 4.33311,-19.45296 5.0207,-28.42629 14.85352,-29.73828 9.83282,-1.312 15.37231,8.22873 34.48243,30.08789 30.39047,34.76222 25.67412,31.96206 44.10546,33.80274 7.81222,0.78017 16.54392,-2.19516 23.09571,-7.31446 18.02729,-5.66233 13.00477,-11.37428 15.9185,-22.12007 2.26526,-8.35427 0.75121,-20.23254 -12.33647,-26.24321 -25.17806,-29.00622 -45.67578,-53.3457 -45.67578,-53.3457 4.50378,-4.43307 24.22556,-20.43482 61.34765,-47.30664 4.20559,-3.04433 8.05014,-5.95209 11.55274,-8.73242 10.25057,-1.41934 17.35663,-7.84752 22.01966,-11.98279 6.16899,-5.47078 11.1795,-11.08707 8.31628,-30.37659 -0.77845,-3.99573 -3.17354,-7.43111 -6.72266,-10.49999 -5.72038,-4.946357 -11.56999,-7.031375 -17.92969,-6.798832 z"
       style="fill:url(#linearGradient316);stroke:url(#radialGradient304);stroke-width:2.5"
       id="path310"
       sodipodi:nodetypes="sssssssssssscsccscscss" /><path
       d="m 527.09369,112.1801 c 1.90983,9.80309 -5.91607,22.97511 -30.33594,42.35938 -8.97452,36.2847 -17.88091,73.40562 -27.22461,109.38476 1.34315,1.54737 2.70098,3.10876 4.06836,4.67969 4.81388,5.5305 5.65912,26.18217 -0.89258,36.39844 -1.74146,2.71551 -4.06574,5.18168 -6.75781,7.28515 1.89895,1.8833 4.31949,3.13128 7.13281,3.69727 12.43361,3.77882 22.42715,-4.80512 31.91211,-9.82617 10.37473,3.67042 18.54637,3.73933 32.60351,2.3125 17.13502,-2.52637 32.40671,-8.31183 47.4336,-20.62305 15.02687,-12.31122 29.0388,-29.57177 37.04297,-53.20898 6.52582,-19.2715 7.22302,-42.43716 -6.97461,-58.26758 -12.26975,-15.10607 -29.50081,-16.79893 -41.98242,-16.70703 -12.48162,0.0919 -28.36402,7.5369 -30.25391,7.39648 1.21999,-8.4646 4.60779,-19.6366 6.84961,-27.9082 3.31891,-8.87549 3.27592,-21.28002 -6.45899,-26.01367 -3.24034,-1.22408 -6.56092,-1.76719 -9.8496,-1.73047 -2.1264,0.0237 -4.24134,0.29033 -6.3125,0.77148 z m 23.70117,91.875 c 0.81117,-0.14023 5.14391,2.90648 9.18945,8.81055 2.08183,3.03823 2.48127,3.17303 11.1875,3.79102 6.46697,0.45904 9.86628,2.21908 10.39168,2.87841 0.52541,0.65933 -1.2271,5.13892 -5.05379,11.08643 -4.35561,6.76957 -4.35612,6.76853 -2.98828,13.41992 1.38965,6.75746 0.73092,11.46875 0.10674,12.01257 -0.62418,0.54382 -5.12149,1.30066 -11.48565,0.21204 -7.17333,-1.22704 -7.17312,-1.22785 -14.5957,3.39844 -7.77872,4.84827 -11.26577,4.63002 -11.7582,4.13758 -0.49244,-0.49244 -0.99571,-6.06448 -0.99571,-10.20789 0,-7.53348 -10e-4,-7.53372 -7.18554,-14.34375 -3.86751,-3.66592 -6.02345,-7.23243 -6.00567,-7.37545 0,0 2.9653,-3.51262 9.56817,-6.70659 7.8768,-3.8102 7.8768,-3.80909 12,-12.05664 3.00311,-6.00705 6.81383,-8.91641 7.625,-9.05664 z"
       style="display:inline;fill:url(#linearGradient321);stroke:url(#radialGradient300);stroke-width:2.5;stroke-linecap:square;stroke-miterlimit:4.9"
       id="path311"
       sodipodi:nodetypes="cccssccccsscscccsczsszsszsszsssssz" /></g><script
     id="mesh_polyfill"
     type="text/javascript">
!function(){const t=&quot;http://www.w3.org/2000/svg&quot;,e=&quot;http://www.w3.org/1999/xlink&quot;,s=&quot;http://www.w3.org/1999/xhtml&quot;,r=2;if(document.createElementNS(t,&quot;meshgradient&quot;).x)return;const n=(t,e,s,r)=&gt;{let n=new x(.5*(e.x+s.x),.5*(e.y+s.y)),o=new x(.5*(t.x+e.x),.5*(t.y+e.y)),i=new x(.5*(s.x+r.x),.5*(s.y+r.y)),a=new x(.5*(n.x+o.x),.5*(n.y+o.y)),h=new x(.5*(n.x+i.x),.5*(n.y+i.y)),l=new x(.5*(a.x+h.x),.5*(a.y+h.y));return[[t,o,a,l],[l,h,i,r]]},o=t=&gt;{let e=t[0].distSquared(t[1]),s=t[2].distSquared(t[3]),r=.25*t[0].distSquared(t[2]),n=.25*t[1].distSquared(t[3]),o=e&gt;s?e:s,i=r&gt;n?r:n;return 18*(o&gt;i?o:i)},i=(t,e)=&gt;Math.sqrt(t.distSquared(e)),a=(t,e)=&gt;t.scale(2/3).add(e.scale(1/3)),h=t=&gt;{let e,s,r,n,o,i,a,h=new g;return t.match(/(\w+\(\s*[^)]+\))+/g).forEach(t=&gt;{let l=t.match(/[\w.-]+/g),d=l.shift();switch(d){case&quot;translate&quot;:2===l.length?e=new g(1,0,0,1,l[0],l[1]):(console.error(&quot;mesh.js: translate does not have 2 arguments!&quot;),e=new g(1,0,0,1,0,0)),h=h.append(e);break;case&quot;scale&quot;:1===l.length?s=new g(l[0],0,0,l[0],0,0):2===l.length?s=new g(l[0],0,0,l[1],0,0):(console.error(&quot;mesh.js: scale does not have 1 or 2 arguments!&quot;),s=new g(1,0,0,1,0,0)),h=h.append(s);break;case&quot;rotate&quot;:if(3===l.length&amp;&amp;(e=new g(1,0,0,1,l[1],l[2]),h=h.append(e)),l[0]){r=l[0]*Math.PI/180;let t=Math.cos(r),e=Math.sin(r);Math.abs(t)&lt;1e-16&amp;&amp;(t=0),Math.abs(e)&lt;1e-16&amp;&amp;(e=0),a=new g(t,e,-e,t,0,0),h=h.append(a)}else console.error(&quot;math.js: No argument to rotate transform!&quot;);3===l.length&amp;&amp;(e=new g(1,0,0,1,-l[1],-l[2]),h=h.append(e));break;case&quot;skewX&quot;:l[0]?(r=l[0]*Math.PI/180,n=Math.tan(r),o=new g(1,0,n,1,0,0),h=h.append(o)):console.error(&quot;math.js: No argument to skewX transform!&quot;);break;case&quot;skewY&quot;:l[0]?(r=l[0]*Math.PI/180,n=Math.tan(r),i=new g(1,n,0,1,0,0),h=h.append(i)):console.error(&quot;math.js: No argument to skewY transform!&quot;);break;case&quot;matrix&quot;:6===l.length?h=h.append(new g(...l)):console.error(&quot;math.js: Incorrect number of arguments for matrix!&quot;);break;default:console.error(&quot;mesh.js: Unhandled transform type: &quot;+d)}}),h},l=t=&gt;{let e=[],s=t.split(/[ ,]+/);for(let t=0,r=s.length-1;t&lt;r;t+=2)e.push(new x(parseFloat(s[t]),parseFloat(s[t+1])));return e},d=(t,e)=&gt;{for(let s in e)t.setAttribute(s,e[s])},c=(t,e,s,r,n)=&gt;{let o,i,a=[0,0,0,0];for(let h=0;h&lt;3;++h)e[h]&lt;t[h]&amp;&amp;e[h]&lt;s[h]||t[h]&lt;e[h]&amp;&amp;s[h]&lt;e[h]?a[h]=0:(a[h]=.5*((e[h]-t[h])/r+(s[h]-e[h])/n),o=Math.abs(3*(e[h]-t[h])/r),i=Math.abs(3*(s[h]-e[h])/n),a[h]&gt;o?a[h]=o:a[h]&gt;i&amp;&amp;(a[h]=i));return a},u=[[1,0,0,0,0,0,0,0,0,0,0,0,0,0,0,0],[0,0,0,0,1,0,0,0,0,0,0,0,0,0,0,0],[-3,3,0,0,-2,-1,0,0,0,0,0,0,0,0,0,0],[2,-2,0,0,1,1,0,0,0,0,0,0,0,0,0,0],[0,0,0,0,0,0,0,0,1,0,0,0,0,0,0,0],[0,0,0,0,0,0,0,0,0,0,0,0,1,0,0,0],[0,0,0,0,0,0,0,0,-3,3,0,0,-2,-1,0,0],[0,0,0,0,0,0,0,0,2,-2,0,0,1,1,0,0],[-3,0,3,0,0,0,0,0,-2,0,-1,0,0,0,0,0],[0,0,0,0,-3,0,3,0,0,0,0,0,-2,0,-1,0],[9,-9,-9,9,6,3,-6,-3,6,-6,3,-3,4,2,2,1],[-6,6,6,-6,-3,-3,3,3,-4,4,-2,2,-2,-2,-1,-1],[2,0,-2,0,0,0,0,0,1,0,1,0,0,0,0,0],[0,0,0,0,2,0,-2,0,0,0,0,0,1,0,1,0],[-6,6,6,-6,-4,-2,4,2,-3,3,-3,3,-2,-1,-2,-1],[4,-4,-4,4,2,2,-2,-2,2,-2,2,-2,1,1,1,1]],f=t=&gt;{let e=[];for(let s=0;s&lt;16;++s){e[s]=0;for(let r=0;r&lt;16;++r)e[s]+=u[s][r]*t[r]}return e},p=(t,e,s)=&gt;{const r=e*e,n=s*s,o=e*e*e,i=s*s*s;return t[0]+t[1]*e+t[2]*r+t[3]*o+t[4]*s+t[5]*s*e+t[6]*s*r+t[7]*s*o+t[8]*n+t[9]*n*e+t[10]*n*r+t[11]*n*o+t[12]*i+t[13]*i*e+t[14]*i*r+t[15]*i*o},y=t=&gt;{let e=[],s=[],r=[];for(let s=0;s&lt;4;++s)e[s]=[],e[s][0]=n(t[0][s],t[1][s],t[2][s],t[3][s]),e[s][1]=[],e[s][1].push(...n(...e[s][0][0])),e[s][1].push(...n(...e[s][0][1])),e[s][2]=[],e[s][2].push(...n(...e[s][1][0])),e[s][2].push(...n(...e[s][1][1])),e[s][2].push(...n(...e[s][1][2])),e[s][2].push(...n(...e[s][1][3]));for(let t=0;t&lt;8;++t){s[t]=[];for(let r=0;r&lt;4;++r)s[t][r]=[],s[t][r][0]=n(e[0][2][t][r],e[1][2][t][r],e[2][2][t][r],e[3][2][t][r]),s[t][r][1]=[],s[t][r][1].push(...n(...s[t][r][0][0])),s[t][r][1].push(...n(...s[t][r][0][1])),s[t][r][2]=[],s[t][r][2].push(...n(...s[t][r][1][0])),s[t][r][2].push(...n(...s[t][r][1][1])),s[t][r][2].push(...n(...s[t][r][1][2])),s[t][r][2].push(...n(...s[t][r][1][3]))}for(let t=0;t&lt;8;++t){r[t]=[];for(let e=0;e&lt;8;++e)r[t][e]=[],r[t][e][0]=s[t][0][2][e],r[t][e][1]=s[t][1][2][e],r[t][e][2]=s[t][2][2][e],r[t][e][3]=s[t][3][2][e]}return r};class x{constructor(t,e){this.x=t||0,this.y=e||0}toString(){return`(x=${this.x}, y=${this.y})`}clone(){return new x(this.x,this.y)}add(t){return new x(this.x+t.x,this.y+t.y)}scale(t){return void 0===t.x?new x(this.x*t,this.y*t):new x(this.x*t.x,this.y*t.y)}distSquared(t){let e=this.x-t.x,s=this.y-t.y;return e*e+s*s}transform(t){let e=this.x*t.a+this.y*t.c+t.e,s=this.x*t.b+this.y*t.d+t.f;return new x(e,s)}}class g{constructor(t,e,s,r,n,o){void 0===t?(this.a=1,this.b=0,this.c=0,this.d=1,this.e=0,this.f=0):(this.a=t,this.b=e,this.c=s,this.d=r,this.e=n,this.f=o)}toString(){return`affine: ${this.a} ${this.c} ${this.e} \n       ${this.b} ${this.d} ${this.f}`}append(t){t instanceof g||console.error(&quot;mesh.js: argument to Affine.append is not affine!&quot;);let e=this.a*t.a+this.c*t.b,s=this.b*t.a+this.d*t.b,r=this.a*t.c+this.c*t.d,n=this.b*t.c+this.d*t.d,o=this.a*t.e+this.c*t.f+this.e,i=this.b*t.e+this.d*t.f+this.f;return new g(e,s,r,n,o,i)}}class w{constructor(t,e){this.nodes=t,this.colors=e}paintCurve(t,e){if(o(this.nodes)&gt;r){const s=n(...this.nodes);let r=[[],[]],o=[[],[]];for(let t=0;t&lt;4;++t)r[0][t]=this.colors[0][t],r[1][t]=(this.colors[0][t]+this.colors[1][t])/2,o[0][t]=r[1][t],o[1][t]=this.colors[1][t];let i=new w(s[0],r),a=new w(s[1],o);i.paintCurve(t,e),a.paintCurve(t,e)}else{let s=Math.round(this.nodes[0].x);if(s&gt;=0&amp;&amp;s&lt;e){let r=4*(~~this.nodes[0].y*e+s);t[r]=Math.round(this.colors[0][0]),t[r+1]=Math.round(this.colors[0][1]),t[r+2]=Math.round(this.colors[0][2]),t[r+3]=Math.round(this.colors[0][3])}}}}class m{constructor(t,e){this.nodes=t,this.colors=e}split(){let t=[[],[],[],[]],e=[[],[],[],[]],s=[[[],[]],[[],[]]],r=[[[],[]],[[],[]]];for(let s=0;s&lt;4;++s){const r=n(this.nodes[0][s],this.nodes[1][s],this.nodes[2][s],this.nodes[3][s]);t[0][s]=r[0][0],t[1][s]=r[0][1],t[2][s]=r[0][2],t[3][s]=r[0][3],e[0][s]=r[1][0],e[1][s]=r[1][1],e[2][s]=r[1][2],e[3][s]=r[1][3]}for(let t=0;t&lt;4;++t)s[0][0][t]=this.colors[0][0][t],s[0][1][t]=this.colors[0][1][t],s[1][0][t]=(this.colors[0][0][t]+this.colors[1][0][t])/2,s[1][1][t]=(this.colors[0][1][t]+this.colors[1][1][t])/2,r[0][0][t]=s[1][0][t],r[0][1][t]=s[1][1][t],r[1][0][t]=this.colors[1][0][t],r[1][1][t]=this.colors[1][1][t];return[new m(t,s),new m(e,r)]}paint(t,e){let s,n=!1;for(let t=0;t&lt;4;++t)if((s=o([this.nodes[0][t],this.nodes[1][t],this.nodes[2][t],this.nodes[3][t]]))&gt;r){n=!0;break}if(n){let s=this.split();s[0].paint(t,e),s[1].paint(t,e)}else{new w([...this.nodes[0]],[...this.colors[0]]).paintCurve(t,e)}}}class b{constructor(t){this.readMesh(t),this.type=t.getAttribute(&quot;type&quot;)||&quot;bilinear&quot;}readMesh(t){let e=[[]],s=[[]],r=Number(t.getAttribute(&quot;x&quot;)),n=Number(t.getAttribute(&quot;y&quot;));e[0][0]=new x(r,n);let o=t.children;for(let t=0,r=o.length;t&lt;r;++t){e[3*t+1]=[],e[3*t+2]=[],e[3*t+3]=[],s[t+1]=[];let r=o[t].children;for(let n=0,o=r.length;n&lt;o;++n){let o=r[n].children;for(let r=0,i=o.length;r&lt;i;++r){let i=r;0!==t&amp;&amp;++i;let h,d=o[r].getAttribute(&quot;path&quot;),c=&quot;l&quot;;null!=d&amp;&amp;(c=(h=d.match(/\s*([lLcC])\s*(.*)/))[1]);let u=l(h[2]);switch(c){case&quot;l&quot;:0===i?(e[3*t][3*n+3]=u[0].add(e[3*t][3*n]),e[3*t][3*n+1]=a(e[3*t][3*n],e[3*t][3*n+3]),e[3*t][3*n+2]=a(e[3*t][3*n+3],e[3*t][3*n])):1===i?(e[3*t+3][3*n+3]=u[0].add(e[3*t][3*n+3]),e[3*t+1][3*n+3]=a(e[3*t][3*n+3],e[3*t+3][3*n+3]),e[3*t+2][3*n+3]=a(e[3*t+3][3*n+3],e[3*t][3*n+3])):2===i?(0===n&amp;&amp;(e[3*t+3][3*n+0]=u[0].add(e[3*t+3][3*n+3])),e[3*t+3][3*n+1]=a(e[3*t+3][3*n],e[3*t+3][3*n+3]),e[3*t+3][3*n+2]=a(e[3*t+3][3*n+3],e[3*t+3][3*n])):(e[3*t+1][3*n]=a(e[3*t][3*n],e[3*t+3][3*n]),e[3*t+2][3*n]=a(e[3*t+3][3*n],e[3*t][3*n]));break;case&quot;L&quot;:0===i?(e[3*t][3*n+3]=u[0],e[3*t][3*n+1]=a(e[3*t][3*n],e[3*t][3*n+3]),e[3*t][3*n+2]=a(e[3*t][3*n+3],e[3*t][3*n])):1===i?(e[3*t+3][3*n+3]=u[0],e[3*t+1][3*n+3]=a(e[3*t][3*n+3],e[3*t+3][3*n+3]),e[3*t+2][3*n+3]=a(e[3*t+3][3*n+3],e[3*t][3*n+3])):2===i?(0===n&amp;&amp;(e[3*t+3][3*n+0]=u[0]),e[3*t+3][3*n+1]=a(e[3*t+3][3*n],e[3*t+3][3*n+3]),e[3*t+3][3*n+2]=a(e[3*t+3][3*n+3],e[3*t+3][3*n])):(e[3*t+1][3*n]=a(e[3*t][3*n],e[3*t+3][3*n]),e[3*t+2][3*n]=a(e[3*t+3][3*n],e[3*t][3*n]));break;case&quot;c&quot;:0===i?(e[3*t][3*n+1]=u[0].add(e[3*t][3*n]),e[3*t][3*n+2]=u[1].add(e[3*t][3*n]),e[3*t][3*n+3]=u[2].add(e[3*t][3*n])):1===i?(e[3*t+1][3*n+3]=u[0].add(e[3*t][3*n+3]),e[3*t+2][3*n+3]=u[1].add(e[3*t][3*n+3]),e[3*t+3][3*n+3]=u[2].add(e[3*t][3*n+3])):2===i?(e[3*t+3][3*n+2]=u[0].add(e[3*t+3][3*n+3]),e[3*t+3][3*n+1]=u[1].add(e[3*t+3][3*n+3]),0===n&amp;&amp;(e[3*t+3][3*n+0]=u[2].add(e[3*t+3][3*n+3]))):(e[3*t+2][3*n]=u[0].add(e[3*t+3][3*n]),e[3*t+1][3*n]=u[1].add(e[3*t+3][3*n]));break;case&quot;C&quot;:0===i?(e[3*t][3*n+1]=u[0],e[3*t][3*n+2]=u[1],e[3*t][3*n+3]=u[2]):1===i?(e[3*t+1][3*n+3]=u[0],e[3*t+2][3*n+3]=u[1],e[3*t+3][3*n+3]=u[2]):2===i?(e[3*t+3][3*n+2]=u[0],e[3*t+3][3*n+1]=u[1],0===n&amp;&amp;(e[3*t+3][3*n+0]=u[2])):(e[3*t+2][3*n]=u[0],e[3*t+1][3*n]=u[1]);break;default:console.error(&quot;mesh.js: &quot;+c+&quot; invalid path type.&quot;)}if(0===t&amp;&amp;0===n||r&gt;0){let e=window.getComputedStyle(o[r]).stopColor.match(/^rgb\s*\(\s*(\d+)\s*,\s*(\d+)\s*,\s*(\d+)\s*\)$/i),a=window.getComputedStyle(o[r]).stopOpacity,h=255;a&amp;&amp;(h=Math.floor(255*a)),e&amp;&amp;(0===i?(s[t][n]=[],s[t][n][0]=Math.floor(e[1]),s[t][n][1]=Math.floor(e[2]),s[t][n][2]=Math.floor(e[3]),s[t][n][3]=h):1===i?(s[t][n+1]=[],s[t][n+1][0]=Math.floor(e[1]),s[t][n+1][1]=Math.floor(e[2]),s[t][n+1][2]=Math.floor(e[3]),s[t][n+1][3]=h):2===i?(s[t+1][n+1]=[],s[t+1][n+1][0]=Math.floor(e[1]),s[t+1][n+1][1]=Math.floor(e[2]),s[t+1][n+1][2]=Math.floor(e[3]),s[t+1][n+1][3]=h):3===i&amp;&amp;(s[t+1][n]=[],s[t+1][n][0]=Math.floor(e[1]),s[t+1][n][1]=Math.floor(e[2]),s[t+1][n][2]=Math.floor(e[3]),s[t+1][n][3]=h))}}e[3*t+1][3*n+1]=new x,e[3*t+1][3*n+2]=new x,e[3*t+2][3*n+1]=new x,e[3*t+2][3*n+2]=new x,e[3*t+1][3*n+1].x=(-4*e[3*t][3*n].x+6*(e[3*t][3*n+1].x+e[3*t+1][3*n].x)+-2*(e[3*t][3*n+3].x+e[3*t+3][3*n].x)+3*(e[3*t+3][3*n+1].x+e[3*t+1][3*n+3].x)+-1*e[3*t+3][3*n+3].x)/9,e[3*t+1][3*n+2].x=(-4*e[3*t][3*n+3].x+6*(e[3*t][3*n+2].x+e[3*t+1][3*n+3].x)+-2*(e[3*t][3*n].x+e[3*t+3][3*n+3].x)+3*(e[3*t+3][3*n+2].x+e[3*t+1][3*n].x)+-1*e[3*t+3][3*n].x)/9,e[3*t+2][3*n+1].x=(-4*e[3*t+3][3*n].x+6*(e[3*t+3][3*n+1].x+e[3*t+2][3*n].x)+-2*(e[3*t+3][3*n+3].x+e[3*t][3*n].x)+3*(e[3*t][3*n+1].x+e[3*t+2][3*n+3].x)+-1*e[3*t][3*n+3].x)/9,e[3*t+2][3*n+2].x=(-4*e[3*t+3][3*n+3].x+6*(e[3*t+3][3*n+2].x+e[3*t+2][3*n+3].x)+-2*(e[3*t+3][3*n].x+e[3*t][3*n+3].x)+3*(e[3*t][3*n+2].x+e[3*t+2][3*n].x)+-1*e[3*t][3*n].x)/9,e[3*t+1][3*n+1].y=(-4*e[3*t][3*n].y+6*(e[3*t][3*n+1].y+e[3*t+1][3*n].y)+-2*(e[3*t][3*n+3].y+e[3*t+3][3*n].y)+3*(e[3*t+3][3*n+1].y+e[3*t+1][3*n+3].y)+-1*e[3*t+3][3*n+3].y)/9,e[3*t+1][3*n+2].y=(-4*e[3*t][3*n+3].y+6*(e[3*t][3*n+2].y+e[3*t+1][3*n+3].y)+-2*(e[3*t][3*n].y+e[3*t+3][3*n+3].y)+3*(e[3*t+3][3*n+2].y+e[3*t+1][3*n].y)+-1*e[3*t+3][3*n].y)/9,e[3*t+2][3*n+1].y=(-4*e[3*t+3][3*n].y+6*(e[3*t+3][3*n+1].y+e[3*t+2][3*n].y)+-2*(e[3*t+3][3*n+3].y+e[3*t][3*n].y)+3*(e[3*t][3*n+1].y+e[3*t+2][3*n+3].y)+-1*e[3*t][3*n+3].y)/9,e[3*t+2][3*n+2].y=(-4*e[3*t+3][3*n+3].y+6*(e[3*t+3][3*n+2].y+e[3*t+2][3*n+3].y)+-2*(e[3*t+3][3*n].y+e[3*t][3*n+3].y)+3*(e[3*t][3*n+2].y+e[3*t+2][3*n].y)+-1*e[3*t][3*n].y)/9}}this.nodes=e,this.colors=s}paintMesh(t,e){let s=(this.nodes.length-1)/3,r=(this.nodes[0].length-1)/3;if(&quot;bilinear&quot;===this.type||s&lt;2||r&lt;2){let n;for(let o=0;o&lt;s;++o)for(let s=0;s&lt;r;++s){let r=[];for(let t=3*o,e=3*o+4;t&lt;e;++t)r.push(this.nodes[t].slice(3*s,3*s+4));let i=[];i.push(this.colors[o].slice(s,s+2)),i.push(this.colors[o+1].slice(s,s+2)),(n=new m(r,i)).paint(t,e)}}else{let n,o,a,h,l,d,u;const x=s,g=r;s++,r++;let w=new Array(s);for(let t=0;t&lt;s;++t){w[t]=new Array(r);for(let e=0;e&lt;r;++e)w[t][e]=[],w[t][e][0]=this.nodes[3*t][3*e],w[t][e][1]=this.colors[t][e]}for(let t=0;t&lt;s;++t)for(let e=0;e&lt;r;++e)0!==t&amp;&amp;t!==x&amp;&amp;(n=i(w[t-1][e][0],w[t][e][0]),o=i(w[t+1][e][0],w[t][e][0]),w[t][e][2]=c(w[t-1][e][1],w[t][e][1],w[t+1][e][1],n,o)),0!==e&amp;&amp;e!==g&amp;&amp;(n=i(w[t][e-1][0],w[t][e][0]),o=i(w[t][e+1][0],w[t][e][0]),w[t][e][3]=c(w[t][e-1][1],w[t][e][1],w[t][e+1][1],n,o));for(let t=0;t&lt;r;++t){w[0][t][2]=[],w[x][t][2]=[];for(let e=0;e&lt;4;++e)n=i(w[1][t][0],w[0][t][0]),o=i(w[x][t][0],w[x-1][t][0]),w[0][t][2][e]=n&gt;0?2*(w[1][t][1][e]-w[0][t][1][e])/n-w[1][t][2][e]:0,w[x][t][2][e]=o&gt;0?2*(w[x][t][1][e]-w[x-1][t][1][e])/o-w[x-1][t][2][e]:0}for(let t=0;t&lt;s;++t){w[t][0][3]=[],w[t][g][3]=[];for(let e=0;e&lt;4;++e)n=i(w[t][1][0],w[t][0][0]),o=i(w[t][g][0],w[t][g-1][0]),w[t][0][3][e]=n&gt;0?2*(w[t][1][1][e]-w[t][0][1][e])/n-w[t][1][3][e]:0,w[t][g][3][e]=o&gt;0?2*(w[t][g][1][e]-w[t][g-1][1][e])/o-w[t][g-1][3][e]:0}for(let s=0;s&lt;x;++s)for(let r=0;r&lt;g;++r){let n=i(w[s][r][0],w[s+1][r][0]),o=i(w[s][r+1][0],w[s+1][r+1][0]),c=i(w[s][r][0],w[s][r+1][0]),x=i(w[s+1][r][0],w[s+1][r+1][0]),g=[[],[],[],[]];for(let t=0;t&lt;4;++t){(d=[])[0]=w[s][r][1][t],d[1]=w[s+1][r][1][t],d[2]=w[s][r+1][1][t],d[3]=w[s+1][r+1][1][t],d[4]=w[s][r][2][t]*n,d[5]=w[s+1][r][2][t]*n,d[6]=w[s][r+1][2][t]*o,d[7]=w[s+1][r+1][2][t]*o,d[8]=w[s][r][3][t]*c,d[9]=w[s+1][r][3][t]*x,d[10]=w[s][r+1][3][t]*c,d[11]=w[s+1][r+1][3][t]*x,d[12]=0,d[13]=0,d[14]=0,d[15]=0,u=f(d);for(let e=0;e&lt;9;++e){g[t][e]=[];for(let s=0;s&lt;9;++s)g[t][e][s]=p(u,e/8,s/8),g[t][e][s]&gt;255?g[t][e][s]=255:g[t][e][s]&lt;0&amp;&amp;(g[t][e][s]=0)}}h=[];for(let t=3*s,e=3*s+4;t&lt;e;++t)h.push(this.nodes[t].slice(3*r,3*r+4));l=y(h);for(let s=0;s&lt;8;++s)for(let r=0;r&lt;8;++r)(a=new m(l[s][r],[[[g[0][s][r],g[1][s][r],g[2][s][r],g[3][s][r]],[g[0][s][r+1],g[1][s][r+1],g[2][s][r+1],g[3][s][r+1]]],[[g[0][s+1][r],g[1][s+1][r],g[2][s+1][r],g[3][s+1][r]],[g[0][s+1][r+1],g[1][s+1][r+1],g[2][s+1][r+1],g[3][s+1][r+1]]]])).paint(t,e)}}}transform(t){if(t instanceof x)for(let e=0,s=this.nodes.length;e&lt;s;++e)for(let s=0,r=this.nodes[0].length;s&lt;r;++s)this.nodes[e][s]=this.nodes[e][s].add(t);else if(t instanceof g)for(let e=0,s=this.nodes.length;e&lt;s;++e)for(let s=0,r=this.nodes[0].length;s&lt;r;++s)this.nodes[e][s]=this.nodes[e][s].transform(t)}scale(t){for(let e=0,s=this.nodes.length;e&lt;s;++e)for(let s=0,r=this.nodes[0].length;s&lt;r;++s)this.nodes[e][s]=this.nodes[e][s].scale(t)}}document.querySelectorAll(&quot;rect,circle,ellipse,path,text&quot;).forEach((r,n)=&gt;{let o=r.getAttribute(&quot;id&quot;);o||(o=&quot;patchjs_shape&quot;+n,r.setAttribute(&quot;id&quot;,o));const i=r.style.fill.match(/^url\(\s*&quot;?\s*#([^\s&quot;]+)&quot;?\s*\)/),a=r.style.stroke.match(/^url\(\s*&quot;?\s*#([^\s&quot;]+)&quot;?\s*\)/);if(i&amp;&amp;i[1]){const a=document.getElementById(i[1]);if(a&amp;&amp;&quot;meshgradient&quot;===a.nodeName){const i=r.getBBox();let l=document.createElementNS(s,&quot;canvas&quot;);d(l,{width:i.width,height:i.height});const c=l.getContext(&quot;2d&quot;);let u=c.createImageData(i.width,i.height);const f=new b(a);&quot;objectBoundingBox&quot;===a.getAttribute(&quot;gradientUnits&quot;)&amp;&amp;f.scale(new x(i.width,i.height));const p=a.getAttribute(&quot;gradientTransform&quot;);null!=p&amp;&amp;f.transform(h(p)),&quot;userSpaceOnUse&quot;===a.getAttribute(&quot;gradientUnits&quot;)&amp;&amp;f.transform(new x(-i.x,-i.y)),f.paintMesh(u.data,l.width),c.putImageData(u,0,0);const y=document.createElementNS(t,&quot;image&quot;);d(y,{width:i.width,height:i.height,x:i.x,y:i.y});let g=l.toDataURL();y.setAttributeNS(e,&quot;xlink:href&quot;,g),r.parentNode.insertBefore(y,r),r.style.fill=&quot;none&quot;;const w=document.createElementNS(t,&quot;use&quot;);w.setAttributeNS(e,&quot;xlink:href&quot;,&quot;#&quot;+o);const m=&quot;patchjs_clip&quot;+n,M=document.createElementNS(t,&quot;clipPath&quot;);M.setAttribute(&quot;id&quot;,m),M.appendChild(w),r.parentElement.insertBefore(M,r),y.setAttribute(&quot;clip-path&quot;,&quot;url(#&quot;+m+&quot;)&quot;),u=null,l=null,g=null}}if(a&amp;&amp;a[1]){const o=document.getElementById(a[1]);if(o&amp;&amp;&quot;meshgradient&quot;===o.nodeName){const i=parseFloat(r.style.strokeWidth.slice(0,-2))*(parseFloat(r.style.strokeMiterlimit)||parseFloat(r.getAttribute(&quot;stroke-miterlimit&quot;))||1),a=r.getBBox(),l=Math.trunc(a.width+i),c=Math.trunc(a.height+i),u=Math.trunc(a.x-i/2),f=Math.trunc(a.y-i/2);let p=document.createElementNS(s,&quot;canvas&quot;);d(p,{width:l,height:c});const y=p.getContext(&quot;2d&quot;);let g=y.createImageData(l,c);const w=new b(o);&quot;objectBoundingBox&quot;===o.getAttribute(&quot;gradientUnits&quot;)&amp;&amp;w.scale(new x(l,c));const m=o.getAttribute(&quot;gradientTransform&quot;);null!=m&amp;&amp;w.transform(h(m)),&quot;userSpaceOnUse&quot;===o.getAttribute(&quot;gradientUnits&quot;)&amp;&amp;w.transform(new x(-u,-f)),w.paintMesh(g.data,p.width),y.putImageData(g,0,0);const M=document.createElementNS(t,&quot;image&quot;);d(M,{width:l,height:c,x:0,y:0});let S=p.toDataURL();M.setAttributeNS(e,&quot;xlink:href&quot;,S);const k=&quot;pattern_clip&quot;+n,A=document.createElementNS(t,&quot;pattern&quot;);d(A,{id:k,patternUnits:&quot;userSpaceOnUse&quot;,width:l,height:c,x:u,y:f}),A.appendChild(M),o.parentNode.appendChild(A),r.style.stroke=&quot;url(#&quot;+k+&quot;)&quot;,g=null,p=null,S=null}}})}();
</script></svg>
