<svg xmlns="http://www.w3.org/2000/svg" viewBox="0 0 48 77" width="48" height="77"><defs></defs><g transform="matrix(1,0,0,1,-728.346969655,-330.027025802)">
<g>
	<g>
		<g transform="matrix(1,0,0,1,82.403433476,809.551773104)">
			<g>
				<path d="M685.411537,-467.711747C685.411537,-467.711747 683.784538,-467.711747 683.784538,-467.711747 C683.463535,-467.711747 683.202537,-467.450747 683.202537,-467.129748 C683.202537,-467.129748 683.202537,-465.092747 683.202537,-465.092747 C683.202537,-464.770747 683.463535,-464.510746 683.784538,-464.510746 C683.784538,-464.510746 685.411537,-464.510746 685.411537,-464.510746 C685.411537,-464.510746 685.411537,-462.884747 685.411537,-462.884747 C685.411537,-462.562746 685.671535,-462.302748 685.993537,-462.302748 C685.993537,-462.302748 688.030536,-462.302748 688.030536,-462.302748 C688.350536,-462.302748 688.612537,-462.562746 688.612537,-462.884747 C688.612537,-462.884747 688.612537,-464.510746 688.612537,-464.510746 C688.612537,-464.510746 690.238536,-464.510746 690.238536,-464.510746 C690.559535,-464.510746 690.819538,-464.770747 690.819538,-465.092747 C690.819538,-465.092747 690.819538,-467.129748 690.819538,-467.129748 C690.819538,-467.450747 690.559535,-467.711747 690.238536,-467.711747 C690.238536,-467.711747 688.612537,-467.711747 688.612537,-467.711747 C688.612537,-467.711747 688.612537,-469.338747 688.612537,-469.338747 C688.612537,-469.659747 688.350536,-469.920748 688.030536,-469.920748 C688.030536,-469.920748 685.993537,-469.920748 685.993537,-469.920748 C685.671535,-469.920748 685.411537,-469.659747 685.411537,-469.338747 C685.411537,-469.338747 685.411537,-467.711747 685.411537,-467.711747 C685.411537,-467.711747 685.411537,-467.711747 685.411537,-467.711747 ZM685.993537,-466.547747C686.314533,-466.547747 686.574535,-466.808747 686.574535,-467.129748 C686.574535,-467.129748 686.574535,-468.756747 686.574535,-468.756747 C686.574535,-468.756747 687.448535,-468.756747 687.448535,-468.756747 C687.448535,-468.756747 687.448535,-467.129748 687.448535,-467.129748 C687.448535,-466.808747 687.709537,-466.547747 688.030536,-466.547747 C688.030536,-466.547747 689.656536,-466.547747 689.656536,-466.547747 C689.656536,-466.547747 689.656536,-465.674748 689.656536,-465.674748 C689.656536,-465.674748 688.030536,-465.674748 688.030536,-465.674748 C687.709537,-465.674748 687.448535,-465.413746 687.448535,-465.092747 C687.448535,-465.092747 687.448535,-463.465746 687.448535,-463.465746 C687.448535,-463.465746 686.574535,-463.465746 686.574535,-463.465746 C686.574535,-463.465746 686.574535,-465.092747 686.574535,-465.092747 C686.574535,-465.413746 686.314533,-465.674748 685.993537,-465.674748 C685.993537,-465.674748 684.366535,-465.674748 684.366535,-465.674748 C684.366535,-465.674748 684.366535,-466.547747 684.366535,-466.547747 C684.366535,-466.547747 685.993537,-466.547747 685.993537,-466.547747 C685.993537,-466.547747 685.993537,-466.547747 685.993537,-466.547747 Z" fill="#ffffff"/>
			</g>
			<g>
				<path d="M683.901534,-472.751748C684.816535,-472.751748 685.559535,-473.495747 685.559535,-474.409748 C685.559535,-475.323747 684.816535,-476.068747 683.901534,-476.068747 C682.987537,-476.068747 682.243537,-475.324747 682.243537,-474.409748 C682.243537,-473.494748 682.987537,-472.751748 683.901534,-472.751748 C683.901534,-472.751748 683.901534,-472.751748 683.901534,-472.751748 ZM683.901534,-474.904747C684.173538,-474.904747 684.395538,-474.682747 684.395538,-474.409748 C684.395538,-474.137747 684.173538,-473.914748 683.901534,-473.914748 C683.629535,-473.914748 683.407535,-474.136747 683.407535,-474.409748 C683.407535,-474.682747 683.629535,-474.904747 683.901534,-474.904747 C683.901534,-474.904747 683.901534,-474.904747 683.901534,-474.904747 Z" fill="#ffffff"/>
			</g>
			<g>
				<path d="M687.011539,-444.318749C686.096538,-444.318749 685.353538,-443.574746 685.353538,-442.660748 C685.353538,-441.745747 686.096538,-441.001748 687.011539,-441.001748 C687.925533,-441.001748 688.669536,-441.745747 688.669536,-442.660748 C688.670535,-443.573746 687.92654,-444.318749 687.011539,-444.318749 C687.011539,-444.318749 687.011539,-444.318749 687.011539,-444.318749 ZM687.011539,-442.165749C686.739536,-442.165749 686.517536,-442.387749 686.517536,-442.660748 C686.517536,-442.932747 686.739536,-443.155747 687.011539,-443.155747 C687.283534,-443.155747 687.505535,-442.933747 687.505535,-442.660748 C687.506534,-442.386746 687.284534,-442.165749 687.011539,-442.165749 C687.011539,-442.165749 687.011539,-442.165749 687.011539,-442.165749 Z" fill="#ffffff"/>
			</g>
			<g>
				<path d="M687.011539,-440.436749C686.096538,-440.436749 685.353538,-439.692746 685.353538,-438.778748 C685.353538,-437.864747 686.096538,-437.120747 687.011539,-437.120747 C687.925533,-437.120747 688.669536,-437.864747 688.669536,-438.778748 C688.669536,-439.692746 687.92654,-440.436749 687.011539,-440.436749 C687.011539,-440.436749 687.011539,-440.436749 687.011539,-440.436749 ZM687.011539,-438.282746C686.739536,-438.282746 686.517536,-438.505745 686.517536,-438.778748 C686.517536,-439.051747 686.739536,-439.272747 687.011539,-439.272747 C687.283534,-439.272747 687.505535,-439.051747 687.505535,-438.778748 C687.505535,-438.505745 687.284534,-438.282746 687.011539,-438.282746 C687.011539,-438.282746 687.011539,-438.282746 687.011539,-438.282746 Z" fill="#ffffff"/>
			</g>
			<g>
				<path d="M684.849536,-455.016747C684.849536,-454.731373 684.736171,-454.457688 684.534385,-454.255898 C684.332595,-454.054112 684.05891,-453.940747 683.773536,-453.940747 C683.488162,-453.940747 683.214477,-454.054112 683.012687,-454.255898 C682.810901,-454.457688 682.697536,-454.731373 682.697536,-455.016747 C682.697536,-455.302121 682.810901,-455.575806 683.012687,-455.777596 C683.214477,-455.979382 683.488162,-456.092747 683.773536,-456.092747 C684.05891,-456.092747 684.332595,-455.979382 684.534385,-455.777596 C684.736171,-455.575806 684.849536,-455.302121 684.849536,-455.016747 C684.849536,-455.016747 684.849536,-455.016747 684.849536,-455.016747 Z" fill="#ffffff"/>
			</g>
			<g>
				<path d="M687.869533,-455.016747C687.869533,-454.42249 687.38779,-453.940751 686.793537,-453.940747 C686.508167,-453.940747 686.234477,-454.054112 686.032688,-454.255898 C685.830902,-454.457688 685.717536,-454.731373 685.717536,-455.016747 C685.717536,-455.302121 685.830902,-455.575806 686.032688,-455.777596 C686.234477,-455.979382 686.508167,-456.092747 686.793537,-456.092747 C687.38779,-456.092743 687.869533,-455.611004 687.869533,-455.016747 C687.869533,-455.016747 687.869533,-455.016747 687.869533,-455.016747 Z" fill="#ffffff"/>
			</g>
			<g>
				<path d="M690.88853,-455.016747C690.88853,-454.42249 690.406787,-453.940751 689.812534,-453.940747 C689.21828,-453.940751 688.736537,-454.42249 688.736537,-455.016747 C688.736537,-455.611004 689.21828,-456.092743 689.812534,-456.092747 C690.406787,-456.092743 690.88853,-455.611004 690.88853,-455.016747 C690.88853,-455.016747 690.88853,-455.016747 690.88853,-455.016747 Z" fill="#ffffff"/>
			</g>
			<g>
				<path d="M690.91254,-479.524747C690.91254,-479.524747 682.673538,-479.524747 682.673538,-479.524747 C680.896537,-479.524747 679.449535,-478.217747 679.449535,-476.610747 C679.449535,-476.610747 679.449535,-431.269749 679.449535,-431.269749 C679.449535,-429.662747 680.895538,-428.355748 682.673538,-428.355748 C682.673538,-428.355748 682.928535,-428.355748 682.928535,-428.355748 C682.928535,-428.355748 682.928535,-424.339745 682.928535,-424.339745 C682.928535,-423.241745 683.854537,-422.345749 684.992538,-422.345749 C684.992538,-422.345749 685.362537,-422.345749 685.362537,-422.345749 C685.006538,-420.851746 684.377536,-419.349747 683.434535,-417.929749 C677.806537,-421.491745 668.838535,-423.101746 659.126537,-419.210747 C658.042537,-418.776749 657.077537,-418.333748 656.233535,-417.88675 C655.933536,-419.853745 655.942535,-421.753746 656.065536,-423.331749 C656.261535,-425.870747 656.768535,-427.991745 657.072536,-429.089749 C657.271537,-429.114747 657.478538,-429.159748 657.697536,-429.226746 C658.053535,-429.335747 658.336536,-429.607747 658.456535,-429.960747 C658.456535,-429.960747 659.716537,-433.626748 659.716537,-433.626748 C661.368537,-434.610749 664.016536,-437.784748 664.925537,-447.979748 C665.396537,-453.250748 664.996536,-458.000748 663.744537,-462.107747 C664.057536,-462.489747 664.223537,-463.012747 664.206535,-463.602747 C664.186538,-464.304747 663.920535,-465.053748 663.456535,-465.714747 C662.885536,-466.526747 662.100536,-467.078747 661.318538,-467.252747 C661.318538,-467.252747 661.414535,-467.314747 661.414535,-467.314747 C661.166538,-467.697747 660.982536,-467.936747 660.896537,-468.042748 C660.566535,-468.517746 658.299537,-471.621746 655.192535,-471.527747 C654.125535,-471.495747 653.118535,-471.098748 652.179536,-470.349747 C651.702537,-470.464747 650.749536,-470.607747 649.956537,-470.199747 C649.462537,-469.945748 649.110536,-469.511748 648.938537,-468.944746 C648.755536,-468.342747 648.771537,-467.871746 648.978536,-467.534747 C648.339536,-467.349747 647.672536,-466.860747 647.336536,-465.780747 C647.014535,-464.751748 646.645536,-464.529747 646.423536,-464.396748 C646.267536,-464.303748 645.943536,-464.108748 645.943536,-463.692748 C645.943536,-463.481747 646.034536,-463.284747 646.214536,-463.105748 C646.496536,-462.826746 647.055536,-462.556748 647.569536,-462.417748 C647.453536,-462.086747 647.369537,-461.805746 647.336536,-461.605748 C647.082536,-460.083746 648.790536,-458.486748 649.536537,-457.870747 C649.575536,-457.837748 649.546537,-457.854748 649.590536,-457.828747 C649.623536,-457.803748 652.805536,-455.219746 650.509536,-445.880745 C649.737537,-442.511746 649.738536,-435.907746 654.789535,-433.624749 C654.789535,-433.624749 654.185537,-431.188748 654.185537,-431.188748 C654.116537,-430.905747 654.153537,-430.608746 654.291538,-430.352745 C654.396537,-430.159748 654.576538,-429.926747 654.826538,-429.711747 C654.221536,-427.563748 652.974536,-422.082749 654.093536,-416.537751 C652.290536,-415.160744 651.544536,-413.723748 651.870536,-412.234749 C652.336536,-410.109749 655.006538,-408.711747 658.460536,-407.998749 C662.002536,-404.391747 667.405536,-402.44175 674.568538,-402.197747 C675.002536,-402.181748 675.466537,-402.172745 675.955535,-402.172745 C680.470535,-402.172745 686.978534,-402.95575 688.881534,-407.221749 C690.000537,-409.731751 689.156536,-412.711747 686.567539,-415.403748 C686.198535,-415.78875 685.796535,-416.16375 685.363536,-416.52475 C686.539539,-418.266747 687.338535,-420.221749 687.747539,-422.34475 C687.747539,-422.34475 688.595539,-422.34475 688.595539,-422.34475 C689.733539,-422.34475 690.659534,-423.240746 690.659534,-424.338746 C690.659534,-424.338746 690.659534,-428.354748 690.659534,-428.354748 C690.659534,-428.354748 690.913539,-428.354748 690.913539,-428.354748 C692.69054,-428.354748 694.137538,-429.661747 694.137538,-431.268746 C694.137538,-431.268746 694.137538,-476.610747 694.137538,-476.610747 C694.135539,-478.217747 692.689533,-479.524747 690.91254,-479.524747 C690.91254,-479.524747 690.91254,-479.524747 690.91254,-479.524747 ZM657.078536,-433.186749C657.078536,-433.186749 657.104537,-433.186749 657.104537,-433.186749 C657.104537,-433.186749 657.011535,-432.915749 657.011535,-432.915749 C657.011535,-432.915749 657.078536,-433.186749 657.078536,-433.186749 C657.078536,-433.186749 657.078536,-433.186749 657.078536,-433.186749 ZM657.413535,-464.929747C657.872535,-465.033747 658.468536,-464.868748 659.038535,-464.478747 C659.157535,-463.994748 659.377536,-463.509747 659.689536,-463.065747 C659.999538,-462.624747 660.374538,-462.263747 660.776534,-461.993748 C660.927535,-461.403748 660.904537,-460.860747 660.720535,-460.472746 C660.720535,-460.472746 659.394534,-460.896748 659.394534,-460.896748 C659.394534,-460.896748 657.892536,-462.524746 657.892536,-462.524746 C657.892536,-462.524746 657.388538,-464.894747 657.388538,-464.894747 C657.388538,-464.894747 657.413535,-464.929747 657.413535,-464.929747 C657.413535,-464.929747 657.413535,-464.929747 657.413535,-464.929747 ZM662.505535,-465.044747C662.834537,-464.576746 663.030536,-464.038746 663.044536,-463.569746 C663.050537,-463.345747 663.018535,-462.939747 662.733535,-462.740748 C662.626537,-462.664748 662.492538,-462.626748 662.336536,-462.626748 C661.881538,-462.626748 661.181537,-462.969748 660.642536,-463.735747 C660.312538,-464.203747 660.116535,-464.740748 660.102535,-465.209748 C660.096538,-465.433747 660.127536,-465.839747 660.412536,-466.039748 C660.519534,-466.114747 660.654537,-466.152747 660.810535,-466.152747 C661.265537,-466.152747 661.966537,-465.810748 662.505535,-465.044747 C662.505535,-465.044747 662.505535,-465.044747 662.505535,-465.044747 ZM655.257537,-469.201746C656.912536,-469.243748 658.518535,-467.411747 658.996536,-466.698748 C659.020538,-466.662747 659.050537,-466.623747 659.078536,-466.590746 C659.079536,-466.589747 659.131538,-466.526747 659.221538,-466.402747 C659.198535,-466.361748 659.176536,-466.319746 659.156536,-466.277747 C659.156536,-466.277747 658.105537,-466.950747 658.105537,-466.950747 C657.844535,-467.117747 657.497535,-467.051747 657.317535,-466.798747 C657.317535,-466.798747 656.293537,-465.360747 656.293537,-465.360747 C656.198535,-465.227747 656.164535,-465.061747 656.198535,-464.902747 C656.198535,-464.902747 656.788535,-462.126748 656.788535,-462.126748 C656.810535,-462.024746 656.859535,-461.929747 656.930538,-461.853747 C656.930538,-461.853747 658.644534,-459.995747 658.644534,-459.995747 C658.712535,-459.921748 658.798538,-459.866747 658.894534,-459.835747 C658.894534,-459.835747 661.155536,-459.111748 661.155536,-459.111748 C661.214538,-459.092747 661.274536,-459.083746 661.332538,-459.083746 C661.524536,-459.083746 661.709537,-459.178748 661.818538,-459.346747 C661.818538,-459.346747 662.000537,-459.622748 662.000537,-459.622748 C662.777538,-456.227745 662.983535,-452.393746 662.607536,-448.185746 C661.619537,-437.088746 658.643535,-435.653748 658.262535,-435.514748 C658.262535,-435.514748 657.728538,-435.514748 657.728538,-435.514748 C657.509536,-437.368748 657.685535,-440.013749 657.685535,-440.020749 C657.699535,-440.139748 658.030536,-442.983746 657.913535,-446.682747 C657.754535,-451.684746 656.879535,-455.644749 655.310535,-458.453747 C652.908536,-462.756747 652.606536,-465.946747 652.654537,-467.530747 C653.503536,-468.611748 654.376537,-469.172747 655.257537,-469.201746 C655.257537,-469.201746 655.257537,-469.201746 655.257537,-469.201746 ZM650.053537,-468.605748C650.135536,-468.874747 650.273536,-469.050747 650.489536,-469.162747 C650.669536,-469.256747 650.886537,-469.293747 651.105537,-469.301747 C650.838537,-468.991747 650.578536,-468.651747 650.324537,-468.277747 C650.324537,-468.277747 650.319536,-468.291747 650.319536,-468.291747 C650.212537,-468.245747 650.070537,-468.210747 649.974536,-468.202748 C649.976537,-468.276747 649.992536,-468.403748 650.053537,-468.605748 C650.053537,-468.605748 650.053537,-468.605748 650.053537,-468.605748 ZM647.994537,-463.507748C647.820537,-463.542748 647.619537,-463.612748 647.438537,-463.693747 C647.758537,-463.974747 648.147537,-464.472746 648.447536,-465.434748 C648.645536,-466.068747 648.991537,-466.321747 649.298536,-466.414748 C648.908536,-465.589747 648.399536,-464.484747 647.994537,-463.507748 C647.994537,-463.507748 647.994537,-463.507748 647.994537,-463.507748 ZM652.571536,-440.803746C652.287536,-443.151749 652.773536,-445.340748 652.773536,-445.342747 C655.368537,-455.895749 651.646537,-459.199747 650.993535,-459.686747 C650.365537,-460.213747 649.733537,-460.961747 649.643537,-461.278748 C649.776536,-461.850747 650.679536,-463.903748 651.562536,-465.755747 C651.775537,-463.856747 652.457536,-461.176747 654.294536,-457.887747 C657.829536,-451.556748 656.543537,-440.272747 656.527538,-440.130745 C656.518535,-439.998745 656.350536,-437.478749 656.560535,-435.515747 C656.560535,-435.515747 656.344535,-435.515747 656.344535,-435.515747 C654.179536,-436.216748 652.910537,-437.993748 652.571536,-440.803746 C652.571536,-440.803746 652.571536,-440.803746 652.571536,-440.803746 ZM654.143537,-412.735749C654.123536,-412.827744 654.067537,-413.296746 654.768535,-414.042748 C655.110538,-413.05275 655.543537,-412.077744 656.086536,-411.134751 C654.941535,-411.63575 654.259536,-412.208748 654.143537,-412.735749 C654.143537,-412.735749 654.143537,-412.735749 654.143537,-412.735749 ZM658.687538,-411.370751C657.790534,-412.671746 657.169536,-414.087746 656.751537,-415.518746 C657.560535,-415.985749 658.614536,-416.49775 659.991535,-417.049744 C664.994537,-419.051751 670.191535,-419.623749 675.022537,-418.701744 C677.589538,-418.209748 679.990535,-417.297745 681.979537,-416.084748 C678.899536,-412.764748 673.751537,-410.207749 665.940536,-409.809746 C663.545535,-409.690751 661.419536,-409.832749 659.654537,-410.133744 C659.308536,-410.52475 658.985538,-410.936745 658.687538,-411.370751 C658.687538,-411.370751 658.687538,-411.370751 658.687538,-411.370751 ZM686.755535,-408.169747C685.621536,-405.628746 681.204536,-404.300744 674.649536,-404.523751 C669.799537,-404.689743 665.864536,-405.679749 662.882537,-407.474747 C663.934535,-407.42775 665.004535,-407.433747 666.059535,-407.486748 C671.287536,-407.754746 676.213535,-409.156746 679.930538,-411.433747 C681.471538,-412.376748 682.805538,-413.470749 683.922534,-414.695748 C684.267536,-414.406746 684.589538,-414.101746 684.890537,-413.793747 C686.788539,-411.815751 687.467533,-409.768746 686.755535,-408.169747 C686.755535,-408.169747 686.755535,-408.169747 686.755535,-408.169747 ZM688.330539,-424.673745C688.330539,-424.673745 685.256538,-424.673745 685.256538,-424.673745 C685.256538,-424.673745 685.256538,-428.109745 685.256538,-428.109745 C685.256538,-428.109745 688.330539,-428.109745 688.330539,-428.109745 C688.330539,-428.109745 688.330539,-424.673745 688.330539,-424.673745 C688.330539,-424.673745 688.330539,-424.673745 688.330539,-424.673745 ZM691.808536,-431.268746C691.808536,-430.991745 691.424533,-430.680748 690.91254,-430.680748 C690.91254,-430.680748 682.673538,-430.680748 682.673538,-430.680748 C682.160537,-430.680748 681.777538,-430.991745 681.777538,-431.268746 C681.777538,-431.268746 681.777538,-476.610747 681.777538,-476.610747 C681.777538,-476.887747 682.160537,-477.196747 682.673538,-477.196747 C682.673538,-477.196747 690.91254,-477.196747 690.91254,-477.196747 C691.425533,-477.196747 691.808536,-476.886747 691.808536,-476.610747 C691.808536,-476.610747 691.808536,-431.268746 691.808536,-431.268746 C691.808536,-431.268746 691.808536,-431.268746 691.808536,-431.268746 Z" fill="#fefefe"/>
			</g>
			<g>
				<path d="M683.767536,-432.825749C683.767536,-432.825749 684.732536,-432.825749 684.732536,-432.825749 C684.732536,-432.825749 684.732536,-431.860749 684.732536,-431.860749 C684.732536,-431.860749 683.767536,-431.860749 683.767536,-431.860749 C683.767536,-431.860749 683.767536,-432.825749 683.767536,-432.825749 Z" fill="#fefefe"/>
			</g>
			<g>
				<path d="M685.608535,-432.825749C685.608535,-432.825749 686.573535,-432.825749 686.573535,-432.825749 C686.573535,-432.825749 686.573535,-431.860749 686.573535,-431.860749 C686.573535,-431.860749 685.608535,-431.860749 685.608535,-431.860749 C685.608535,-431.860749 685.608535,-432.825749 685.608535,-432.825749 Z" fill="#fefefe"/>
			</g>
			<g>
				<path d="M687.449535,-432.825749C687.449535,-432.825749 688.415538,-432.825749 688.415538,-432.825749 C688.415538,-432.825749 688.415538,-431.860749 688.415538,-431.860749 C688.415538,-431.860749 687.449535,-431.860749 687.449535,-431.860749 C687.449535,-431.860749 687.449535,-432.825749 687.449535,-432.825749 Z" fill="#fefefe"/>
			</g>
			<g>
				<path d="M689.290538,-432.825749C689.290538,-432.825749 690.255535,-432.825749 690.255535,-432.825749 C690.255535,-432.825749 690.255535,-431.860749 690.255535,-431.860749 C690.255535,-431.860749 689.290538,-431.860749 689.290538,-431.860749 C689.290538,-431.860749 689.290538,-432.825749 689.290538,-432.825749 Z" fill="#fefefe"/>
			</g>
		</g>
	</g>
	<g>
		<g transform="matrix(1,0,0,1,250.170341091,849.54377416)">
			<g>
				<path d="M709.733539,-449.152749C709.169536,-459.635746 706.406536,-465.291747 706.289539,-465.527747 C706.124538,-465.858748 705.835536,-466.109747 705.485538,-466.225747 C702.168537,-467.331747 696.864536,-468.273747 695.139537,-468.564747 C689.599536,-476.257747 680.702537,-480.840747 671.201538,-480.840747 C661.707538,-480.840747 652.811536,-476.259747 647.263536,-468.570748 C645.494537,-468.281746 639.980537,-467.334748 636.649537,-466.224747 C636.299536,-466.108748 636.009536,-465.856747 635.845537,-465.526747 C635.727537,-465.290747 632.965536,-459.634747 632.401536,-449.151749 C631.886536,-439.583748 633.197536,-423.958748 642.366537,-403.855744 C642.395536,-403.791748 642.429536,-403.730744 642.468536,-403.670746 C642.837537,-403.10875 644.096536,-401.394745 645.739536,-401.394745 C645.878536,-401.394745 646.021537,-401.406746 646.166536,-401.432747 C647.369537,-401.654747 648.191535,-402.725747 648.609537,-404.618744 C649.343536,-407.944748 650.317537,-410.84475 650.737537,-412.029747 C652.598537,-412.708748 659.331535,-414.831749 670.716537,-414.831749 C670.716537,-414.831749 671.416538,-414.831749 671.416538,-414.831749 C682.805538,-414.831749 689.540538,-412.707749 691.395534,-412.030747 C691.816539,-410.84375 692.791538,-407.944748 693.524539,-404.618744 C693.942539,-402.724747 694.765537,-401.653748 695.967533,-401.432747 C697.81554,-401.092751 699.264537,-403.060746 699.663539,-403.670746 C699.702533,-403.730744 699.736537,-403.790749 699.766536,-403.855744 C708.937534,-423.959748 710.248538,-439.584748 709.733539,-449.152749 C709.733539,-449.152749 709.733539,-449.152749 709.733539,-449.152749 ZM644.670535,-447.719746C641.031536,-447.719746 638.073536,-450.677746 638.073536,-454.316746 C638.073536,-457.952748 641.031536,-460.913746 644.670535,-460.913746 C648.308536,-460.913746 651.266536,-457.952748 651.266536,-454.316746 C651.266536,-450.677746 648.308536,-447.719746 644.670535,-447.719746 C644.670535,-447.719746 644.670535,-447.719746 644.670535,-447.719746 ZM658.818538,-474.831747C662.611537,-476.827747 666.878536,-477.890747 671.202537,-477.890747 C675.543537,-477.890747 679.830535,-476.816747 683.641536,-474.802747 C683.641536,-474.802747 683.641536,-452.539746 683.641536,-452.539746 C683.641536,-445.695748 678.074535,-440.127747 671.229537,-440.127747 C667.912536,-440.127747 664.794536,-441.419747 662.452537,-443.765747 C660.109535,-446.109745 658.818538,-449.224747 658.818538,-452.539746 C658.818538,-452.539746 658.818538,-474.831747 658.818538,-474.831747 C658.818538,-474.831747 658.818538,-474.831747 658.818538,-474.831747 ZM645.897537,-405.217751C645.794536,-404.748749 645.685537,-404.462746 645.604535,-404.294747 C645.375535,-404.473748 645.066535,-404.803749 644.845537,-405.116745 C635.998536,-424.554749 634.698536,-439.603749 635.165536,-448.810746 C635.583537,-457.045746 637.452536,-462.198748 638.106536,-463.773747 C640.777536,-464.585747 644.669536,-465.308747 646.773536,-465.670748 C646.130536,-464.584748 645.555536,-463.456747 645.060537,-462.287747 C645.055536,-462.287747 645.051536,-462.288746 645.045535,-462.288746 C644.920535,-462.295748 644.795535,-462.298747 644.670535,-462.298747 C640.268537,-462.298747 636.685536,-458.715746 636.685536,-454.313748 C636.685536,-450.407746 639.501537,-447.151749 643.208536,-446.467747 C643.559535,-444.387749 644.138536,-442.356747 644.947536,-440.405747 C644.947536,-440.405747 645.055536,-440.450749 645.055536,-440.450749 C645.055536,-440.450749 645.055536,-440.096749 645.055536,-440.096749 C645.055536,-440.096749 641.461536,-440.096749 641.461536,-440.096749 C641.076536,-440.096749 640.767536,-439.787747 640.767536,-439.402749 C640.767536,-439.402749 640.767536,-435.447747 640.767536,-435.447747 C640.767536,-435.065747 641.077537,-434.753746 641.461536,-434.753746 C641.461536,-434.753746 645.055536,-434.753746 645.055536,-434.753746 C645.055536,-434.753746 645.055536,-431.160748 645.055536,-431.160748 C645.055536,-430.778748 645.364536,-430.465748 645.749536,-430.465748 C645.749536,-430.465748 649.703536,-430.465748 649.703536,-430.465748 C650.085536,-430.465748 650.398536,-430.778748 650.398536,-431.160748 C650.398536,-431.160748 650.398536,-431.910748 650.398536,-431.910748 C651.814536,-430.382748 653.384536,-429.028748 655.078536,-427.857747 C655.079536,-427.856747 655.081535,-427.855748 655.082538,-427.854748 C650.506536,-421.735749 648.289537,-413.610749 648.195537,-413.258744 C648.185537,-413.222748 648.193536,-413.187745 648.188537,-413.151749 C647.785537,-412.036744 646.713537,-408.916748 645.897537,-405.217751 C645.897537,-405.217751 645.897537,-405.217751 645.897537,-405.217751 ZM646.444536,-441.345745C646.444536,-441.345745 646.444536,-443.001748 646.444536,-443.001748 C646.444536,-443.001748 649.009536,-443.001748 649.009536,-443.001748 C649.009536,-443.001748 649.009536,-439.404747 649.009536,-439.404747 C649.009536,-439.023747 649.322536,-438.709748 649.703536,-438.709748 C649.703536,-438.709748 653.297536,-438.709748 653.297536,-438.709748 C653.297536,-438.709748 653.297536,-436.144749 653.297536,-436.144749 C653.297536,-436.144749 649.703536,-436.144749 649.703536,-436.144749 C649.322536,-436.144749 649.009536,-435.834748 649.009536,-435.450749 C649.009536,-435.450749 649.009536,-434.564747 649.009536,-434.564747 C649.009536,-434.564747 649.009536,-433.527749 649.009536,-433.527749 C649.009536,-433.527749 649.009536,-431.856747 649.009536,-431.856747 C649.009536,-431.856747 646.444536,-431.856747 646.444536,-431.856747 C646.444536,-431.856747 646.444536,-435.450749 646.444536,-435.450749 C646.444536,-435.835747 646.132535,-436.144749 645.750535,-436.144749 C645.750535,-436.144749 642.157537,-436.144749 642.157537,-436.144749 C642.157537,-436.144749 642.157537,-438.709748 642.157537,-438.709748 C642.157537,-438.709748 645.750535,-438.709748 645.750535,-438.709748 C646.132535,-438.709748 646.444536,-439.022747 646.444536,-439.404747 C646.444536,-439.404747 646.444536,-441.029747 646.444536,-441.029747 C646.444536,-441.029747 646.444536,-441.345745 646.444536,-441.345745 C646.444536,-441.345745 646.444536,-441.345745 646.444536,-441.345745 ZM671.417537,-417.610749C671.417537,-417.610749 670.717536,-417.610749 670.717536,-417.610749 C660.001537,-417.610749 653.284536,-415.824746 650.525537,-414.901749 C651.478536,-417.722748 653.484537,-422.85875 656.545535,-426.915749 C659.023536,-425.420746 661.729537,-424.30275 664.567535,-423.62175 C664.283534,-423.195748 664.015537,-422.782746 663.762535,-422.389748 C663.505535,-421.98375 663.623535,-421.449746 664.026534,-421.188744 C664.172534,-421.098748 664.335536,-421.05275 664.494537,-421.05275 C664.779537,-421.05275 665.060535,-421.196747 665.227535,-421.452744 C665.671535,-422.146744 666.175537,-422.906746 666.723537,-423.712746 C666.887535,-423.95575 666.917537,-424.265747 666.806537,-424.535744 C666.695537,-424.80275 666.455535,-425.000748 666.167537,-425.056748 C659.966537,-426.237748 654.370536,-429.611748 650.398536,-434.565747 C650.398536,-434.565747 650.398536,-434.756749 650.398536,-434.756749 C650.398536,-434.756749 653.991537,-434.756749 653.991537,-434.756749 C654.373535,-434.756749 654.685535,-435.068749 654.685535,-435.450749 C654.685535,-435.450749 654.685535,-439.405747 654.685535,-439.405747 C654.685535,-439.790749 654.373535,-440.099747 653.991537,-440.099747 C653.991537,-440.099747 650.398536,-440.099747 650.398536,-440.099747 C650.398536,-440.099747 650.398536,-443.696747 650.398536,-443.696747 C650.398536,-444.078747 650.085536,-444.390747 649.703536,-444.390747 C649.703536,-444.390747 645.749536,-444.390747 645.749536,-444.390747 C645.642536,-444.390747 645.541536,-444.366745 645.451536,-444.321747 C645.270536,-444.988747 645.121536,-445.661747 644.999536,-446.338746 C649.249536,-446.511746 652.654537,-450.022747 652.654537,-454.316746 C652.654537,-457.967747 650.189536,-461.054747 646.833536,-461.999747 C648.985536,-466.865748 652.567537,-470.993748 657.081535,-473.821747 C657.081535,-473.821747 657.081535,-452.539746 657.081535,-452.539746 C657.081535,-448.761746 658.552535,-445.209748 661.223537,-442.538746 C663.893535,-439.864747 667.447536,-438.391747 671.228538,-438.391747 C679.030536,-438.391747 685.375537,-444.738747 685.375537,-452.539746 C685.375537,-452.539746 685.375537,-473.812747 685.375537,-473.812747 C691.240535,-470.131747 695.417537,-464.367747 697.072536,-457.672749 C697.070537,-457.672749 697.069538,-457.673748 697.068538,-457.673748 C696.909534,-457.694748 696.746539,-457.708746 696.57954,-457.708746 C694.722537,-457.708746 693.211536,-456.198746 693.211536,-454.341748 C693.211536,-452.483746 694.722537,-450.973748 696.57954,-450.973748 C697.030536,-450.973748 697.461536,-451.063748 697.85754,-451.226746 C697.856532,-449.046746 697.580539,-446.894749 697.061534,-444.811749 C696.906536,-444.831746 696.744533,-444.845745 696.57954,-444.845745 C694.722537,-444.845745 693.211536,-443.335747 693.211536,-441.478749 C693.211536,-440.311749 693.813533,-439.280747 694.719539,-438.675747 C691.004535,-431.745747 684.279537,-426.704747 676.596538,-425.126748 C676.158534,-425.035744 675.863536,-424.629746 675.908534,-424.188744 C675.926536,-424.02575 675.984535,-423.876748 676.078536,-423.750748 C676.620536,-422.95575 677.120536,-422.202744 677.563537,-421.515747 C677.726535,-421.254746 678.008537,-421.116745 678.292537,-421.116745 C678.455535,-421.116745 678.614536,-421.157746 678.761535,-421.252747 C679.164535,-421.513749 679.282535,-422.046746 679.026534,-422.452744 C678.765537,-422.852745 678.491535,-423.27575 678.199535,-423.713746 C680.798538,-424.379746 683.278537,-425.41375 685.567535,-426.769749 C688.545535,-422.766747 690.511539,-417.750748 691.462535,-414.953751 C688.616535,-415.88675 681.945537,-417.610749 671.417537,-417.610749 C671.417537,-417.610749 671.417537,-417.610749 671.417537,-417.610749 ZM696.581539,-439.502747C696.540538,-439.502747 696.498538,-439.502747 696.459537,-439.509747 C696.151538,-439.527749 695.862537,-439.613747 695.609538,-439.759747 C695.007533,-440.099747 694.601535,-440.742749 694.601535,-441.478749 C694.601535,-442.572747 695.491535,-443.457749 696.580539,-443.457749 C697.671535,-443.457749 698.559535,-442.572747 698.559535,-441.478749 C698.560535,-440.387749 697.672534,-439.502747 696.581539,-439.502747 C696.581539,-439.502747 696.581539,-439.502747 696.581539,-439.502747 ZM696.581539,-452.361748C695.491535,-452.361748 694.602535,-453.250748 694.602535,-454.340748 C694.602535,-455.430748 695.492534,-456.319748 696.581539,-456.319748 C697.672534,-456.319748 698.560535,-455.430748 698.560535,-454.340748 C698.560535,-453.250748 697.672534,-452.361748 696.581539,-452.361748 C696.581539,-452.361748 696.581539,-452.361748 696.581539,-452.361748 ZM697.290538,-405.118744C697.067539,-404.803749 696.760539,-404.473748 696.530536,-404.295746 C696.450534,-404.464745 696.341533,-404.749749 696.237537,-405.21875 C695.234538,-409.763749 693.84354,-413.437745 693.785533,-413.591744 C693.757533,-413.665749 693.701534,-413.723748 693.660533,-413.790749 C693.096538,-415.709748 690.937534,-422.409745 687.040538,-427.697747 C687.043537,-427.698746 687.046535,-427.699746 687.048534,-427.701748 C690.94054,-430.326748 694.186534,-433.901749 696.387538,-438.120747 C696.453533,-438.117749 696.516536,-438.113747 696.581539,-438.113747 C698.438533,-438.113747 699.949535,-439.623745 699.949535,-441.477745 C699.949535,-442.536747 699.459537,-443.483746 698.692539,-444.098748 C698.687534,-444.101746 698.682536,-444.102745 698.678539,-444.106747 C698.922534,-445.044747 699.116535,-445.994748 699.263538,-446.956746 C699.265537,-446.949746 699.266536,-446.940747 699.268535,-446.932747 C699.268535,-446.932747 699.271533,-446.929749 699.268535,-446.925747 C699.696536,-445.550747 700.972537,-444.544747 702.490535,-444.544747 C704.347537,-444.544747 705.858539,-446.054749 705.858539,-447.912747 C705.858539,-449.766747 704.347537,-451.280747 702.490535,-451.280747 C701.222537,-451.280747 700.126537,-450.575749 699.543537,-449.544747 C699.543537,-449.544747 699.546535,-449.541748 699.543537,-449.537747 C699.541538,-449.533749 699.540538,-449.529747 699.538539,-449.524746 C699.571536,-450.092747 699.595539,-450.663746 699.595539,-451.235749 C699.595539,-451.722748 699.582538,-452.215748 699.556537,-452.744748 C699.556537,-452.744748 699.545535,-452.744748 699.545535,-452.744748 C699.545535,-452.744748 699.546535,-452.745747 699.546535,-452.746746 C699.803539,-453.222748 699.949535,-453.767746 699.949535,-454.343747 C699.949535,-455.207749 699.618534,-456.002747 699.078533,-456.599747 C699.078533,-456.599747 699.076534,-456.599747 699.076534,-456.600747 C699.076534,-456.600747 699.087535,-456.602745 699.087535,-456.602745 C698.469539,-459.837748 697.298534,-462.888747 695.668537,-465.654747 C697.724536,-465.287747 701.415538,-464.575747 704.028537,-463.777747 C704.682536,-462.199747 706.55154,-457.047749 706.969539,-448.813748 C707.437534,-439.604748 706.135539,-424.556748 697.290538,-405.118744 C697.290538,-405.118744 697.290538,-405.118744 697.290538,-405.118744 ZM700.511539,-447.910748C700.511539,-449.000748 701.400539,-449.889748 702.490535,-449.889748 C703.584537,-449.889748 704.469539,-449.000748 704.469539,-447.910748 C704.469539,-446.816746 703.583537,-445.931748 702.490535,-445.931748 C701.400539,-445.931748 700.511539,-446.817746 700.511539,-447.910748 C700.511539,-447.910748 700.511539,-447.910748 700.511539,-447.910748 Z" fill="#fefefe"/>
			</g>
			<g>
				<path d="M690.672534,-444.543747C692.529537,-444.543747 694.040538,-446.053746 694.040538,-447.911747 C694.040538,-449.765747 692.529537,-451.279747 690.672534,-451.279747 C688.816539,-451.279747 687.305538,-449.765747 687.305538,-447.911747 C687.304538,-446.053746 688.81554,-444.543747 690.672534,-444.543747 C690.672534,-444.543747 690.672534,-444.543747 690.672534,-444.543747 ZM690.672534,-449.889748C691.762538,-449.889748 692.651538,-449.000748 692.651538,-447.910748 C692.651538,-446.816746 691.762538,-445.931748 690.672534,-445.931748 C689.582538,-445.931748 688.693538,-446.816746 688.693538,-447.910748 C688.693538,-449.001748 689.582538,-449.889748 690.672534,-449.889748 C690.672534,-449.889748 690.672534,-449.889748 690.672534,-449.889748 Z" fill="#fefefe"/>
			</g>
			<g>
				<path d="M672.101535,-428.284748C671.938537,-428.496746 671.684535,-428.621746 671.414535,-428.621746 C671.146537,-428.621746 670.893535,-428.496746 670.729537,-428.284748 C670.563537,-428.073746 666.702537,-423.06675 665.747535,-420.712746 C665.594535,-420.341744 665.720535,-419.91375 666.046535,-419.682747 C666.254535,-419.532746 667.487537,-418.799744 671.414535,-418.799744 C675.343536,-418.799744 676.572536,-419.531746 676.782535,-419.682747 C677.107536,-419.91375 677.233535,-420.341744 677.084537,-420.712746 C676.129535,-423.06675 672.264537,-428.073746 672.101535,-428.284748 C672.101535,-428.284748 672.101535,-428.284748 672.101535,-428.284748 ZM671.414535,-420.535744C669.539535,-420.535744 668.396537,-420.712746 667.747535,-420.87275 C668.653537,-422.549744 670.434535,-425.003746 671.414535,-426.312748 C672.393535,-425.002747 674.173538,-422.548745 675.083537,-420.87275 C674.434535,-420.712746 673.289535,-420.535744 671.414535,-420.535744 C671.414535,-420.535744 671.414535,-420.535744 671.414535,-420.535744 Z" fill="#fefefe"/>
			</g>
			<g>
				<path d="M644.670535,-459.784747C641.657537,-459.784747 639.202537,-457.329747 639.202537,-454.316746 C639.202537,-451.299748 641.657537,-448.848748 644.670535,-448.848748 C647.683536,-448.848748 650.138536,-451.299748 650.138536,-454.316746 C650.138536,-457.329747 647.683536,-459.784747 644.670535,-459.784747 C644.670535,-459.784747 644.670535,-459.784747 644.670535,-459.784747 ZM644.670535,-450.237748C642.420535,-450.237748 640.590536,-452.067746 640.590536,-454.316746 C640.590536,-456.563748 642.420535,-458.396748 644.670535,-458.396748 C646.920535,-458.396748 648.749536,-456.563748 648.749536,-454.316746 C648.749536,-452.066746 646.920535,-450.237748 644.670535,-450.237748 C644.670535,-450.237748 644.670535,-450.237748 644.670535,-450.237748 Z" fill="#fefefe"/>
			</g>
			<g>
				<path d="M664.289535,-449.664746C664.289535,-449.664746 677.822536,-449.664746 677.822536,-449.664746 C678.552535,-449.664746 679.145538,-450.258748 679.145538,-450.987748 C679.145538,-450.987748 679.145538,-463.110747 679.145538,-463.110747 C679.145538,-463.836747 678.552535,-464.429747 677.822536,-464.429747 C677.822536,-464.429747 664.289535,-464.429747 664.289535,-464.429747 C663.560535,-464.429747 662.967536,-463.835747 662.967536,-463.110747 C662.967536,-463.110747 662.967536,-450.986748 662.967536,-450.986748 C662.967536,-450.258748 663.560535,-449.664746 664.289535,-449.664746 C664.289535,-449.664746 664.289535,-449.664746 664.289535,-449.664746 ZM664.356536,-463.041747C664.356536,-463.041747 677.757537,-463.041747 677.757537,-463.041747 C677.757537,-463.041747 677.757537,-451.053746 677.757537,-451.053746 C677.757537,-451.053746 664.356536,-451.053746 664.356536,-451.053746 C664.356536,-451.053746 664.356536,-463.041747 664.356536,-463.041747 C664.356536,-463.041747 664.356536,-463.041747 664.356536,-463.041747 Z" fill="#ffffff"/>
			</g>
			<g>
				<path d="M679.545535,-447.963746C680.360538,-447.963746 681.024536,-448.626748 681.024536,-449.445748 C681.024536,-449.445748 681.024536,-464.652747 681.024536,-464.652747 C681.024536,-464.756747 681.004535,-464.857747 680.959537,-464.951746 C680.810535,-465.260746 679.274536,-467.982747 671.203536,-467.982747 C663.474536,-467.982747 661.312538,-465.184748 661.225536,-465.065747 C661.135536,-464.943747 661.089538,-464.801747 661.089538,-464.652747 C661.089538,-464.652747 661.089538,-449.445748 661.089538,-449.445748 C661.089538,-448.626748 661.752536,-447.963746 662.568538,-447.963746 C662.568538,-447.963746 679.545535,-447.963746 679.545535,-447.963746 C679.545535,-447.963746 679.545535,-447.963746 679.545535,-447.963746 ZM662.477535,-449.445748C662.477535,-449.445748 662.477535,-464.374747 662.477535,-464.374747 C663.029537,-464.892746 665.300537,-466.593747 671.202537,-466.593747 C677.496536,-466.593747 679.291538,-464.864747 679.635536,-464.444746 C679.635536,-464.444746 679.635536,-449.445748 679.635536,-449.445748 C679.635536,-449.393746 679.598537,-449.352745 679.545535,-449.352745 C679.545535,-449.352745 662.567535,-449.352745 662.567535,-449.352745 C662.515537,-449.351746 662.477535,-449.393746 662.477535,-449.445748 C662.477535,-449.445748 662.477535,-449.445748 662.477535,-449.445748 Z" fill="#fefefe"/>
			</g>
			<g>
				<path d="M666.605537,-469.026747C666.605537,-469.026747 675.507537,-469.026747 675.507537,-469.026747 C676.534538,-469.026747 676.613536,-469.630747 676.613536,-469.818747 C676.613536,-469.818747 676.613536,-471.714747 676.613536,-471.714747 C676.613536,-471.898747 676.534538,-472.502747 675.507537,-472.502747 C675.507537,-472.502747 674.812538,-472.502747 674.812538,-472.502747 C674.812538,-472.502747 674.812538,-473.829748 674.812538,-473.829748 C674.812538,-474.759747 674.441535,-475.634747 673.767536,-476.287747 C673.100536,-476.940748 672.212535,-477.301747 671.271537,-477.301747 C669.316535,-477.301747 667.727535,-475.742747 667.727535,-473.829748 C667.727535,-473.829748 667.727535,-472.502747 667.727535,-472.502747 C667.727535,-472.502747 666.605537,-472.502747 666.605537,-472.502747 C665.577537,-472.502747 665.497535,-471.898747 665.497535,-471.714747 C665.497535,-471.714747 665.497535,-469.818747 665.497535,-469.818747 C665.497535,-469.630747 665.577537,-469.026747 666.605537,-469.026747 C666.605537,-469.026747 666.605537,-469.026747 666.605537,-469.026747 ZM666.886535,-471.113747C666.886535,-471.113747 668.421535,-471.113747 668.421535,-471.113747 C668.806537,-471.113747 669.115535,-471.425747 669.115535,-471.807747 C669.115535,-471.807747 669.115535,-473.828747 669.115535,-473.828747 C669.115535,-474.977747 670.080535,-475.911747 671.271537,-475.911747 C671.848537,-475.911747 672.393535,-475.693747 672.798538,-475.293747 C673.201538,-474.900748 673.424537,-474.380747 673.424537,-473.828747 C673.424537,-473.828747 673.424537,-471.807747 673.424537,-471.807747 C673.424537,-471.425747 673.736537,-471.113747 674.117538,-471.113747 C674.117538,-471.113747 675.224536,-471.113747 675.224536,-471.113747 C675.224536,-471.113747 675.224536,-470.415747 675.224536,-470.415747 C675.224536,-470.415747 666.885536,-470.415747 666.885536,-470.415747 C666.885536,-470.415747 666.885536,-471.113747 666.885536,-471.113747 C666.885536,-471.113747 666.886535,-471.113747 666.886535,-471.113747 Z" fill="#fefefe"/>
			</g>
		</g>
	</g>
	<g>
		<g transform="matrix(1,0,0,1,391.455054703,917.85364625)">
			<g>
				<path d="M665.052527,-453.273747C665.033529,-453.344746 665.00453,-453.409748 664.975523,-453.474747 C664.161528,-459.599747 659.499525,-464.430746 653.670523,-465.124747 C640.956526,-470.460747 629.739527,-470.177748 622.555525,-468.992747 C615.636526,-467.851748 611.098526,-465.721747 609.977526,-465.156746 C603.919527,-464.585747 599.057526,-459.552748 598.339526,-453.187748 C598.070526,-452.151749 595.756526,-442.842747 595.677527,-428.713746 C595.638526,-421.785744 596.932527,-417.16475 599.524527,-414.979744 C600.941527,-413.784745 602.329527,-413.683747 602.957527,-413.711747 C603.082527,-413.69175 603.228527,-413.676751 603.395527,-413.676751 C603.856526,-413.676751 604.464527,-413.787751 605.138527,-414.199746 C607.796526,-415.827744 609.605526,-421.105744 610.517527,-429.898747 C610.712526,-431.944748 611.092526,-434.388749 611.428526,-435.477745 C611.533526,-435.244748 611.600527,-435.044747 611.639526,-434.905747 C611.643526,-434.884747 611.647526,-434.860749 611.653526,-434.838746 C611.653526,-434.838746 611.682526,-434.711747 611.682526,-434.711747 C611.687527,-434.686749 611.693527,-434.660748 611.699526,-434.631749 C611.703526,-434.612748 611.707527,-434.594746 611.712526,-434.575749 C612.738527,-430.304749 616.371527,-427.322747 620.548525,-427.322747 C625.575525,-427.322747 629.664526,-431.643746 629.664526,-436.955746 C629.664526,-440.247746 628.114527,-443.255745 625.508528,-445.037747 C625.436525,-445.096749 625.358526,-445.148747 625.275526,-445.192746 C625.275526,-445.192746 625.266527,-445.196747 625.266527,-445.196747 C625.265528,-445.196747 625.264525,-445.197747 625.263525,-445.198746 C627.873526,-445.797749 632.874525,-446.546746 638.133528,-445.227745 C638.117525,-445.216748 638.101526,-445.206746 638.084528,-445.196747 C638.084528,-445.196747 637.991526,-445.139748 637.991526,-445.139748 C637.957525,-445.118748 637.925528,-445.095745 637.892527,-445.071747 C635.255526,-443.293747 633.685526,-440.268746 633.685526,-436.954747 C633.685526,-431.642746 637.774527,-427.321747 642.802527,-427.321747 C646.978529,-427.321747 650.612524,-430.303746 651.639525,-434.574746 C651.64353,-434.595745 651.648527,-434.617749 651.652525,-434.637749 C651.658529,-434.661747 651.663527,-434.686749 651.668524,-434.709748 C651.668524,-434.709748 651.697523,-434.836747 651.697523,-434.836747 C651.701529,-434.855748 651.705526,-434.874749 651.708525,-434.893746 C651.752524,-435.050747 651.829527,-435.284748 651.959524,-435.557747 C652.301527,-434.516747 652.696524,-431.996746 652.897528,-429.885746 C653.808523,-421.103745 655.618528,-415.824746 658.276526,-414.197747 C658.950529,-413.785744 659.558523,-413.674744 660.01853,-413.674744 C660.18553,-413.674744 660.332525,-413.690751 660.456526,-413.709748 C661.08853,-413.681748 662.472525,-413.781746 663.890524,-414.977745 C666.481527,-417.16375 667.776526,-421.784745 667.737524,-428.711747 C667.655523,-443.395749 665.15753,-452.877747 665.052527,-453.273747 C665.052527,-453.273747 665.052527,-453.273747 665.052527,-453.273747 ZM603.402527,-416.442749C603.208527,-416.494744 603.006527,-416.502747 602.808527,-416.466744 C602.802527,-416.466744 602.101526,-416.421746 601.308527,-417.091744 C600.220526,-418.009751 598.399527,-420.738747 598.444527,-428.695748 C598.482527,-435.501748 599.065527,-441.208748 599.669527,-445.336747 C601.279526,-442.011746 604.146526,-439.429749 607.698527,-438.392746 C607.711527,-438.389748 607.741526,-438.380745 607.761526,-438.374749 C607.761526,-438.374749 608.111527,-438.275746 608.111527,-438.275746 C608.113527,-438.275746 608.115526,-438.274746 608.117527,-438.273747 C608.634527,-438.111748 609.074526,-437.905747 609.454527,-437.673748 C608.903526,-436.967747 608.243527,-435.192746 607.765526,-430.170746 C606.440527,-417.401749 603.627527,-416.490746 603.402527,-416.442749 C603.402527,-416.442749 603.402527,-416.442749 603.402527,-416.442749 ZM626.897528,-436.954747C626.897528,-433.168747 624.048525,-430.088746 620.547526,-430.088746 C617.673525,-430.088746 615.160528,-432.171746 614.415526,-435.161747 C614.318527,-435.704747 613.483526,-439.487748 608.964527,-440.909748 C608.923527,-440.923748 608.882527,-440.936749 608.840527,-440.947747 C608.706526,-440.987748 608.570526,-441.025746 608.430527,-441.061749 C608.429527,-441.061749 608.428526,-441.061749 608.426527,-441.062748 C604.058527,-442.361748 601.012526,-446.669747 601.012526,-451.558747 C601.012526,-457.561749 605.550526,-462.446747 611.127527,-462.446747 C616.708525,-462.446747 621.248526,-457.562748 621.248526,-451.558747 C621.248526,-451.158749 621.227526,-450.758748 621.185526,-450.370747 C621.185526,-450.370747 621.174528,-450.292748 621.174528,-450.292748 C621.171526,-450.274746 621.169527,-450.256749 621.167528,-450.238747 C621.158526,-450.169747 621.147528,-450.078747 621.136526,-449.970745 C621.136526,-449.970745 621.120527,-449.843747 621.120527,-449.843747 C621.120527,-449.843747 621.120527,-449.843747 621.120527,-449.843747 C621.120527,-449.843747 621.118525,-449.820748 621.118525,-449.820748 C621.113527,-449.772747 621.110525,-449.724747 621.110525,-449.677746 C620.990526,-448.091748 621.068525,-444.801747 623.450525,-443.076748 C623.471525,-443.060746 623.492525,-443.045746 623.514525,-443.030747 C623.525526,-443.023747 623.536528,-443.015747 623.547526,-443.007748 C623.653528,-442.935746 623.763525,-442.865746 623.878527,-442.799748 C625.768526,-441.540749 626.897528,-439.358746 626.897528,-436.954747 C626.897528,-436.954747 626.897528,-436.954747 626.897528,-436.954747 ZM623.911528,-447.720745C623.825525,-448.350747 623.823527,-449.013749 623.880526,-449.621746 C623.889525,-449.677746 623.898527,-449.738747 623.903528,-449.803746 C623.909525,-449.844746 623.914526,-449.885746 623.917528,-449.925747 C623.917528,-449.925747 623.929526,-450.024746 623.929526,-450.024746 C623.932528,-450.045746 623.934527,-450.066746 623.935526,-450.087746 C623.986525,-450.569748 624.013525,-451.064747 624.013525,-451.558747 C624.013525,-457.465748 620.454527,-462.506747 615.490526,-464.405747 C617.474527,-465.071747 620.059527,-465.782748 623.124525,-466.280747 C628.994528,-467.234747 637.712526,-467.546748 647.744528,-464.359747 C642.841528,-462.426747 639.337526,-457.418747 639.337526,-451.557747 C639.337526,-451.065747 639.363527,-450.574746 639.414526,-450.096749 C639.416525,-450.072747 639.418528,-450.048748 639.421526,-450.023747 C639.421526,-450.023747 639.434527,-449.924748 639.434527,-449.924748 C639.437525,-449.883748 639.442526,-449.843747 639.449526,-449.802746 C639.454527,-449.736748 639.463526,-449.676747 639.471525,-449.619748 C639.528528,-449.018746 639.527525,-448.364747 639.443525,-447.740746 C632.850527,-449.584748 626.639525,-448.428746 623.911528,-447.720745 C623.911528,-447.720745 623.911528,-447.720745 623.911528,-447.720745 ZM648.934523,-435.157746C648.187529,-432.169747 645.674528,-430.088746 642.803526,-430.088746 C639.301527,-430.088746 636.452528,-433.168747 636.452528,-436.954747 C636.452528,-439.358746 637.581526,-441.540749 639.473528,-442.799748 C639.577528,-442.860749 639.680525,-442.924748 639.779528,-442.991745 C639.817526,-443.014748 639.855528,-443.039746 639.890528,-443.067746 C639.908526,-443.080746 639.926527,-443.093747 639.943525,-443.108746 C642.285528,-444.841748 642.361525,-448.102745 642.241526,-449.678746 C642.241526,-449.725747 642.238527,-449.773747 642.233526,-449.821747 C642.233526,-449.821747 642.215525,-449.969746 642.215525,-449.969746 C642.203528,-450.076748 642.193525,-450.166748 642.184527,-450.236748 C642.182528,-450.255745 642.180525,-450.274746 642.177527,-450.294747 C642.177527,-450.294747 642.165526,-450.369748 642.165526,-450.369748 C642.123526,-450.757748 642.102526,-451.157746 642.102526,-451.559746 C642.102526,-457.562748 646.642527,-462.447747 652.223524,-462.447747 C657.800528,-462.447747 662.33753,-457.563748 662.33753,-451.559746 C662.33753,-446.671746 659.292524,-442.364747 654.926527,-441.063748 C654.923529,-441.063748 654.92153,-441.062748 654.918524,-441.062748 C649.918524,-439.777749 649.030523,-435.701748 648.934523,-435.157746 C648.934523,-435.157746 648.934523,-435.157746 648.934523,-435.157746 ZM662.196524,-417.170746C661.410528,-416.461747 660.717528,-416.465744 660.586523,-416.472748 C660.371527,-416.522744 660.19953,-416.505745 660.00453,-416.445748 C659.733526,-416.509751 656.961523,-417.52475 655.651526,-430.160748 C655.165526,-435.259747 654.493528,-437.014748 653.937529,-437.704747 C654.308523,-437.923748 654.736525,-438.119748 655.233526,-438.275746 C655.235525,-438.276749 655.237524,-438.277749 655.239523,-438.277749 C655.239523,-438.277749 655.58753,-438.376748 655.58753,-438.376748 C655.592528,-438.377747 655.596525,-438.378746 655.60153,-438.380745 C655.619528,-438.384747 655.636526,-438.390747 655.653525,-438.394749 C659.243528,-439.442746 662.132528,-442.068749 663.733526,-445.444748 C664.341528,-441.313748 664.933523,-435.570748 664.971525,-428.698746 C665.014525,-420.884751 663.251524,-418.12275 662.196524,-417.170746 C662.196524,-417.170746 662.196524,-417.170746 662.196524,-417.170746 Z" fill="#fefefe"/>
			</g>
			<g>
				<path d="M616.833525,-452.188748C616.833525,-452.188748 615.166525,-456.069748 615.166525,-456.069748 C615.094526,-456.237748 614.958525,-456.371746 614.787527,-456.439747 C614.787527,-456.439747 610.864527,-458.006747 610.864527,-458.006747 C610.694527,-458.074747 610.504526,-458.071747 610.335526,-457.999747 C610.335526,-457.999747 606.454527,-456.332749 606.454527,-456.332749 C606.285526,-456.260746 606.152527,-456.124749 606.084526,-455.953747 C606.084526,-455.953747 604.518526,-452.030747 604.518526,-452.030747 C604.450527,-451.860749 604.453526,-451.669747 604.525526,-451.501748 C604.525526,-451.501748 606.191527,-447.618748 606.191527,-447.618748 C606.263527,-447.450749 606.399527,-447.317746 606.570526,-447.249749 C606.570526,-447.249749 610.493527,-445.683747 610.493527,-445.683747 C610.575527,-445.650746 610.662527,-445.634747 610.749527,-445.634747 C610.842526,-445.634747 610.935526,-445.653748 611.022526,-445.690747 C611.022526,-445.690747 614.903528,-447.356747 614.903528,-447.356747 C615.072527,-447.428746 615.204527,-447.564747 615.273527,-447.735749 C615.273527,-447.735749 616.840525,-451.658749 616.840525,-451.658749 C616.908526,-451.828747 616.905527,-452.019749 616.833525,-452.188748 C616.833525,-452.188748 616.833525,-452.188748 616.833525,-452.188748 ZM614.094526,-448.514748C614.094526,-448.514748 610.739527,-447.075749 610.739527,-447.075749 C610.739527,-447.075749 607.348526,-448.429749 607.348526,-448.429749 C607.348526,-448.429749 605.909527,-451.784748 605.909527,-451.784748 C605.909527,-451.784748 607.263527,-455.175747 607.263527,-455.175747 C607.263527,-455.175747 610.618527,-456.615746 610.618527,-456.615746 C610.618527,-456.615746 614.009527,-455.261746 614.009527,-455.261746 C614.009527,-455.261746 615.449526,-451.906746 615.449526,-451.906746 C615.449526,-451.906746 614.094526,-448.514748 614.094526,-448.514748 C614.094526,-448.514748 614.094526,-448.514748 614.094526,-448.514748 Z" fill="#fefefe"/>
			</g>
			<g>
				<path d="M646.903525,-440.494748C646.831526,-440.662747 646.694525,-440.796746 646.524527,-440.864747 C646.524527,-440.864747 642.990526,-442.276749 642.990526,-442.276749 C642.820528,-442.344746 642.630526,-442.341748 642.461527,-442.269749 C642.461527,-442.269749 638.963526,-440.768746 638.963526,-440.768746 C638.794527,-440.696747 638.662527,-440.560746 638.594526,-440.389748 C638.594526,-440.389748 637.183527,-436.856747 637.183527,-436.856747 C637.115526,-436.685746 637.118525,-436.495747 637.190527,-436.327748 C637.190527,-436.327748 638.691527,-432.829747 638.691527,-432.829747 C638.763525,-432.660748 638.899527,-432.528748 639.070528,-432.459748 C639.070528,-432.459748 642.603525,-431.049748 642.603525,-431.049748 C642.685526,-431.016747 642.773527,-430.999749 642.861525,-430.999749 C642.953528,-430.999749 643.046526,-431.018746 643.133528,-431.056748 C643.133528,-431.056748 646.630526,-432.557747 646.630526,-432.557747 C646.798525,-432.628746 646.931524,-432.765747 646.999525,-432.935746 C646.999525,-432.935746 648.411528,-436.469746 648.411528,-436.469746 C648.47753,-436.640747 648.475523,-436.830746 648.403525,-436.998745 C648.403525,-436.998745 646.903525,-440.494748 646.903525,-440.494748 C646.903525,-440.494748 646.903525,-440.494748 646.903525,-440.494748 ZM645.820528,-433.713746C645.820528,-433.713746 642.849527,-432.438748 642.849527,-432.438748 C642.849527,-432.438748 639.848528,-433.638749 639.848528,-433.638749 C639.848528,-433.638749 638.573527,-436.608746 638.573527,-436.608746 C638.573527,-436.608746 639.772528,-439.610749 639.772528,-439.610749 C639.772528,-439.610749 642.742525,-440.885746 642.742525,-440.885746 C642.742525,-440.885746 645.745527,-439.686749 645.745527,-439.686749 C645.745527,-439.686749 647.019529,-436.716748 647.019529,-436.716748 C647.019529,-436.716748 645.820528,-433.713746 645.820528,-433.713746 C645.820528,-433.713746 645.820528,-433.713746 645.820528,-433.713746 Z" fill="#fefefe"/>
			</g>
			<g>
				<path d="M610.679527,-456.039746C608.366526,-456.039746 606.485527,-454.157746 606.485527,-451.844746 C606.485527,-449.532746 608.366526,-447.650746 610.679527,-447.650746 C612.991526,-447.650746 614.873526,-449.532746 614.873526,-451.844746 C614.873526,-454.157746 612.991526,-456.039746 610.679527,-456.039746 C610.679527,-456.039746 610.679527,-456.039746 610.679527,-456.039746 ZM610.679527,-449.033749C609.129526,-449.033749 607.868527,-450.294747 607.868527,-451.844746 C607.868527,-453.394749 609.129526,-454.656746 610.679527,-454.656746 C612.229527,-454.656746 613.490526,-453.395749 613.490526,-451.844746 C613.490526,-450.293747 612.228527,-449.033749 610.679527,-449.033749 C610.679527,-449.033749 610.679527,-449.033749 610.679527,-449.033749 Z" fill="#fefefe"/>
			</g>
			<g>
				<path d="M656.883528,-452.457749C656.883528,-454.896748 654.899527,-456.881749 652.459524,-456.881749 C650.019529,-456.881749 648.034529,-454.896748 648.034529,-452.457749 C648.034529,-450.017746 650.019529,-448.033749 652.459524,-448.033749 C654.899527,-448.033749 656.883528,-450.017746 656.883528,-452.457749 C656.883528,-452.457749 656.883528,-452.457749 656.883528,-452.457749 ZM652.459524,-449.416748C650.781523,-449.416748 649.418524,-450.780747 649.418524,-452.457749 C649.418524,-454.134747 650.781523,-455.498745 652.459524,-455.498745 C654.136526,-455.498745 655.500525,-454.134747 655.500525,-452.457749 C655.500525,-450.780747 654.136526,-449.416748 652.459524,-449.416748 C652.459524,-449.416748 652.459524,-449.416748 652.459524,-449.416748 Z" fill="#fefefe"/>
			</g>
			<g>
				<path d="M646.055525,-450.602745C644.448527,-450.602745 643.140528,-449.294747 643.140528,-447.687748 C643.140528,-446.079747 644.448527,-444.771748 646.055525,-444.771748 C647.662527,-444.771748 648.970526,-446.079747 648.970526,-447.687748 C648.970526,-449.294747 647.662527,-450.602745 646.055525,-450.602745 C646.055525,-450.602745 646.055525,-450.602745 646.055525,-450.602745 ZM646.055525,-446.154747C645.210528,-446.154747 644.524527,-446.842747 644.524527,-447.687748 C644.524527,-448.531746 645.211527,-449.219746 646.055525,-449.219746 C646.899527,-449.219746 647.58753,-448.531746 647.58753,-447.687748 C647.58753,-446.842747 646.899527,-446.154747 646.055525,-446.154747 C646.055525,-446.154747 646.055525,-446.154747 646.055525,-446.154747 Z" fill="#fefefe"/>
			</g>
			<g>
				<path d="M631.610525,-454.990746C630.274527,-454.990746 629.187525,-453.903748 629.187525,-452.567746 C629.187525,-451.232747 630.274527,-450.145749 631.610525,-450.145749 C632.945528,-450.145749 634.032526,-451.232747 634.032526,-452.567746 C634.032526,-453.903748 632.945528,-454.990746 631.610525,-454.990746 C631.610525,-454.990746 631.610525,-454.990746 631.610525,-454.990746 ZM631.610525,-451.528748C631.037527,-451.528748 630.570528,-451.994748 630.570528,-452.567746 C630.570528,-453.140747 631.037527,-453.607747 631.610525,-453.607747 C632.183527,-453.607747 632.649527,-453.141747 632.649527,-452.567746 C632.649527,-451.994748 632.183527,-451.528748 631.610525,-451.528748 C631.610525,-451.528748 631.610525,-451.528748 631.610525,-451.528748 Z" fill="#fefefe"/>
			</g>
			<g>
				<path d="M642.796526,-439.708748C641.116526,-439.708748 639.750525,-438.342747 639.750525,-436.662747 C639.750525,-434.982747 641.116526,-433.615746 642.796526,-433.615746 C644.476526,-433.615746 645.843527,-434.982747 645.843527,-436.662747 C645.843527,-438.342747 644.476526,-439.708748 642.796526,-439.708748 C642.796526,-439.708748 642.796526,-439.708748 642.796526,-439.708748 ZM642.796526,-434.999749C641.879526,-434.999749 641.133528,-435.745747 641.133528,-436.662747 C641.133528,-437.578747 641.879526,-438.325749 642.796526,-438.325749 C643.713526,-438.325749 644.460528,-437.578747 644.460528,-436.662747 C644.460528,-435.745747 643.713526,-434.999749 642.796526,-434.999749 C642.796526,-434.999749 642.796526,-434.999749 642.796526,-434.999749 Z" fill="#fefefe"/>
			</g>
			<g>
				<path d="M648.439528,-456.361748C648.829527,-456.361748 649.184523,-456.527749 649.636526,-456.735749 C650.012526,-456.909748 650.480528,-457.126748 651.111525,-457.317746 C651.75453,-457.511746 652.328528,-457.544747 652.836523,-457.572747 C653.706526,-457.621746 655.021528,-457.696747 654.951529,-459.419747 C654.912527,-460.418747 654.148527,-461.484747 652.123526,-461.484747 C651.451529,-461.484747 650.69953,-461.364747 649.948523,-461.137747 C648.35153,-460.654747 647.288527,-459.875748 646.954527,-458.943747 C646.803526,-458.520747 646.726526,-457.860747 647.224524,-457.116745 C647.349524,-456.929749 647.729529,-456.361748 648.439528,-456.361748 C648.439528,-456.361748 648.439528,-456.361748 648.439528,-456.361748 ZM648.256529,-458.476748C648.394529,-458.857747 649.015524,-459.409747 650.349524,-459.812746 C650.972525,-460.000748 651.584524,-460.100747 652.123526,-460.100747 C652.652525,-460.100747 653.545523,-460.005747 653.569525,-459.363747 C653.579527,-459.142746 653.548529,-459.057747 653.552527,-459.053748 C653.450529,-458.991747 653.051527,-458.969748 652.757528,-458.952748 C652.202528,-458.921748 651.511526,-458.882748 650.710524,-458.640747 C649.986525,-458.421748 649.447523,-458.171748 649.055525,-457.990748 C648.848524,-457.894747 648.595526,-457.777747 648.47753,-457.750748 C648.455526,-457.772747 648.420523,-457.813748 648.373526,-457.885746 C648.184523,-458.169747 648.21253,-458.350747 648.256529,-458.476748 C648.256529,-458.476748 648.256529,-458.476748 648.256529,-458.476748 Z" fill="#fefefe"/>
			</g>
			<g>
				<path d="M657.539526,-453.641747C657.74153,-453.000748 657.780523,-452.426747 657.815527,-451.918747 C657.875525,-451.033749 657.957525,-449.819748 659.519529,-449.819748 C659.572523,-449.819748 659.626524,-449.820748 659.68553,-449.823746 C660.323523,-449.856747 660.85153,-450.147747 661.210524,-450.664746 C661.836523,-451.565747 661.887526,-453.129746 661.346525,-454.846749 C660.731527,-456.800747 659.691527,-457.921748 658.493528,-457.921748 C658.081526,-457.921748 657.678526,-457.788746 657.295523,-457.525746 C656.159529,-456.748745 656.57453,-455.877747 656.941527,-455.109745 C657.119528,-454.735749 657.341528,-454.270749 657.539526,-453.641747 C657.539526,-453.641747 657.539526,-453.641747 657.539526,-453.641747 ZM658.077528,-456.384747C658.22653,-456.487748 658.36653,-456.538746 658.494528,-456.538746 C658.927527,-456.538746 659.569525,-455.887749 660.027525,-454.432747 C660.483526,-452.984745 660.38053,-451.893746 660.075529,-451.454747 C659.96253,-451.290749 659.823523,-451.215748 659.61553,-451.205746 C659.434523,-451.195748 659.322523,-451.220745 659.306524,-451.220745 C659.305525,-451.220745 659.304526,-451.220745 659.304526,-451.220745 C659.24153,-451.322747 659.214529,-451.720745 659.195524,-452.013749 C659.15753,-452.568749 659.110525,-453.259747 658.859526,-454.057747 C658.631529,-454.778748 658.377524,-455.314747 658.190527,-455.705746 C658.091528,-455.911747 657.972525,-456.161747 657.943525,-456.280747 C657.966528,-456.301747 658.007528,-456.336747 658.077528,-456.384747 C658.077528,-456.384747 658.077528,-456.384747 658.077528,-456.384747 Z" fill="#fefefe"/>
			</g>
			<g>
				<path d="M622.391527,-438.969746C622.391527,-438.969746 622.391527,-441.200749 622.391527,-441.200749 C622.391527,-441.582749 622.080526,-441.892746 621.699526,-441.892746 C621.699526,-441.892746 619.004526,-441.892746 619.004526,-441.892746 C618.623526,-441.892746 618.313528,-441.582749 618.313528,-441.200749 C618.313528,-441.200749 618.313528,-438.969746 618.313528,-438.969746 C618.313528,-438.969746 616.083525,-438.969746 616.083525,-438.969746 C615.701525,-438.969746 615.391527,-438.659748 615.391527,-438.278748 C615.391527,-438.278748 615.391527,-435.584748 615.391527,-435.584748 C615.391527,-435.202748 615.701525,-434.893746 616.083525,-434.893746 C616.083525,-434.893746 618.313528,-434.893746 618.313528,-434.893746 C618.313528,-434.893746 618.313528,-432.662747 618.313528,-432.662747 C618.313528,-432.280747 618.623526,-431.972748 619.004526,-431.972748 C619.004526,-431.972748 621.699526,-431.972748 621.699526,-431.972748 C622.080526,-431.972748 622.391527,-432.281746 622.391527,-432.662747 C622.391527,-432.662747 622.391527,-434.893746 622.391527,-434.893746 C623.253527,-434.893746 624.621527,-434.892746 624.620527,-434.893746 C625.002527,-434.893746 625.312525,-435.203747 625.312525,-435.584748 C625.312525,-435.584748 625.312525,-438.278748 625.312525,-438.278748 C625.312525,-438.660748 625.002527,-438.969746 624.620527,-438.969746 C624.620527,-438.969746 622.391527,-438.969746 622.391527,-438.969746 C622.391527,-438.969746 622.391527,-438.969746 622.391527,-438.969746 ZM623.929526,-436.275746C623.929526,-436.275746 622.155527,-436.275746 622.155527,-436.275746 C621.617525,-436.275746 621.008528,-436.275746 621.008528,-435.584748 C621.008528,-435.584748 621.008528,-433.353749 621.008528,-433.353749 C621.008528,-433.353749 619.696528,-433.353749 619.696528,-433.353749 C619.696528,-433.353749 619.696528,-435.584748 619.696528,-435.584748 C619.696528,-435.966748 619.386526,-436.275746 619.004526,-436.275746 C619.004526,-436.275746 616.774527,-436.275746 616.774527,-436.275746 C616.774527,-436.275746 616.774527,-437.587746 616.774527,-437.587746 C616.774527,-437.587746 619.004526,-437.587746 619.004526,-437.587746 C619.386526,-437.587746 619.696528,-437.897747 619.696528,-438.278748 C619.696528,-438.278748 619.696528,-440.509747 619.696528,-440.509747 C619.696528,-440.509747 621.008528,-440.509747 621.008528,-440.509747 C621.008528,-440.509747 621.008528,-438.278748 621.008528,-438.278748 C621.008528,-437.896748 621.318525,-437.587746 621.699526,-437.587746 C621.699526,-437.587746 623.929526,-437.587746 623.929526,-437.587746 C623.929526,-437.587746 623.929526,-436.275746 623.929526,-436.275746 C623.929526,-436.275746 623.929526,-436.275746 623.929526,-436.275746 Z" fill="#fefefe"/>
			</g>
		</g>
	</g>
</g></g></svg>